<?xml version="1.0" encoding="UTF-8" standalone="no"?>
<!-- Created with Inkscape (http://www.inkscape.org/) -->

<svg
   width="64.885399mm"
   height="55.701332mm"
   viewBox="0 0 64.885399 55.701333"
   version="1.1"
   id="svg1397"
   inkscape:version="1.2.1 (9c6d41e410, 2022-07-14)"
   sodipodi:docname="button3.svg"
   xmlns:inkscape="http://www.inkscape.org/namespaces/inkscape"
   xmlns:sodipodi="http://sodipodi.sourceforge.net/DTD/sodipodi-0.dtd"
   xmlns="http://www.w3.org/2000/svg"
   xmlns:svg="http://www.w3.org/2000/svg">
  <sodipodi:namedview
     id="namedview1399"
     pagecolor="#ffffff"
     bordercolor="#000000"
     borderopacity="0.25"
     inkscape:showpageshadow="2"
     inkscape:pageopacity="0.0"
     inkscape:pagecheckerboard="0"
     inkscape:deskcolor="#d1d1d1"
     inkscape:document-units="mm"
     showgrid="false"
     inkscape:zoom="0.64693624"
     inkscape:cx="-537.92009"
     inkscape:cy="-112.06669"
     inkscape:window-width="1350"
     inkscape:window-height="1230"
     inkscape:window-x="848"
     inkscape:window-y="53"
     inkscape:window-maximized="0"
     inkscape:current-layer="layer1" />
  <defs
     id="defs1394" />
  <g
     inkscape:label="Layer 1"
     inkscape:groupmode="layer"
     id="layer1"
     transform="translate(-201.27161,-152.50617)">
    <g
       id="g2260"
       transform="matrix(0.35277777,0,0,0.35277777,-107.30335,-270.48007)">
      <path
         id="path206"
         style="fill:#000000;stroke:none;stroke-width:0.1"
         d="m 988.47363,1350.9536 c -0.92812,-1.4109 -1.32246,-3.6791 -1.77246,-8.7041 -0.7,-8.4 -1.59971,-10.9014 -2.69971,-7.9014 -0.29999,0.9 0.10049,4.6002 1.00049,8.2002 1.07115,4.2336 1.40641,6.6126 0.63575,7.7754 z" />
      <path
         id="path2251"
         style="fill:#000000;stroke:none;stroke-width:0.1"
         d="m 1058.6001,1259.2559 c 0.1466,-4.4957 -0.2988,-9.5743 -1.0986,-16.8077 -1.6,-14.4999 -2.8007,-20.2 -4.7007,-22.5 -1.9,-2.3 -8.5002,-3.499 -38.2002,-6.999 -17.59997,-2.1 -27.09936,-3.8004 -58.29933,-10.4004 -20.49998,-4.4 -25.4001,-4.6001 -29.6001,-1.1001 -3.59999,3.1 -13.99961,20.7008 -21.09961,35.8008 -2.79999,5.9 -9.3001,21.199 -14.6001,33.999 -5.19999,12.7 -11.00088,26.3007 -12.90087,30.2007 l -3.39991,6.999 0.80127,14.1006 c 0.28195,4.3859 0.66332,8.0247 1.125,11.0728 5.202,0.8036 8.09406,1.2481 10.58936,1.6421 -0.37689,-1.0169 -0.61524,-2.2756 -0.61524,-3.7149 0,-2.3 -0.50009,-6.8005 -1.10009,-10.0005 -0.7,-4.2 -0.70039,-6.1001 0.0996,-7.1001 1.39999,-1.6 3.6,-0.9992 4.5,1.3008 1.18663,2.7971 1.64388,15.7759 1.02832,20.1211 0.76136,0.1213 4.8468,0.7507 5.07861,0.7881 -1.82989,-1.7416 -2.60596,-5.6051 -2.60596,-12.5098 0,-7.4 0.19991,-8.2002 1.8999,-8.2002 1,0 2.3004,0.6008 2.9004,1.3008 0.59999,0.7 1.39882,5.6991 1.79882,11.0991 l 0.62549,8.7569 2.23975,0.082 -0.26514,-9.6387 -0.29883,-10.7988 2.79932,0.5991 c 1.5,0.4 3.39971,1.3006 4.19971,2.1006 0.9,0.9 1.50068,4.4 1.70068,10.5 l 0.24902,7.5454 4.09571,0.4966 c -0.72684,-1.5829 -0.94483,-4.3355 -0.94483,-9.0425 0,-4.8 0.3002,-9.0003 0.7002,-9.3003 1,-1 4.59961,0.3006 6.09961,2.1006 0.7,0.9 1.00019,2.3 0.70019,3 -0.3,0.8 -0.50097,4.4998 -0.50097,8.2998 0,3.1757 -0.0267,4.8813 -0.30762,5.8096 l 3.1875,0.6372 c -0.52404,-3.2969 -0.003,-13.0072 1.1206,-15.9463 0.9,-2.5 1.39971,-2.8002 4.19971,-2.2002 1.8,0.3 3.60049,1.1999 4.00049,1.8999 0.4,0.6 0.70059,5.0002 0.60059,9.7002 l -0.26661,7.563 2.96192,0.1143 c -0.49671,-3.8064 0.57677,-14.987 1.80469,-16.4781 0.79999,-1.1 4.20009,-0.8001 5.60009,0.3999 0.8,0.7 1.99912,9.1998 2.09912,14.2998 v 3.4058 l 4.84571,1.1851 c -0.13492,-0.3199 -0.2714,-0.6725 -0.44532,-1.0899 -1.69999,-4.1 -1.80068,-14.5997 -0.20068,-16.1997 0.7,-0.7 1.90078,-1.0013 2.80078,-0.8013 0.8,0.3 2.39912,0.7005 3.59912,1.0005 1.8,0.5 2.3003,1.8996 3.3003,9.0996 1.69999,11 3.60009,10.4002 2.60009,-0.7998 l -0.70019,-7.9995 2.90039,0.7002 c 4.4,1.1 5.2998,3.0999 5.2998,12.3999 v 6.9317 l 3.45411,0.8847 c -0.1509,-1.6128 -0.14264,-4.1571 0.0454,-7.4165 0.8,-11.1 1.00127,-11.6003 3.80127,-10.8003 1.19999,0.3 4.99941,1.1007 8.39941,1.7007 4.3,0.7 6.4002,1.5997 6.70019,2.6997 0.6,1.9 2.6001,16.5998 2.6001,18.7998 0,0.087 -0.0392,0.1458 -0.0513,0.2241 l 3.49805,1.3887 c -0.96573,-2.2936 -1.44727,-6.0896 -1.44727,-11.5122 0,-8.9 0.40053,-9.6007 4.00058,-7.7007 1.8,0.9 1.8992,2.1005 1.6992,11.5005 -0.1136,4.9415 -0.2656,7.6083 -0.5904,8.9956 l 11.7129,1.4649 c -0.5274,-1.0812 -1.0165,-4.5777 -1.8222,-11.5606 -1.1,-9.8 -1.0999,-10.3005 1.1001,-14.5005 l 2.2998,-4.4004 0.7002,3 c 0.4,1.6 0.7002,7.301 0.7002,12.501 0,2.6306 -0.1213,5.2392 -0.3282,7.4868 l 3.8907,-8.4712 -0.5625,-3.5156 c -0.8,-4.7 -0.5006,-11.2999 0.8994,-21.3999 1,-7.2 2.2998,-2.5006 2.2998,8.3994 0,3.1247 -0.1732,6.4274 -0.4409,9.17 l 0.1919,-0.9185 4.2714,-10.2085 c -1.086,1.534 -1.7272,-1.1084 -2.5224,-8.8433 -0.6,-5.6 -0.3989,-7.6997 1.6011,-13.1997 1.2,-3.6 2.5996,-6.1997 3.0996,-5.6997 0.4,0.4 0.7994,4.8002 0.8994,9.7002 0.085,2.764 0.015,5.0335 -0.1611,7.0987 l 0.057,-0.2315 4.2539,-9.249 c -0.1513,-0.4056 -0.3076,-1.169 -0.5493,-2.6192 -0.9,-5.3 -0.9,-21.9999 0,-22.8999 1.4,-1.4 2.2006,3 2.1006,12.3999 0,4.36 -0.2161,8.7139 -0.5201,10.8794 l 0.089,-0.1948 4.1045,-10.3374 -0.2739,-10.4473 c -0.3,-11.0999 1.0993,-24.3989 2.7993,-25.3989 0.5,-0.3 1.1996,3.1 1.5996,7.5 0.4,4.9 1.0007,7.6993 1.7007,7.2993 0.6,-0.4 0.7003,-4.5997 0.3003,-11.6997 -0.7,-11.6 0,-18.9004 1.5,-16.4004 0.5,0.7 0.8994,2.3006 0.8994,3.6006 0,1.3 0.7,5.6998 1.5,9.7998 l 1.1631,5.4566 0.013,-0.035 z m -124.29932,-53.3072 c 1.3,0 6.00069,1.0994 10.70068,2.3994 19.99998,5.8 47.49948,10.4011 81.89944,13.6011 10.9,1 14.6997,2.0993 14.6997,4.2993 0,0.7 -1.799,5.0006 -3.999,9.6006 -4.9,10.1 -8.4006,20.5997 -20.1006,60.0996 -5,16.8 -9.3998,30.9008 -9.7998,31.3008 -0.5,0.4 -5.8993,-0.4003 -12.19925,-1.8003 -12.39998,-2.8 -82.50138,-14.6 -97.90136,-16.5 -5.2,-0.7 -10.09922,-1.3011 -10.69922,-1.6011 -0.9,-0.2 -0.2002,-2.6991 2.2998,-8.0991 2,-4.3 7.40001,-16.6003 12,-27.3003 4.6,-10.7 13.50069,-29.9002 19.70069,-42.7002 9.59999,-19.8999 11.49892,-23.1998 13.39892,-23.2998 z" />
      <path
         d="m 931.70123,1225.8488 c -3.1,4.3 -10.8,21.1 -12.7,27.7 -1.7,5.8 -1.3,7.7 1.1,5.3 2.2,-2.3 16.6,-32 16.3,-33.7 -0.5,-2.7 -2.5,-2.4 -4.7,0.7 z"
         id="path208"
         style="fill:#000000;stroke:none;stroke-width:0.1" />
      <path
         d="m 965.80123,1228.8488 c -5.5,0.9 -8.2,2.4 -8.2,4.7 0,2.4 3.7,3.4 12.7,3.5 10,0.2 14.5,0.9 15,2.5 0.5,1.5 -8.1,6.4 -19.4,11.2 -12.3,5.1 -13.6,6.1 -13.6,10.2 0,3.9 2.3,6 6.7,6 11.7,0 22.1,10.7 15.9,16.2 -3.7,3.3 -16.1,4.9 -21.5,2.9 -1.3,-0.5 -4.9,-3 -7.9,-5.6 -6.8,-5.9 -11.2,-8 -14,-6.5 -5,2.7 -4.2,10.5 1.8,17.1 10.4,11.5 26.7,13.7 43,5.8 6.8,-3.3 10.8,-7.6 12.4,-13.4 1.4,-5.1 -1.2,-13.4 -5.7,-18.5 -2,-2.2 -3.4,-4.7 -3.2,-5.6 0.2,-0.9 4.2,-3.9 8.9,-6.5 10.7,-6 16.09997,-11.7 15.69997,-16.2 -0.3,-2.7 -1,-3.6 -4.99997,-5.5 -4,-2 -6.6,-2.4 -16.5,-2.7 -6.5,-0.2 -14.2,0 -17.1,0.4 z"
         id="path210"
         style="fill:#000000;stroke:none;stroke-width:0.1" />
    </g>
  </g>
</svg>
