<?xml version="1.0" encoding="UTF-8" standalone="no"?>
<!-- Created with Inkscape (http://www.inkscape.org/) -->

<svg
   width="64.832054mm"
   height="56.212105mm"
   viewBox="0 0 64.832054 56.212106"
   version="1.1"
   id="svg1397"
   inkscape:version="1.2.1 (9c6d41e410, 2022-07-14)"
   sodipodi:docname="button2.svg"
   xmlns:inkscape="http://www.inkscape.org/namespaces/inkscape"
   xmlns:sodipodi="http://sodipodi.sourceforge.net/DTD/sodipodi-0.dtd"
   xmlns="http://www.w3.org/2000/svg"
   xmlns:svg="http://www.w3.org/2000/svg">
  <sodipodi:namedview
     id="namedview1399"
     pagecolor="#ffffff"
     bordercolor="#000000"
     borderopacity="0.25"
     inkscape:showpageshadow="2"
     inkscape:pageopacity="0.0"
     inkscape:pagecheckerboard="0"
     inkscape:deskcolor="#d1d1d1"
     inkscape:document-units="mm"
     showgrid="false"
     inkscape:zoom="0.64693624"
     inkscape:cx="-517.82537"
     inkscape:cy="-133.70715"
     inkscape:window-width="1350"
     inkscape:window-height="1230"
     inkscape:window-x="848"
     inkscape:window-y="53"
     inkscape:window-maximized="0"
     inkscape:current-layer="layer1" />
  <defs
     id="defs1394" />
  <g
     inkscape:label="Layer 1"
     inkscape:groupmode="layer"
     id="layer1"
     transform="translate(-196.08824,-158.27198)">
    <g
       id="g2196"
       transform="matrix(0.35277777,0,0,0.35277777,-47.223002,-250.93196)">
      <path
         id="path2189"
         style="fill:#000000;stroke:none;stroke-width:0.1"
         d="m 873.47607,1221.6035 c 0.009,-1.6577 -0.0421,-3.3959 -0.17431,-5.4551 -1.6,-23.8999 -3.49981,-33.6997 -6.79981,-35.6997 -1.6,-1 -12.80012,-2.7 -38.60009,-6 -11.09999,-1.3 -26.60001,-3.9005 -34.5,-5.5005 -23.39998,-5 -43.20079,-9 -44.80079,-9 -0.79999,0 -3.00029,0.8007 -4.80029,1.7007 -6.59999,3.2 -21.70011,31.7006 -38.6001,73.0005 -5.19999,12.7 -10.79951,25.7991 -12.49951,29.0991 l -3,5.9004 0.79981,14.3994 c 0.3234,5.4979 0.58473,9.2218 0.92285,11.9458 5.34507,0.8262 8.58077,1.3233 11.01416,1.708 -0.3117,-0.4436 -0.493,-1.02 -0.53613,-1.7534 -0.2,-1.4 -0.8004,-6.1992 -1.4004,-10.6992 -1.39999,-10.6 -0.1995,-13.0007 4.00049,-7.7007 1.8,2.3 2.09912,4.0996 2.09912,12.0996 0,5.4746 -0.0459,7.7273 -0.51709,8.6192 0.80245,0.1279 5.51591,0.8532 5.66602,0.8774 -2.26379,-1.4632 -3.14941,-5.5108 -3.14941,-13.4956 0,-8.7 10e-4,-8.8006 2.30127,-8.1006 1.19999,0.3 2.29902,0.7994 2.49902,0.8994 0.6,0.5 2.20019,13.0013 2.20019,17.3013 0,2.1157 -0.0707,3.18 -0.44384,3.6826 l 2.91943,0.107 -0.27539,-9.8907 c -0.2,-10 -0.0993,-10.6992 1.70068,-10.6992 1,0 2.89864,0.8003 4.09864,1.8003 1.99999,1.6 2.30087,2.7988 2.40087,10.7988 l 0.0923,8.2911 4.64648,0.5639 c -0.91451,-1.5591 -1.13964,-4.564 -1.13964,-10.1543 0,-8.5 0.20136,-9.3003 1.90136,-9.3003 1.1,0 2.59952,0.3006 3.49951,0.6006 1.3,0.5 1.59961,2.4 1.59961,10.5 0,5.829 -0.0446,8.1971 -0.55078,9.1831 l 4.64063,0.9273 c -1.69043,-1.264 -2.0897,-3.6457 -1.58936,-7.711 1.3,-11 1.50001,-11.5005 4.5,-11.5005 1.6,0 3.6,0.7011 4.5,1.6011 1.2,1.3 1.49932,3.3993 1.29932,10.2993 l -0.27979,8.0157 3.01319,0.1157 c -0.4904,-2.7527 0.15665,-13.0564 1.0664,-16.3316 0.6,-1.8 3.00128,-2.1998 5.30127,-0.7998 1.6,1 2.99961,7.7 3.09961,15 v 3.8467 l 5.11231,1.2495 c -0.40633,-0.5189 -0.67558,-1.1704 -1.01221,-2.0962 -1.2,-3.5 -1.4999,-15.1997 -0.3999,-16.1997 0.9,-1 2.5,-0.8997 6,0.3003 2.89999,1 3.09932,1.5002 4.29931,9.7002 1.5,10.4 3.40088,9.4 2.40088,-1.5 -0.6,-6.9 -0.49999,-7.2012 1.5,-7.2012 1.1,0 2.99864,0.901 4.09864,2.001 1.69999,1.7 2.00097,3.3 2.00097,10.5 0,4.1936 0.11287,6.4529 -0.54785,7.5366 l 3.51416,0.9024 0.63281,-8.3394 c 0.3,-5 0.8001,-9.3994 1.1001,-9.8994 0.6,-0.9 0.6003,-0.9006 9.30029,0.8994 4.1,0.8 7.70059,2.0005 8.10059,2.5005 0.73704,1.2898 2.74132,17.2296 2.58398,20.127 l 4.30518,1.7094 c -1.09434,-2.3207 -2.04092,-6.3872 -2.49023,-11.1372 -0.9,-9.7 0.30137,-11.799 4.90136,-8.499 1.5,1.1 1.59903,2.399 0.99903,11.499 -0.28151,3.9411 -0.70859,7.2926 -1.07813,8.9883 l 12.41895,1.5528 c -0.40748,-1.5324 -1.08465,-5.7163 -1.64063,-10.6407 -1.1,-9.6 -0.99931,-11.6997 0.20069,-14.6997 0.89999,-1.9 1.89941,-3.9008 2.39941,-4.3008 1.1,-1.2 2.20019,5.3998 2.20019,14.6997 0.0276,2.0429 -0.0767,4.133 -0.25927,6.1084 l 3.54199,-7.7124 -0.68262,-4.0957 c -0.7,-4.4 -0.20029,-13.5995 1.19971,-21.4995 1.1,-6.3 2.30019,-1.0002 2.20019,9.7998 0,2.7635 -0.10707,5.2082 -0.27246,7.3404 l 3.9126,-9.3545 c -0.78868,0.1482 -1.35649,-2.7188 -2.04053,-9.1861 -0.6,-5.5 -0.29999,-7.7997 1.5,-13.1997 1.2,-3.7 2.59961,-6.4 3.09961,-6 0.5,0.3 0.90088,4.8993 0.90088,10.2993 0,2.3637 -0.10796,4.4647 -0.2666,6.4263 l 4.41211,-9.5918 -0.44531,-2.2339 c -0.6,-3.2 -1.20088,-14.8998 -0.90088,-20.2998 0.2,-4.1 1.8001,-4.1996 2.6001,-0.1 0.7552,3.8704 0.61064,16.0993 -0.16407,20.1607 l 4.32276,-10.8853 c -0.77139,-0.2007 -0.81898,-4.5769 -0.65772,-13.8765 0.2,-8.9999 1.99922,-21.4995 3.19922,-21.4995 0.4,0 1.1,3.5995 1.5,7.9995 0.4,4.9 0.99961,7.7008 1.59961,7.3008 0.7,-0.3 0.80029,-4.8007 0.30029,-12.2007 -0.7,-11.8999 -3.8e-4,-18.4994 1.59961,-15.8994 0.5,0.7 0.90088,2.6001 0.90088,4.1001 0,1.5 0.69961,5.8991 1.59961,9.5991 0.55834,2.5312 0.90715,4.1464 1.00342,5.4727 z m -124.36523,-54.3266 c 0.29062,0.016 0.59063,0.071 0.89062,0.1713 1.2,0.3 7.10011,1.901 13.1001,3.501 23.19998,6.2 48.79963,10.5 70.59961,12 15.09999,1 21.7,2.3 22.5,4.5 0.3,0.8 -0.8001,4.2992 -2.6001,7.6992 -4.79999,9.5 -9.70049,24.0004 -20.50048,60.3003 -5.4,18.1 -10.19961,33.3994 -10.59961,33.8994 -0.5,0.5 -6.29913,-0.3998 -14.09912,-2.2998 -12.89999,-3 -76.0008,-13.9001 -94.30079,-16.1001 -4.89999,-0.6 -10.00019,-1.2996 -11.20019,-1.5996 l -2.29981,-0.3999 2.6001,-5.7993 c 1.5,-3.1 7.3005,-16.5012 13.00049,-29.7012 9.49999,-21.8999 28.49981,-62.0998 30.7998,-65.2998 0.45,-0.6 1.23751,-0.9184 2.10938,-0.8715 z" />
      <path
         d="m 747.80123,1179.1488 c -3,3.3 -20.2,39.3 -20.2,42.4 0,2.7 0,2.7 2.1,0.8 1.2,-1 3.9,-5 6.1,-8.9 2.2,-3.8 6.5,-11.2 9.5,-16.3 3.1,-5.1 6.2,-11 6.9,-13.2 2.3,-6.5 -0.2,-9.2 -4.4,-4.8 z"
         id="path200"
         style="fill:#000000;stroke:none;stroke-width:0.1" />
      <path
         d="m 786.60123,1190.7488 c -8,3 -15.7,12.4 -12.1,14.6 0.5,0.4 2.2,-0.5 3.8,-1.8 5.9,-4.9 12.7,-7.2 16.8,-5.6 7.7,2.9 2,14.8 -11.4,23.9 -3.1,2.1 -11.6,6.8 -18.9,10.6 -19.4,9.8 -24.8,15.9 -18.9,21.2 3.3,3.1 5.5,3.9 13.2,5.2 3.9,0.7 9.2,1.9 11.9,2.7 7.4,2.1 15.9,1.9 18.1,-0.6 1.2,-1.3 1.5,-2.7 1.1,-4.5 -0.8,-3.3 -6.1,-5.8 -16.8,-8.1 -4.3,-0.9 -7.8,-2 -7.8,-2.4 0,-0.4 3.6,-2.2 8.1,-4 15.5,-6.3 29.6,-17.8 34.4,-28.2 3.7,-8 3.1,-13.4 -2.3,-19.2 -5.3,-5.6 -11.2,-6.8 -19.2,-3.8 z"
         id="path202"
         style="fill:#000000;stroke:none;stroke-width:0.1" />
      <path
         d="m 798.60123,1297.1488 c 0,1.3 0.7,4.5 1.4,7.3 l 1.4,5 0.1,-5.7 c 0.1,-6 -0.5,-8.8 -2,-8.8 -0.5,0 -0.9,1 -0.9,2.2 z"
         id="path204"
         style="fill:#000000;stroke:none;stroke-width:0.1" />
    </g>
  </g>
</svg>
