<?xml version="1.0" encoding="UTF-8" standalone="no"?>
<!-- Created with Inkscape (http://www.inkscape.org/) -->

<svg
   width="64.5215mm"
   height="55.634315mm"
   viewBox="0 0 64.521499 55.634316"
   version="1.1"
   id="svg1397"
   inkscape:version="1.2.1 (9c6d41e410, 2022-07-14)"
   sodipodi:docname="button4.svg"
   xmlns:inkscape="http://www.inkscape.org/namespaces/inkscape"
   xmlns:sodipodi="http://sodipodi.sourceforge.net/DTD/sodipodi-0.dtd"
   xmlns="http://www.w3.org/2000/svg"
   xmlns:svg="http://www.w3.org/2000/svg">
  <sodipodi:namedview
     id="namedview1399"
     pagecolor="#ffffff"
     bordercolor="#000000"
     borderopacity="0.25"
     inkscape:showpageshadow="2"
     inkscape:pageopacity="0.0"
     inkscape:pagecheckerboard="0"
     inkscape:deskcolor="#d1d1d1"
     inkscape:document-units="mm"
     showgrid="false"
     inkscape:zoom="0.64693624"
     inkscape:cx="-285.96327"
     inkscape:cy="-81.151738"
     inkscape:window-width="1350"
     inkscape:window-height="1230"
     inkscape:window-x="848"
     inkscape:window-y="53"
     inkscape:window-maximized="0"
     inkscape:current-layer="layer1" />
  <defs
     id="defs1394" />
  <g
     inkscape:label="Layer 1"
     inkscape:groupmode="layer"
     id="layer1"
     transform="translate(-126.04865,-144.27525)">
    <g
       id="g1918"
       transform="matrix(0.35277777,0,0,0.35277777,-82.133604,-188.72612)">
      <path
         id="path166"
         style="fill:#000000;stroke:none;stroke-width:0.1"
         d="m 704.55469,1097.105 c -1.7585,-1.4881 -2.25664,-3.1222 -2.65283,-9.9566 -0.6,-8 -1.7004,-10.9992 -2.9004,-7.6992 -0.39999,0.8 0.10049,4.4991 1.00049,8.0991 1.40119,5.5381 1.54323,7.9058 -0.41015,8.5181 z" />
      <path
         id="path1911"
         style="fill:#000000;stroke:none;stroke-width:0.1"
         d="m 773.01855,1003.938 -0.0176,-1.9893 c 0,-14.99995 -1.8001,-30.20027 -4.1001,-34.80026 -1.3,-2.6 -2.7003,-3.89932 -4.80029,-4.29932 -5.4,-1.3 -23.69904,-3.90049 -38.49903,-5.50049 -7.99999,-0.9 -21.90049,-3.19912 -31.00049,-5.09912 -9.09999,-1.8 -21.79932,-4.50078 -28.29931,-5.80078 -16.59999,-3.5 -20.8001,-3.3998 -25.1001,0.7002 -7.39999,6.99999 -19.70109,31.40052 -36.10107,71.50047 -5.7,13.8 -11.49942,27.3 -12.89942,30 -2.4,4.7 -2.39961,5.0998 -1.59961,18.7998 0.26793,4.5548 0.52954,8.0399 0.87891,10.8985 1.908,0.3128 4.2326,0.6665 5.87402,0.9506 2.05568,0.3559 3.38359,0.6187 5.03614,0.9244 -1.0524,-3.6531 -2.8458,-19.4435 -2.18995,-20.4742 1,-1.5 3.39991,-0.8004 4.89991,1.5996 1.71442,2.6125 1.82792,15.0149 0.61523,19.4839 0.30689,0.059 0.81901,0.1471 1.10742,0.2036 2.19345,0.4297 3.66772,0.7442 4.83692,0.9991 -2.15677,-1.522 -3.0586,-5.4361 -3.0586,-12.8863 0,-8 0.0994,-8.2002 2.39942,-8.2002 1.3,0 2.7,0.7 3,1.5 0.3,0.9 0.8997,5.9006 1.1997,11.1006 l 0.66504,9.1158 2.21485,0.1259 -0.27979,-8.7422 c -0.1,-5.2 2.9e-4,-10.0988 0.30029,-10.7988 0.6,-1.6 4.09991,-0.9007 6.39991,1.2993 1,0.9 1.5999,4.3004 1.8999,10.4004 l 0.47021,8.5342 4.23633,0.4175 c -1.19233,-1.3326 -1.50586,-4.1908 -1.50586,-9.9522 0,-4.8 0.3002,-9.0003 0.7002,-9.3003 1.2,-1.3 3.29941,-0.6996 5.39941,1.4004 1.1,1.1 1.8,2.7006 1.5,3.6006 -0.3,0.8 -0.60058,4.5994 -0.60058,8.3994 0,4.2516 -0.0549,5.8739 -0.7002,6.501 l 4.31836,0.7339 c -0.46228,-0.4825 -0.74294,-1.1209 -0.91699,-2.0347 -0.5,-2.8 0.8999,-14.8 1.8999,-16.5 0.8,-1.3 6.59961,-0.2 7.59961,1.5 0.4,0.6 0.7998,4.8995 0.7998,9.4995 0,5.3606 -0.17796,7.8249 -1.48681,8.7393 l 4.70947,0.624 c -0.14275,-0.1203 -0.26123,-0.2412 -0.32227,-0.3633 -1.09999,-1.7 4e-4,-15.9001 1.4004,-17.6001 0.79999,-1.1 4.20009,-0.8001 5.60009,0.3999 0.8,0.7 1.99912,9.1998 2.09912,14.2998 v 4.8443 l 6.0835,0.936 c -1.08768,-0.8228 -1.63561,-1.9131 -2.08301,-3.479 -1.4,-5 -1.30078,-13.5 0.19922,-15 0.7,-0.7 1.90078,-1.0013 2.80078,-0.8013 0.8,0.3 2.5002,0.7001 3.7002,1.1001 1.8,0.5 2.29883,1.8 3.29883,9 1.59999,11.1 3.50009,10.5002 2.60009,-0.7998 l -0.69873,-7.8999 2.79932,0.7002 c 4.89999,1.2 5.2998,2.0997 5.2998,11.6997 v 8.4844 l 3.4878,0.9317 c -0.30644,-1.2629 -0.28883,-3.9095 0.0117,-7.5162 0.99999,-11.8999 1.10078,-12.4001 4.30078,-11.6001 1.5,0.4 5.10059,1.1011 8.10058,1.6011 3,0.5 5.79922,1.1996 6.19922,1.5996 0.6,0.7 2.90039,16.7006 2.90039,20.1006 0,0.3582 -0.16842,0.6053 -0.41015,0.794 l 4.62158,1.642 c -0.22925,-0.377 -0.45505,-0.7403 -0.71192,-1.2363 -1.79999,-3.5 -2.1999,-20.001 -0.3999,-20.001 0.6,0 1.90039,0.5005 2.90039,1.0005 1.8,0.9 1.89922,2.1005 1.69922,11.5005 -0.0866,4.8496 -0.35686,7.8563 -0.854,9.3648 l 11.85498,0.8305 c -0.46607,-1.288 -0.91448,-4.6058 -1.70069,-10.8955 -1.09999,-9.2 -0.9999,-10.0005 1.1001,-14.5005 l 2.2002,-4.8003 0.70019,3 c 0.4,1.6 0.79942,7.3006 0.89942,12.6006 0.0414,2.6502 -0.0417,4.8702 -0.1919,6.8203 l 3.63867,-7.9277 c -0.20969,-0.6229 -0.37924,-2.1468 -0.64599,-4.9922 -0.3,-3.6 -0.20117,-9.901 0.29883,-14.001 0.5,-4.1 0.90048,-8.0993 1.00048,-8.7993 0,-0.7 0.50049,-1.0002 1.00049,-0.7002 0.6,0.4 0.99903,5.5003 0.99903,12.3003 -0.0475,3.417 -0.19028,6.4537 -0.40723,8.9385 l 0.2666,-1.2788 4.12793,-9.8687 c -1.06471,1.4271 -1.70076,-1.2407 -2.4873,-8.8916 -0.6,-5.6 -0.39893,-7.6001 1.60107,-13.1001 1.3,-3.6 2.69961,-6.1993 3.09961,-5.7993 0.4,0.4 0.79941,4.7002 0.89941,9.7002 0.0857,2.8294 0.033,5.0835 -0.1333,7.1279 l 0.13623,-0.5507 4.20118,-9.1333 c -0.19675,-0.4386 -0.39978,-1.241 -0.60352,-2.4449 -0.9,-5.3 -0.9,-21.9988 0,-22.7988 1.5,-1.6 2.30019,2.3989 2.20019,12.2988 0,4.5689 -0.16422,8.108 -0.42626,10.4004 l 0.003,-0.01 3.99169,-10.0547 -0.26806,-10.3389 c -0.3,-11.3 1.19932,-24.49998 2.79931,-25.49998 0.5,-0.3 1.19961,3.09998 1.59961,7.49998 0.4,5 1.00069,7.6993 1.70069,7.2993 0.6,-0.4 0.80029,-4.5993 0.30029,-11.7993 -0.6,-11.09997 -0.10107,-17.90096 1.39893,-17.00096 0.4,0.2 1.00078,3.09991 1.30078,6.3999 0.4,3.2 1.20029,7.90079 1.80029,10.30076 0.30361,1.088 0.51479,1.9411 0.57275,2.8404 l 0.11133,-0.3091 z M 649.30078,950.94873 c 1.3,0 6.19991,1.10049 10.8999,2.50049 19.99998,5.79999 47.00023,10.3 81.7002,13.5 10.89999,1 14.69971,2.09932 14.69971,4.29932 0,0.69999 -1.79942,4.8999 -3.89942,9.3999 -4.49999,9.19999 -9.49962,24.20036 -21.09961,63.30026 -4.49999,15.1 -8.59961,27.9 -9.09961,28.5 -0.6,0.6 -5.10069,-0.1003 -12.20068,-1.8003 -12.49999,-3.1 -67.70071,-12.5998 -91.70068,-15.7998 -8.5,-1.2 -16.09922,-2.3005 -16.69922,-2.5005 -0.9,-0.2 -0.20059,-2.6991 2.39941,-8.0991 1.9,-4.3 7.59991,-17.0008 12.3999,-28.3008 4.9,-11.2999 13.70108,-30.4987 19.60108,-42.69869 9.29999,-18.99998 11.09902,-22.20078 12.99902,-22.30078 z" />
      <path
         d="m 647.80123,965.6488 c -1.7,2.7 -6.5,12.2 -10.6,21.2 -9.6,20.8 -11.7,27.9 -7,24 2.4,-2 23.4,-44.6 23.4,-47.5 0,-3.8 -2.5,-2.8 -5.8,2.3 z"
         id="path168"
         style="fill:#000000;stroke:none;stroke-width:0.1" />
      <path
         d="m 676.80123,976.6488 c -3.3,3.3 -14.4,22.9 -16.7,29.2 -1.9,5.5 -1.9,10.5 0,13.5 2.2,3.3 7.3,5.3 20.3,8 6.3,1.3 11.6,2.7 11.9,3 0.3,0.3 -1.6,4.9 -4.1,10.4 -2.5,5.4 -4.6,11.1 -4.6,12.6 0,3.8 1.7,6.6 4.1,6.6 4.7,0 8,-5.8 23.2,-40.5 12.3,-27.9 14.4,-36.9 9.2,-38.9 -4.1,-1.6 -6.1,1.3 -14.3,20.9 -2.8,6.6 -5.9,14.1 -7.1,16.7 l -2,4.8 -7.8,-3.4 c -4.3,-1.8 -10.2,-4.1 -13,-5 -3.8,-1.3 -5.3,-2.3 -5.3,-3.5 0,-1 2.9,-7.9 6.5,-15.3 6.9,-14.4 7.9,-19 4.5,-20.8 -1.7,-0.9 -2.5,-0.6 -4.8,1.7 z"
         id="path170"
         style="fill:#000000;stroke:none;stroke-width:0.1" />
    </g>
  </g>
</svg>
