<?xml version="1.0" encoding="UTF-8" standalone="no"?>
<!-- Created with Inkscape (http://www.inkscape.org/) -->

<svg
   width="64.932976mm"
   height="56.233315mm"
   viewBox="0 0 64.932975 56.233315"
   version="1.1"
   id="svg1397"
   inkscape:version="1.2.1 (9c6d41e410, 2022-07-14)"
   sodipodi:docname="button5.svg"
   xmlns:inkscape="http://www.inkscape.org/namespaces/inkscape"
   xmlns:sodipodi="http://sodipodi.sourceforge.net/DTD/sodipodi-0.dtd"
   xmlns="http://www.w3.org/2000/svg"
   xmlns:svg="http://www.w3.org/2000/svg">
  <sodipodi:namedview
     id="namedview1399"
     pagecolor="#ffffff"
     bordercolor="#000000"
     borderopacity="0.25"
     inkscape:showpageshadow="2"
     inkscape:pageopacity="0.0"
     inkscape:pagecheckerboard="0"
     inkscape:deskcolor="#d1d1d1"
     inkscape:document-units="mm"
     showgrid="false"
     inkscape:zoom="0.64693624"
     inkscape:cx="-394.16558"
     inkscape:cy="-136.79864"
     inkscape:window-width="1350"
     inkscape:window-height="1230"
     inkscape:window-x="848"
     inkscape:window-y="53"
     inkscape:window-maximized="0"
     inkscape:current-layer="layer1" />
  <defs
     id="defs1394" />
  <g
     inkscape:label="Layer 1"
     inkscape:groupmode="layer"
     id="layer1"
     transform="translate(-154.52004,-159.10139)">
    <g
       id="g1847"
       transform="matrix(0.35277777,0,0,0.35277777,-114.262,-187.34278)">
      <path
         id="path174"
         style="fill:#000000;stroke:none;stroke-width:0.1"
         d="m 876.15234,1135.6318 c -1.22852,-1.4039 -1.62837,-3.9121 -2.05078,-9.2827 -0.4,-4.6 -1.09961,-8.7 -1.59961,-9 -1.8,-1.1 -2.00097,2.4994 -0.50097,8.3994 1.7238,6.5505 2.25781,8.6315 0.45703,9.063 z" />
      <path
         id="path1840"
         style="fill:#000000;stroke:none;stroke-width:0.1"
         d="m 945.91992,1043.792 c 0.11657,-2.62 -0.002,-5.3027 -0.31933,-8.3438 -0.5,-4.4 -1.29991,-12.0987 -1.89991,-17.1987 -1.1,-10 -2.9999,-14.9008 -6.3999,-16.3008 -2.7,-1 -18.80021,-3.50046 -36.70019,-5.50046 -18.49999,-2.1 -23.99953,-3.1001 -42.49952,-7.1001 -19.49998,-4.29999 -35.5,-7.39931 -37.5,-7.29931 -0.79999,0 -2.39951,0.39941 -3.49951,0.89941 -7.29999,3 -22.0005,30.10106 -38.50049,71.00096 -3.39999,8.5 -8.59941,20.8995 -11.39941,27.4995 l -5.2998,12 0.7998,13.0005 c 0.22289,4.7549 0.58511,8.633 1.09424,11.7261 5.3016,0.8193 8.45986,1.3041 10.9043,1.6904 -0.69923,-1.0753 -0.9494,-3.5513 -1.39893,-9.7163 -0.5,-5.7 -0.60029,-11.0004 -0.30029,-11.9004 0.9,-2.3 3.00078,-1.0007 4.30078,2.7993 0.7,1.9 1.1997,7.1012 1.1997,11.7012 0.0604,4.8906 0.0393,6.8767 -0.44238,7.6362 0.8711,0.1388 5.58656,0.8645 5.77588,0.8951 -2.01824,-1.7175 -3.23437,-6.6798 -3.23437,-13.6319 0,-8.6 0.60088,-9.9003 3.90087,-7.8003 1.7,1.1 2.99961,7.7998 3.09961,15.7998 0,3.8726 -0.10668,5.3673 -0.76171,5.9429 l 4.25097,0.1553 c -1.26855,-1.436 -1.48974,-4.5104 -1.48974,-10.9981 0,-9.6 0.10127,-9.7998 2.30127,-9.7998 1.29999,0 3.19931,0.6004 4.29931,1.4004 1.6,1.2 2.0002,2.8995 2.2002,10.9995 l 0.36328,8.7085 4.57764,0.5552 c -1.27723,-1.5489 -1.7417,-4.6128 -1.7417,-10.0635 0,-4.5 0.30019,-8.6004 0.70019,-8.9004 1.2,-1.2 4.10078,-0.6995 5.80078,1.0005 1.3,1.3 1.6001,2.6996 1.1001,6.0996 -0.3,2.5 -0.60059,6.4008 -0.60059,8.8008 0,2.1002 -0.10719,3.2136 -0.48339,3.8013 l 5.2207,1.0444 c -1.02869,-0.5925 -1.47507,-1.4735 -1.73731,-3.0469 -0.6,-3 0.49961,-13.8995 1.59961,-15.4995 0.7,-1.2 4.10098,-1.1004 6.50098,0.1 1.7,0.9 1.8999,2.2001 1.8999,10.1001 0,5.1669 -0.11393,7.8115 -1.00342,8.9663 l 4.16016,0.1597 c -0.0541,-0.075 -0.11671,-0.1491 -0.15674,-0.2256 -1,-1.8 0.19961,-14.9006 1.59961,-17.1006 0.7,-1.3 2.70069,-1.0997 4.70069,0.3003 1.19999,0.9 2.00009,3.6998 2.60009,9.7998 0.33576,3.9452 0.45485,7.5085 0.19043,8.8565 l 5.29395,1.2934 c -0.51749,-0.6983 -0.93831,-1.6622 -1.28467,-2.9487 -1.5,-5.1 -1.40039,-13.5 0.0996,-15 1.2,-1.2 6.49951,-0.8013 7.99951,0.6987 0.5,0.4 1.2999,4.4004 1.8999,8.9004 1.5,10.4 3.4001,9.8006 2.6001,-0.8994 -0.5,-7.5 -0.39892,-7.8999 1.60108,-7.8999 4.49999,0 5.6997,2.5992 5.6997,12.1992 0,3.5149 -0.16256,6.5654 -0.40576,7.9659 l 0.082,0.012 4.38428,1.1235 c -0.84443,-1.3728 -0.79568,-3.6419 -0.46143,-7.7007 1,-13.1 0.20031,-12.3997 10.8003,-10.1997 3.79999,0.8 7.19961,1.7998 7.59961,2.2998 0.8,0.9 3,14.7994 3,18.8994 0,0.8124 -0.0436,1.3521 -0.19776,1.6978 l 4.43701,1.7622 c -1.46087,-2.3528 -2.23828,-6.8051 -2.23828,-13.1602 0,-7.0999 0.19991,-7.8999 1.8999,-7.8999 1,0 2.3004,0.6008 2.9004,1.3008 0.95912,1.1335 1.30835,16.7731 0.65332,20.7642 l 11.46826,1.4341 c -0.20137,-1.2736 -0.71066,-5.0718 -1.42237,-10.4986 -1.59999,-10.8 -1.49941,-11.0998 0.60059,-15.7998 1.8,-4.1 2.19893,-4.3997 2.89893,-2.6997 0.5,1.1 0.90087,6.899 0.90087,12.999 0,3.1168 -0.13797,5.9058 -0.35156,8.2837 l 4.00928,-8.729 c -0.37153,-0.1128 -0.3962,-2.6125 -0.4585,-9.1538 -0.1,-12 0.80098,-20.3997 2.00098,-19.1997 0.5,0.5 0.89902,5.7993 0.99902,11.7993 0.0434,3.5139 -0.0102,6.1059 -0.1582,8.2544 l 3.72803,-8.9121 c -0.47616,-0.3741 -0.96579,-2.917 -1.76953,-8.3423 -1,-7.3 -0.90029,-8.4997 1.1997,-14.6997 1.3,-3.7 2.6,-6.7998 3,-6.7998 0.3,0 0.90118,3.9989 1.20118,8.8989 0.24579,3.2937 0.31713,5.7557 0.18896,7.8575 l 4.04004,-8.7832 c -0.2687,-0.3848 -0.55241,-1.65 -0.8291,-3.9742 -0.9,-7.1 -0.90108,-20.4988 -0.10108,-21.2988 1.8,-1.7 2.40127,1.4001 2.30127,11.6001 -0.0444,5.8153 -0.29345,9.9125 -0.63574,12.0718 l 0.0776,-0.167 5.03174,-12.6709 c -0.17778,0.3391 -0.39759,0.7887 -0.47461,0.8657 -2.3,2.4 -0.69971,-28.1004 1.80029,-34.4004 0.8,-1.9 2.0002,2.9997 2.20019,8.6997 0,2.3 0.59971,4.4999 1.19971,4.8999 0.8,0.5 1.09942,-2.3992 0.89942,-10.6992 -0.4,-14.2 -0.19912,-17.9004 0.90087,-17.9004 0.4,0 1.10001,2.5997 1.5,5.6997 0.3,3.2 1.09922,8.0999 1.69922,10.8999 0.35209,1.6004 0.55454,2.7501 0.53614,3.9859 l 0.0146,-0.043 z M 820.60107,988.94824 c 0.5,0 3.69971,0.90098 7.19971,2.00098 21.09998,6.49999 54.60003,12.39948 79.5,13.99948 14.69999,1 21.30029,2.7005 21.30029,5.5005 0,0.8 -1.69941,5.0003 -3.89941,9.3003 -4.4,8.8 -8.39972,20.7988 -20.69971,62.1987 -4.79999,16.2 -8.90107,29.7004 -9.10107,29.9004 -0.2,0.3 -6.49913,-0.9997 -14.09912,-2.6997 -14.79999,-3.5 -77.90012,-14.3004 -95.6001,-16.4004 -5.99999,-0.7 -10.9998,-1.7994 -11.2998,-2.3994 -0.2,-0.6 1.39873,-5.1005 3.69873,-10.0005 2.29999,-4.9 8.10049,-18.0994 13.00048,-29.3994 9.49999,-22.1 28.80001,-62.00096 30,-62.00096 z" />
      <path
         d="m 817.60123,1002.1488 c -2.1,4.5 -7.3,17.7 -9.7,24.2 -1.6,4.5 -0.8,6 1.6,2.9 2.3,-2.8 11.9,-24 12.7,-28.1 1,-4.9 -2.2,-4.2 -4.6,1 z"
         id="path176"
         style="fill:#000000;stroke:none;stroke-width:0.1" />
      <path
         d="m 837.60123,1011.2488 c -1.8,0.9 -2.9,2.8 -4.1,7.3 -0.9,3.4 -3.6,10.5 -5.9,16 -5,11.7 -5.7,15.2 -3.6,17.9 1.3,1.8 2.4,2 13.3,1.7 11,-0.3 12.1,-0.1 15.3,2 3.3,2.2 8,8.1 8,10 0,3.9 -15.4,10.5 -21.9,9.3 -1.9,-0.4 -7.1,-2.6 -11.6,-5.1 -9.7,-5.2 -14.8,-5.8 -18.3,-2.1 -1.2,1.3 -2.2,3 -2.2,3.8 0,4.5 10.7,12.3 21.9,15.9 6.4,2 7.8,2.1 14.4,1.2 15.2,-2.3 27.5,-9.8 29.7,-18.3 2.3,-8.3 -3.9,-20.5 -13.3,-26.3 -3.8,-2.3 -6.2,-3 -12.2,-3.4 -4.1,-0.2 -7.5,-0.8 -7.5,-1.2 0,-0.4 1.5,-4.1 3.4,-8.3 2.2,-4.7 4.2,-7.7 5.3,-7.9 1,-0.2 7,0.4 13.3,1.4 18.7,2.9 28.7,2.1 31.1,-2.3 2.6,-4.9 -2.6,-7.4 -17.1,-8.4 -4.7,-0.4 -13,-1.3 -18.5,-2.1 -16.5,-2.4 -16.9,-2.5 -19.5,-1.1 z"
         id="path178"
         style="fill:#000000;stroke:none;stroke-width:0.1" />
    </g>
  </g>
</svg>
