<?xml version="1.0" encoding="UTF-8" standalone="no"?>
<!-- Created with Inkscape (http://www.inkscape.org/) -->

<svg
   width="64.724228mm"
   height="55.998657mm"
   viewBox="0 0 64.724228 55.998657"
   version="1.1"
   id="svg1048"
   inkscape:version="1.2.1 (9c6d41e410, 2022-07-14)"
   sodipodi:docname="button9.svg"
   xmlns:inkscape="http://www.inkscape.org/namespaces/inkscape"
   xmlns:sodipodi="http://sodipodi.sourceforge.net/DTD/sodipodi-0.dtd"
   xmlns="http://www.w3.org/2000/svg"
   xmlns:svg="http://www.w3.org/2000/svg">
  <sodipodi:namedview
     id="namedview1050"
     pagecolor="#ffffff"
     bordercolor="#000000"
     borderopacity="0.25"
     inkscape:showpageshadow="2"
     inkscape:pageopacity="0.0"
     inkscape:pagecheckerboard="0"
     inkscape:deskcolor="#d1d1d1"
     inkscape:document-units="mm"
     showgrid="false"
     inkscape:zoom="0.914906"
     inkscape:cx="22.953178"
     inkscape:cy="68.313029"
     inkscape:window-width="1350"
     inkscape:window-height="1230"
     inkscape:window-x="566"
     inkscape:window-y="90"
     inkscape:window-maximized="0"
     inkscape:current-layer="layer1" />
  <defs
     id="defs1045" />
  <g
     inkscape:label="Layer 1"
     inkscape:groupmode="layer"
     id="layer1"
     transform="translate(-98.957728,-130.41802)">
    <g
       id="g1341"
       transform="matrix(0.35277777,0,0,0.35277777,-261.44043,-167.35501)">
      <path
         id="path154"
         style="fill:#000000;stroke:none;stroke-width:0.1"
         d="m 1135.4063,997.05176 c -1.1989,-1.64532 -1.8228,-4.51238 -2.2046,-9.20362 -0.7,-8.79999 -1.4012,-10.9997 -2.7012,-8.6997 -0.4,0.8 -0.1,4.4002 0.7002,8.20019 1.1501,5.00655 1.3365,7.81039 0.5332,8.88721 z" />
      <path
         id="path1334"
         style="fill:#000000;stroke:none;stroke-width:0.1"
         d="m 1205.0405,905.13281 c 0.1475,-3.97022 -0.2448,-8.45861 -0.9389,-14.98388 -1.9,-17.89999 -2.7998,-22.09971 -5.2998,-25.19971 -1.9,-2.3 -0.8008,-2.1004 -30.2007,-5.90039 -26.3,-3.3 -35.1005,-4.8001 -59.5005,-10.1001 -25.6,-5.49999 -31.8993,-6.1 -35.7993,-3 -1.4,1.1 -4.9995,6.2002 -7.9995,11.2002 -9.8,16.59998 -17.0003,31.90033 -32.2002,69.30029 -3.1,7.69999 -7.0001,16.49922 -8.6001,19.69922 -2.6,5.19999 -2.9004,6.70098 -2.9004,15.50097 0,7.28347 0.4664,13.37501 1.2993,17.89454 5.2733,0.81535 8.6051,1.32673 10.9878,1.70361 -0.7944,-1.97106 -1.3495,-5.78337 -1.7871,-12.09815 -0.6,-8.59999 -0.4998,-10.20117 0.7002,-10.20117 0.8,0 2.3003,0.90098 3.3003,2.00098 1.4,1.6 1.6996,3.59913 1.5996,11.09912 -0.061,5.49877 -0.1997,8.30566 -0.6709,9.68701 0.9066,0.14443 5.9611,0.92249 6.1084,0.94629 -2.1779,-0.89231 -3.0033,-4.24214 -3.3369,-12.33252 l -0.3999,-9.3999 h 2.5986 c 1.8,0 2.7011,0.6002 3.1011,2.20019 1.1,4.6 2.3003,17.09991 1.8003,18.39991 -0.2637,0.70296 -1.0728,1.22493 -1.9424,1.34765 l 4.7593,0.17285 c -0.2428,-0.20336 -0.4157,-0.44185 -0.5171,-0.7207 -0.8,-2.1 -0.8004,-18.90068 0.1,-19.70068 1,-1.1 4.6006,0.30049 6.6006,2.50049 1.3,1.59999 1.6992,3.90039 1.6992,10.40039 v 7.83691 l 4.831,0.58594 c -0.3285,-0.26485 -0.6202,-0.56231 -0.8305,-0.92285 -1,-2 -1.401,-17.3003 -0.501,-18.3003 1.1,-1.1 6.5009,0.49913 6.9009,2.09912 0.2,0.9 0.3999,5.30128 0.3999,9.80127 v 8.29981 h -0.091 l 3.8277,0.76611 c -1.4774,-1.36963 -1.6913,-4.14068 -1.3374,-9.56689 0.4,-4.4 0.9008,-8.59922 1.3008,-9.19922 0.6,-1 5.6003,-0.5998 7.8003,0.70019 0.4,0.2 0.6987,4.69942 0.6987,9.89942 v 8.8418 l 3.7075,0.14355 c -0.7041,-1.62895 -0.7275,-4.2843 -0.4072,-8.58545 0.3,-4.99999 1.0003,-8.6 1.8003,-9 2.3,-1.5 5.3,0.6001 6,4.1001 0.4,1.9 0.8993,6.20059 1.2993,9.60058 l 0.5464,5.73047 4.8135,1.17627 c -0.598,-0.37617 -0.9913,-0.77635 -1.1587,-1.20703 -1.1,-2.9 -1.9012,-12.20078 -1.2012,-14.80078 0.5,-2.1 1.2009,-2.6001 3.9009,-2.6001 1.7,0 3.8,0.40127 4.5,0.80127 0.7,0.5 1.7994,4.50001 2.3994,9 0.7,4.5 1.6006,8.19873 2.1006,8.19873 0.5,0 0.6991,-3.69981 0.5991,-8.2998 l -0.2988,-8.2002 2.3994,0.3003 c 4.5,0.69999 4.9995,1.90088 4.9995,11.40087 v 8.42725 l 3.9302,1.00781 0.1699,-7.43554 c 0.2,-10.49999 1.0011,-12.5001 4.6011,-11.6001 1.4,0.4 5.0987,1.20029 8.1987,1.80029 l 5.6001,1.1001 1.2012,7.5 c 1.323,8.63867 1.6092,12.29774 0.6372,13.50146 l 5.1284,2.03612 c -1.4777,-2.32867 -2.4668,-7.29184 -2.4668,-13.53807 0,-4.4 0.1999,-7.99951 0.3999,-7.99951 0.3,0 1.6,0.39902 3,0.99902 2.6,0.9 2.6001,1.1005 2.6001,11.50049 0,6.2373 -0.1095,8.87307 -0.6665,9.89937 l 11.7495,1.4693 c -0.1125,-0.8908 -0.7905,-5.93152 -1.4824,-11.26906 -1.4,-9.79999 -1.2004,-11.79942 1.5996,-17.39941 1.1,-2.2 1.2999,-2.19951 1.8999,-0.49952 0.4,1 0.7998,6.69981 0.7998,12.79981 0,3.12996 -0.1378,5.93184 -0.353,8.31592 l 4.0224,-8.7627 c -0.7011,-2.97579 -0.7588,-17.13687 0.031,-23.45361 1,-7.29999 2.1012,-5.40038 2.7012,4.59961 0.1854,3.45004 0.1474,6.8555 -0.062,9.83496 l 3.6299,-8.67481 c -0.5252,0.73401 -0.8686,0.68818 -0.8686,-0.45996 0,-0.7 -0.5005,-4.49942 -1.0005,-8.39941 -0.9,-6.2 -0.8003,-7.59971 1.1997,-13.19971 2,-5.79999 3.7998,-8.10058 3.7998,-5.10058 0,0.7 0.3006,4.49941 0.6006,8.39941 0.2023,2.18547 0.2341,3.94717 0.1611,5.59131 l 3.8877,-8.45069 c -1.3041,-2.03762 -2.3065,-20.72706 -1.0488,-24.14062 1.6,-4.2 2.3994,-0.49891 2.3994,10.60107 0,4.78954 -0.2031,9.12543 -0.4951,11.57813 l 4.1074,-10.34619 c -1.065,-0.90192 -0.6335,-22.6934 0.7881,-29.23242 0.8,-3.5 1.5999,-6.49981 1.8999,-6.79981 0.3,-0.3 0.7997,2.09981 1.1997,5.29981 1.2,11.59998 2.0013,10.4993 2.3013,-3.20069 0.2,-15.39998 1.0998,-19.79999 2.2998,-12 0.4,2.7 1.2999,7.90049 1.8999,11.50049 l 0.8891,4.88965 z m -124.4399,-54.18457 c 1.1,0 5.8,1.10049 10.5,2.50049 20.4,5.89999 51.3002,11.10039 80.2002,13.40039 17.8,1.4 18.5997,2.19913 13.1997,12.59912 -4.1,7.99999 -9.6989,24.40131 -20.8989,62.30127 l -9.3999,31.39893 -3,-0.49951 c -1.7,-0.2 -5.8011,-1.09952 -9.1011,-1.99952 -7.7,-2.09999 -85.899,-15.20068 -98.8989,-16.70068 -5.5,-0.6 -10.2,-1.3 -10.5,-1.5 -0.3,-0.3 0.4996,-2.69981 1.5996,-5.2998 1.2,-2.6 6.8998,-15.70021 12.7998,-29.2002 5.8,-13.49999 15.3,-34.09982 21,-45.7998 8.5,-17.19999 10.7995,-21.20069 12.4995,-21.20069 z" />
      <path
         d="m 1080.3012,860.8488 c -1.3,1.6 -3.9,6.6 -5.7,11.2 -1.8,4.6 -4.8,11.3 -6.6,14.9 -3.3,6.8 -6.7,17 -5.9,17.8 1.1,1.1 5,-5.4 14,-23.1 5.2,-10.3 9.5,-19.9 9.5,-21.2 0,-3.4 -2.3,-3.2 -5.3,0.4 z"
         id="path156"
         style="fill:#000000;stroke:none;stroke-width:0.1" />
      <path
         d="m 1111.7012,869.0488 c -16.3,3.2 -28.6,20.4 -22.7,31.7 2.3,4.4 5.9,5.7 15.5,5.6 7.9,0 9.2,-0.3 15.8,-3.7 4,-2 7.7,-3.7 8.3,-3.7 1.9,0 -6.2,14 -11.2,19.5 -7.9,8.7 -17.5,11.6 -29.9,9.1 -9.3,-2 -12.3,-2 -13.9,-0.1 -2.2,2.6 -0.3,6.3 5.3,10 6.3,4.2 11.5,5.1 19.3,3.5 15.3,-3.1 28.6,-13.8 36.6,-29.5 10.1,-19.7 12.8,-29.9 9.1,-34.3 -2.6,-3.1 -10.9,-6.9 -17.7,-8.1 -6.7,-1.2 -8.3,-1.2 -14.5,0 z m 23.2,11.1 c 0.9,0.5 1.7,1.9 1.7,3.1 0,5.9 -14.4,13.6 -27,14.4 -11.6,0.8 -13.2,-1 -8,-8.8 3.8,-5.8 8.7,-8.9 15.2,-9.9 5.8,-0.9 15.3,-0.3 18.1,1.2 z"
         id="path158"
         style="fill:#000000;stroke:none;stroke-width:0.1" />
    </g>
  </g>
</svg>
