<?xml version="1.0" encoding="UTF-8" standalone="no"?>
<!-- Created with Inkscape (http://www.inkscape.org/) -->

<svg
   width="64.739052mm"
   height="56.093613mm"
   viewBox="0 0 64.739051 56.093613"
   version="1.1"
   id="svg1397"
   inkscape:version="1.2.1 (9c6d41e410, 2022-07-14)"
   sodipodi:docname="button6.svg"
   xmlns:inkscape="http://www.inkscape.org/namespaces/inkscape"
   xmlns:sodipodi="http://sodipodi.sourceforge.net/DTD/sodipodi-0.dtd"
   xmlns="http://www.w3.org/2000/svg"
   xmlns:svg="http://www.w3.org/2000/svg">
  <sodipodi:namedview
     id="namedview1399"
     pagecolor="#ffffff"
     bordercolor="#000000"
     borderopacity="0.25"
     inkscape:showpageshadow="2"
     inkscape:pageopacity="0.0"
     inkscape:pagecheckerboard="0"
     inkscape:deskcolor="#d1d1d1"
     inkscape:document-units="mm"
     showgrid="false"
     inkscape:zoom="0.914906"
     inkscape:cx="-62.301482"
     inkscape:cy="58.475952"
     inkscape:window-width="1350"
     inkscape:window-height="1230"
     inkscape:window-x="848"
     inkscape:window-y="53"
     inkscape:window-maximized="0"
     inkscape:current-layer="layer1" />
  <defs
     id="defs1394" />
  <g
     inkscape:label="Layer 1"
     inkscape:groupmode="layer"
     id="layer1"
     transform="translate(-121.36985,-132.82737)">
    <g
       id="g1779"
       transform="matrix(0.35277777,0,0,0.35277777,-212.92292,-227.17267)">
      <path
         id="path180"
         style="fill:#000000;stroke:none;stroke-width:0.1"
         d="m 1061.1094,1173.6357 c -1.0069,-1.2452 -1.431,-3.4735 -1.9087,-8.8872 -0.7,-8.2 -1.8996,-11.7001 -3.0996,-8.6001 -0.4,0.9 0.099,4.3011 0.8994,7.6011 1.7483,6.5737 2.2173,8.5927 0.3281,9.0454 z" />
      <path
         id="path1771"
         style="fill:#000000;stroke:none;stroke-width:0.1"
         d="m 1131.0879,1081.8179 c 0.1388,-3.9963 -0.2922,-8.4155 -0.9873,-14.8697 -1.9,-17.7999 -3.0994,-23.3989 -5.3994,-25.3989 -2,-1.8 -10.9995,-3.4012 -41.3994,-7.2012 -10.9,-1.3 -27.1001,-4 -36,-6 -15.1,-3.3 -32.9012,-6.8988 -38.7012,-7.7988 -1.4,-0.2 -3.7994,-5e-4 -5.3994,0.4995 -1.5,0.4 -3.70032,1.6001 -4.80032,2.6001 -5.9,5.4 -21.89923,37.0001 -36.19922,72 -5.19999,12.7 -10.6,25.3997 -12,28.1997 -2.3,4.4 -2.6001,6.3003 -2.6001,15.3003 0,6.9578 0.43353,12.6914 1.22461,17.0449 5.25521,0.8122 8.34829,1.2871 10.79883,1.6744 -0.69804,-1.4008 -1.06327,-4.2625 -1.42383,-10.3199 -0.4,-5.8 -0.49961,-11.0001 -0.0996,-11.6001 1.2,-1.9 2.6001,-0.9995 4.1001,2.5005 1.26363,3.0688 1.87087,16.4491 1.0957,19.9893 0.77177,0.123 5.05275,0.7812 5.25879,0.8144 -1.35979,-1.2216 -1.86815,-4.3654 -2.15478,-11.603 l -0.39991,-9.8013 2.6001,0.3003 c 2.4,0.3 2.59952,0.8008 3.49951,8.8008 1.05499,8.1965 0.99003,11.6496 -0.35449,12.6607 l 3.66504,0.1333 c -0.0882,-0.122 -0.15944,-0.2525 -0.21094,-0.3941 -0.8,-2.2 -0.79892,-18.9003 0.10108,-19.8003 0.9,-0.9 5.3998,0.2 6.7998,1.5 0.6,0.6 1.19932,5.2004 1.29932,10.4004 l 0.36328,8.625 4.4209,0.5362 c -1.15583,-1.5521 -1.5835,-4.708 -1.5835,-10.1617 0,-4.5 0.3002,-8.5004 0.7002,-8.9004 1,-0.9 5.59951,0.3007 6.49951,1.7007 0.4,0.6 0.59951,4.8991 0.49951,9.5991 -0.14756,6.1238 -0.24607,7.8837 -1.20849,8.5108 l 4.44873,0.8906 c -1.11099,-0.828 -1.04264,-2.3909 -0.73975,-8.6001 0.6,-11 1.29974,-12.0002 7.19972,-9.7002 2.5,0.9 2.6001,1.2 2.6001,10.5 0,5.2625 -0.015,7.5617 -0.4365,8.6089 l 3.8085,0.1465 c -0.4713,-1.238 -0.4375,-3.3304 -0.1713,-8.0552 0.8,-10.4 1.8996,-12.1 6.0996,-9 1.2,0.9 1.9001,3.7998 2.6001,9.7998 0.4671,4.298 0.6582,8.121 0.52,8.9473 l 4.9365,1.207 c -2.2074,-3.5497 -3.2348,-15.8769 -1.1572,-17.9546 1.5,-1.5 1.7001,-1.4996 5.6001,-0.1 2.7,0.9 3.1001,1.5993 4.1001,7.2993 0.6,3.4 1.1001,7.2009 1.1001,8.4009 0,1.2 0.5001,2.1987 1.1001,2.1987 0.7,0 0.9998,-2.7987 0.7998,-8.1987 -0.4,-9 0.3996,-10.2004 4.5996,-7.4004 2.4,1.5 2.5005,2.1996 2.5005,10.5996 0,3.7237 -0.2168,6.7673 -0.5655,8.1607 l 0.2901,0.039 4.6157,1.1836 c -1.2763,-3.8076 -0.294,-19.3843 1.4605,-19.3843 0.4,0 4.0987,0.7011 8.1987,1.6011 4.1,0.8 7.8002,1.8002 8.2002,2.2002 0.7,0.7 2.8008,14.6998 2.8008,18.7998 0,0.6861 -0.147,1.2237 -0.4117,1.6172 l 4.7857,1.8984 c -1.5702,-2.4075 -2.3745,-7.0834 -2.3745,-13.8164 0,-7.5 0.4001,-8.2003 4.1001,-6.3003 1.7,1 1.8999,2.2005 1.8999,11.5005 0,4.3 -0.1663,7.9739 -0.4146,9.5977 l 11.4536,1.4326 c -0.1423,-1.1007 -0.7673,-5.6575 -1.4384,-10.9307 -1.2,-8.4 -1.2,-10.3988 0,-13.7988 3.1,-9 4.2993,-6.7003 4.2993,8.6997 0,3.178 -0.1406,6.0272 -0.3618,8.4331 l 4.0503,-8.8183 c -0.402,-0.014 -0.4252,-2.3513 -0.4878,-8.6148 -0.1,-11.7 0.7995,-21.0003 1.9995,-19.8003 0.4,0.4 0.9005,5.7993 1.0005,11.7993 0.085,3.5596 0.053,6.0901 -0.072,8.1812 l 3.8584,-9.2197 c -0.4383,-0.2818 -1.2443,-3.5392 -1.8867,-7.7608 -1.2,-8.5 -1.0004,-9.6997 3.0996,-19.1997 1.2,-2.9 1.3002,-2.6009 2.2002,5.499 0.3806,3.7519 0.484,6.2863 0.3003,8.6426 l 4.0766,-8.8637 c -1.318,-1.804 -2.3435,-20.7402 -1.0766,-24.1788 1.6,-4.2 2.3994,-0.4989 2.3994,10.6011 0,4.9088 -0.2116,9.3808 -0.5157,11.792 l 4.3917,-11.0581 c -0.023,0.016 -0.059,0.066 -0.076,0.066 -0.4,0 -0.7998,-5.0998 -0.7998,-11.2998 0,-10.1 0.5997,-14.8007 2.6997,-22.7007 l 0.6006,-2.5005 0.7002,3 c 0.4,1.6 0.7994,4.8005 0.8994,7.0005 0.1,2.2 0.6001,4.7005 1.1001,5.5005 0.7,1 0.8994,-3.1006 0.8994,-12.6006 -0.3,-22.0999 1.1007,-21.1993 4.7007,3.2007 0.059,0.3404 0.063,0.6464 0.097,0.9697 v 0 z m -124.686,-54.2066 c 0.875,0.037 2.0994,0.3375 3.8994,0.9375 2.7,0.8 11.5999,2.9999 19.8999,4.8999 22.0999,5.1 42.0005,8.2995 59.5005,9.4995 16.8999,1.2 22.7001,2.3011 23.6001,4.6011 0.3,0.9 -1.201,5.3997 -3.501,10.1997 -2.2,4.8 -4.699,10.5994 -5.499,12.8994 -1.5,3.9 -13.9012,44.501 -20.7012,68.001 -3.8,12.9 -3.1989,12.4988 -13.7988,9.2988 -7.8,-2.3 -85.00064,-15.3999 -99.60063,-16.8999 -5.49999,-0.5 -10.3999,-1.4995 -10.8999,-1.9995 -0.7,-0.7 0.99952,-5.3998 4.99951,-14.2998 3.4,-7.3 9.7002,-21.6995 14.2002,-31.9995 7.89999,-18.3 24.10062,-52.101 26.10062,-54.501 0.4,-0.45 0.9253,-0.6747 1.8003,-0.6372 z" />
      <path
         d="m 1005.4012,1037.6488 c -2,2.3 -3.9,6.1 -7.29997,14.8 -1.6,3.8 -4.8,11 -7.2,15.9 -4.5,9.3 -5.6,13.9 -2.8,11.6 5.3,-4.4 21.89997,-35.9 21.29997,-40.7 -0.4,-3.3 -1.9,-3.9 -4,-1.6 z"
         id="path182"
         style="fill:#000000;stroke:none;stroke-width:0.1" />
      <path
         d="m 1037.9012,1048.8488 c -19,6.5 -39.39997,37.4 -36.9,55.8 1.3,9.8 7.8,16.9 18.4,19.9 9.9,2.9 23.2,-0.3 31.5,-7.6 11.5,-10.2 11.7,-25 0.5,-36.2 -3.6,-3.6 -5.8,-4.8 -13.4,-7.1 -5,-1.5 -9.8,-2.7 -10.7,-2.7 -2.6,0 -2.1,-1.2 2.1,-5.2 4.5,-4.4 14.4,-9.8 18.1,-9.8 1.4,0 6,0.7 10.2,1.5 11.5,2.1 15,0.3 9.2,-5.1 -5.6,-5.2 -19.3,-6.9 -29,-3.5 z m 2.7,38 c 4.9,2.3 8.3,7.7 7.6,12.1 -2.7,17.1 -32.4,18.8 -34.3,1.9 -0.6,-5.4 1.5,-11.1 5,-13.4 5.3,-3.4 15.1,-3.8 21.7,-0.6 z"
         id="path184"
         style="fill:#000000;stroke:none;stroke-width:0.1" />
      <path
         d="m 1068.6012,1138.9488 c -1.3,0.9 -1.3,1 0,1 0.8,0 2.2,-0.5 3,-1 1.3,-0.9 1.3,-1 0,-1 -0.8,0 -2.2,0.5 -3,1 z"
         id="path186"
         style="fill:#000000;stroke:none;stroke-width:0.1" />
    </g>
  </g>
</svg>
