<?xml version="1.0" encoding="UTF-8" standalone="no"?>
<!-- Created with Inkscape (http://www.inkscape.org/) -->

<svg
   width="64.695961mm"
   height="55.994228mm"
   viewBox="0 0 64.695961 55.99423"
   version="1.1"
   id="svg1397"
   inkscape:version="1.2.1 (9c6d41e410, 2022-07-14)"
   sodipodi:docname="button0.svg"
   xmlns:inkscape="http://www.inkscape.org/namespaces/inkscape"
   xmlns:sodipodi="http://sodipodi.sourceforge.net/DTD/sodipodi-0.dtd"
   xmlns="http://www.w3.org/2000/svg"
   xmlns:svg="http://www.w3.org/2000/svg">
  <sodipodi:namedview
     id="namedview1399"
     pagecolor="#ffffff"
     bordercolor="#000000"
     borderopacity="0.25"
     inkscape:showpageshadow="2"
     inkscape:pageopacity="0.0"
     inkscape:pagecheckerboard="0"
     inkscape:deskcolor="#d1d1d1"
     inkscape:document-units="mm"
     showgrid="false"
     inkscape:zoom="0.64693624"
     inkscape:cx="-544.10308"
     inkscape:cy="6.9558632"
     inkscape:window-width="1350"
     inkscape:window-height="1230"
     inkscape:window-x="848"
     inkscape:window-y="53"
     inkscape:window-maximized="0"
     inkscape:current-layer="layer1" />
  <defs
     id="defs1394" />
  <g
     inkscape:label="Layer 1"
     inkscape:groupmode="layer"
     id="layer1"
     transform="translate(-202.90423,-120.72588)">
    <g
       id="g2489"
       transform="matrix(0.35277777,0,0,0.35277777,46.261184,-337.16139)">
      <path
         id="path220"
         style="fill:#000000;stroke:none;stroke-width:0.1"
         d="m 557.37598,1450.7666 c -1.46935,-1.733 -1.77539,-3.333 -1.77539,-7.5176 0,-6.7 -0.79874,-10.3008 -2.19873,-10.3008 -0.7,0 -0.79991,1.7 -0.39991,4.5 0.3,2.5 0.89971,6.6007 1.19971,9.2007 l 0.5376,3.5318 z" />
      <path
         id="path2482"
         style="fill:#000000;stroke:none;stroke-width:0.1"
         d="m 627.41748,1359.0132 c 0.003,-1.259 -0.0295,-2.5549 -0.11572,-3.9639 -1.1,-16.7 -2.80069,-28.6008 -4.70069,-32.8008 -1.59999,-3.6 -2.29971,-4.3003 -5.6997,-4.8003 -2.1,-0.3 -6.3003,-1 -9.3003,-1.5 -2.99999,-0.5 -14.8002,-2.0995 -26.20019,-3.4995 -11.49999,-1.4 -26.09903,-3.5995 -32.49902,-4.9995 -25.69998,-5.6 -44.90079,-9.501 -46.30079,-9.501 -0.79999,0.1 -2.89961,0.7004 -4.59961,1.4004 -7.09999,3.1 -20.40021,28.4004 -39.70019,75.3003 -5.3,12.7 -10.69961,25.3997 -12.09961,28.1997 -2.5,4.9 -2.50068,5.1003 -1.70068,19.8003 0.21555,4.6129 0.48225,7.997 0.8042,10.7315 5.07578,0.7842 7.8887,1.217 10.36816,1.6084 -0.0453,-0.4523 -0.0718,-0.9546 -0.0718,-1.6407 0,-1.9 -0.5001,-6.5989 -1.1001,-10.3989 -1.59999,-9.4 0.0991,-13.0011 3.59913,-7.6011 0.99999,1.4 1.80019,5.9001 2.20019,12 l 0.52735,8.439 c 0.47321,0.076 3.53841,0.5481 3.72802,0.5786 -1.38693,-1.913 -1.95556,-5.6997 -1.95556,-12.1172 0,-9.1 1.9e-4,-9.1994 2.20019,-8.3994 1.2,0.4 2.6,2.1002 3,3.7002 0.4,1.6 1.10039,6.3996 1.40039,10.5996 0.3496,3.7457 0.49852,5.6941 0.31201,6.7075 l 2.54737,0.092 -0.25928,-9.3003 c -0.2,-10 -0.0993,-10.6992 1.70068,-10.6992 1,0 2.79903,0.7992 3.99903,1.6992 1.69999,1.6 2.10019,3.0003 2.20019,10.8003 l 0.17285,7.7842 0.15235,0.01 4.41504,0.5346 c -0.66451,-1.6923 -0.84082,-4.6055 -0.84082,-9.5244 0,-9.9 0.50059,-10.6998 5.10058,-8.2998 1.7,0.9 1.8999,2.2 1.8999,10.5 0,4.647 -0.0281,7.0156 -0.33691,8.2295 l 3.02051,0.605 c -0.68924,-2.6297 -0.17403,-12.0219 1.0166,-16.2349 0.5,-2 1.0001,-2.2003 4.1001,-1.8003 1.9,0.4 3.7001,0.8997 4.10009,1.1997 0.3,0.4 0.59913,4.8013 0.59913,9.8013 v 8.0259 l 3.05273,0.1172 c -0.3392,-3.9834 0.27658,-15.2733 1.04736,-16.6436 0.8,-1.2 2.8003,-1.0005 4.8003,0.4995 1.99999,1.4 3.40097,8.0006 3.50097,15.6006 l 0.0513,2.2368 4.38282,1.0723 c -0.61098,-1.3261 -0.9254,-3.5526 -1.13526,-7.6099 -0.5,-9.8 -0.0995,-10.9997 4.00049,-10.1997 1.7,0.3 3.69932,1.0996 4.29932,1.5996 0.7,0.6 1.60136,3.4999 1.90136,6.3999 1.4,10.7 2.39903,11.7013 2.49903,2.3013 0.1,-7.7 0.2999,-8.7012 1.8999,-8.7012 1,0 2.6998,0.6004 3.7998,1.4004 1.6,1.2 1.89991,2.7001 1.89991,10.1001 0,3.3646 -0.15201,6.3033 -0.37793,7.878 l 0.19336,0.026 4.17187,1.0694 c -0.39585,-4.5792 0.23256,-16.2029 1.21289,-17.6734 0.6,-1 0.70011,-1.0009 8.6001,0.5991 3.7,0.8 7.4002,2.0001 8.20019,2.6001 1.09236,0.9931 1.88936,6.2667 2.78174,19.462 l 4.06787,1.6142 c -0.93021,-2.3529 -1.61553,-6.0295 -1.9497,-10.875 -0.7,-8.9 -0.59961,-9.2007 1.40039,-9.2007 1.1,0 2.80019,0.8007 3.70019,1.7007 1.3,1.3 1.6001,2.6996 1.1001,6.0996 -0.3,2.5 -0.60059,6.8998 -0.60059,9.7998 0,1.4226 -0.0963,2.6867 -0.25488,3.6475 l 11.77002,1.4722 c -0.33393,-1.4352 -0.71147,-4.1875 -1.31543,-9.0191 -1.4,-10.9 -1.2997,-12.0008 0.30029,-16.3008 0.9,-2.5 2.1001,-4.2002 2.6001,-3.7002 0.4,0.4 0.90049,6.4008 1.00049,13.3008 0.078,3.3924 0.0522,6.0159 -0.0337,8.2749 l 3.80859,-8.2925 c -0.0252,0 -0.0493,0.018 -0.0747,0.018 -1.2,0 -0.5002,-22.2004 0.7998,-26.9004 0.7,-2.3 0.8,-2.3995 1.5,-0.4995 0.4,1 0.7998,5.8999 0.7998,10.8999 0.0282,2.6735 -0.0659,5.1148 -0.24169,7.292 l 3.39843,-8.1225 c -0.12346,-0.025 -0.24483,-0.097 -0.35742,-0.2696 -0.3,-0.6 -0.89932,-4.7007 -1.29932,-9.2007 -0.59999,-7 -0.40038,-8.9002 1.59961,-14.2002 2.9,-7.8999 4.00088,-6.3995 3.90088,5.5005 -0.0224,1.9726 -0.18437,4.0713 -0.41748,6.1216 l 0.12451,-0.5039 4.4253,-9.6196 c -0.0113,0 -0.0223,0.01 -0.0337,0 -1,-0.6 -2.09893,-18.5993 -1.39893,-22.2993 1,-5.1 2.09932,-3.6998 2.79932,3.7002 0.44332,5.4676 0.1194,13.3624 -0.5625,16.8457 l 0.14502,-0.3135 4.69336,-11.8198 c -0.40246,0.2539 -0.6358,-0.2521 -0.87598,-1.2129 -1.7,-5.6 1.10068,-34.2004 3.20068,-32.9004 0.4,0.3 1.1,3.9006 1.5,8.1006 1.1,11.9 2.5999,6.7993 1.8999,-6.2007 -0.39999,-6.0999 -0.30039,-12.3995 0.0996,-13.9995 l 0.79981,-2.9004 0.70019,3 c 0.5,1.6 1.49981,6.7013 2.29981,11.3013 l 1.15283,5.9751 z m -124.10303,-53.565 c 1.4875,0.125 3.78643,0.8006 7.58643,2.1006 5.49999,1.9 33.80021,7.9004 48.70019,10.4004 6.9,1.1 19.19991,2.4 27.39991,3 16.09998,1.1 22.0999,2.1989 22.8999,4.3989 0.3,0.8 -1,4.7008 -3,8.8008 -4.9,10.1 -6.89933,15.9997 -19.29932,57.0996 -5.89999,19.7 -11.10049,36.101 -11.50049,36.501 -0.3,0.4 -5.39981,-0.6006 -11.2998,-2.1006 -11.49999,-2.8 -80.80021,-14.7003 -98.2002,-16.8003 -5.79999,-0.7 -10.7998,-1.4999 -11.2998,-1.8999 -0.4,-0.3 1.9002,-6.4996 5.20019,-13.5996 3.2,-7.1 9.49952,-21.2996 13.99952,-31.5996 6.79999,-15.6 22.50059,-48.7001 26.10058,-55.1001 0.55,-0.9 1.22539,-1.3262 2.71289,-1.2012 z" />
      <path
         d="m 503.70123,1315.7488 c -6.8,7.1 -24.1,43.8 -24.1,50.8 v 3.9 l 2,-2.5 c 2,-2.6 25.9,-45.3 28.1,-50.2 1.3,-2.9 0.7,-5.8 -1.2,-5.8 -0.7,0 -2.8,1.7 -4.8,3.8 z"
         id="path222"
         style="fill:#000000;stroke:none;stroke-width:0.1" />
      <path
         d="m 539.30123,1333.8488 c -10.7,4.3 -20.7,16.7 -26.8,33 -2.7,7.1 -3.2,10.1 -3.3,17.3 -0.1,8 0.1,8.9 2.9,12.9 4.2,6 10.2,8.8 18.6,8.9 5.6,0 7.7,-0.5 13.6,-3.5 17.8,-8.9 34.2,-36 30.4,-50.2 -1.7,-6.1 -7.1,-13.4 -12.6,-16.8 -6.2,-3.8 -15.5,-4.5 -22.8,-1.6 z m 15.6,12.8 c 2,1.4 4.7,4.1 5.8,6 4.7,7.5 0.1,21.2 -10.5,31.8 -8.3,8.3 -16.4,11.8 -23.1,10.1 -3.4,-0.9 -6.5,-6.1 -6.5,-11.2 0,-5.2 3.2,-15.8 7.3,-24.2 7.5,-15.3 16.7,-19.6 27,-12.5 z"
         id="path224"
         style="fill:#000000;stroke:none;stroke-width:0.1" />
    </g>
  </g>
</svg>
