<?xml version="1.0" encoding="UTF-8" standalone="no"?>
<!-- Created with Inkscape (http://www.inkscape.org/) -->

<svg
   width="64.638779mm"
   height="56.387592mm"
   viewBox="0 0 64.638779 56.387592"
   version="1.1"
   id="svg373"
   inkscape:version="1.2.1 (9c6d41e410, 2022-07-14)"
   sodipodi:docname="button7.svg"
   xmlns:inkscape="http://www.inkscape.org/namespaces/inkscape"
   xmlns:sodipodi="http://sodipodi.sourceforge.net/DTD/sodipodi-0.dtd"
   xmlns="http://www.w3.org/2000/svg"
   xmlns:svg="http://www.w3.org/2000/svg">
  <sodipodi:namedview
     id="namedview375"
     pagecolor="#ffffff"
     bordercolor="#000000"
     borderopacity="0.25"
     inkscape:showpageshadow="2"
     inkscape:pageopacity="0.0"
     inkscape:pagecheckerboard="0"
     inkscape:deskcolor="#d1d1d1"
     inkscape:document-units="mm"
     showgrid="false"
     inkscape:zoom="0.64693624"
     inkscape:cx="66.467137"
     inkscape:cy="136.79864"
     inkscape:window-width="1350"
     inkscape:window-height="1230"
     inkscape:window-x="742"
     inkscape:window-y="85"
     inkscape:window-maximized="0"
     inkscape:current-layer="layer1" />
  <defs
     id="defs370" />
  <g
     inkscape:label="Layer 1"
     inkscape:groupmode="layer"
     id="layer1"
     transform="translate(-71.97026,-128.44516)">
    <g
       id="g992"
       transform="matrix(0.35277777,0,0,0.35277777,-162.3488,-141.90854)">
      <path
         id="path140"
         style="fill:#000000;stroke:none;stroke-width:0.1"
         d="m 779.44775,920.68213 c -0.2546,-0.16601 -0.50955,-0.33528 -0.74707,-0.5332 -1.79999,-1.4 -2.29931,-3.2005 -2.79931,-10.00049 -0.6,-7.99999 -1.70039,-11.00029 -2.90039,-7.8003 -0.3,0.9 0.2001,4.80118 1.10009,8.70118 1.41876,5.61053 1.65981,7.92371 -0.26953,8.38476 z" />
      <path
         id="path985"
         style="fill:#000000;stroke:none;stroke-width:0.1"
         d="m 847.37549,828.48633 c 0.009,-0.19162 0.0177,-0.33834 0.0264,-0.5376 0.2,-5.99999 -0.40069,-14.69942 -1.70069,-23.39941 -2.5,-17.49999 -2.9006,-18.00059 -15.60058,-20.10059 -5,-0.8 -17.10001,-2.39951 -27,-3.49951 -19.29998,-2.3 -41.29953,-6.40098 -58.99952,-11.00098 -11.39998,-2.99999 -20.6,-4.19883 -24,-3.29883 -10.09999,2.7 -19.40003,20.89892 -54,105.29883 -2.09999,5.2 -2.2,6.30011 -1.5,19.1001 0.24818,4.75073 0.65446,8.69393 1.19092,11.87109 5.45578,0.84357 8.99992,1.38868 11.36865,1.76368 -0.22338,-0.22285 -0.4257,-0.46615 -0.55957,-0.73389 -0.99999,-2 -3.09941,-20.10069 -2.39941,-21.20068 1,-1.5 3.3999,-0.80039 4.8999,1.5996 1.91325,2.91542 1.82763,17.99008 0.13477,20.65577 1.07537,0.17104 6.4104,0.99267 6.59472,1.02246 -0.14517,-0.0904 -0.29445,-0.17206 -0.42919,-0.27686 -1.2,-1 -1.7002,-3.9001 -2.2002,-11.6001 -0.7,-9.59999 -0.60029,-10.20117 1.19971,-10.20117 1.1,0 2.49961,0.60039 3.09961,1.40039 1.3986,1.67833 1.92663,18.29677 0.85693,20.94287 l 3.74268,0.13623 -0.29883,-9.37939 c -0.1,-5.19999 -0.10078,-9.99922 0.19922,-10.69922 0.6,-1.5 5.0998,-0.70068 6.7998,1.29932 0.6,0.8 1.40108,5.5 1.60108,10.5 l 0.48632,8.66162 4.81934,0.58447 c -1.67931,-1.05921 -2.10645,-3.90262 -2.10645,-10.64502 v -8.80078 h 3 c 1.8,0 3.29981,0.70069 3.79981,1.70068 0.5,1 0.6999,5.49903 0.3999,9.99903 -0.3409,6.56242 -0.547,7.95602 -1.83545,8.22802 l 6.09082,1.21875 c -0.90087,-0.55647 -1.42882,-1.42227 -1.85449,-2.74658 -0.9,-2.99999 1.0001,-15.6 2.6001,-16.5 1.6,-1 5.99902,0 6.99902,1.5 0.4,0.6 0.79981,4.99981 0.79981,9.79981 v 8.6206 l 3.21093,0.12305 c -0.90895,-1.55077 -1.01028,-4.14963 -0.61084,-8.34375 0.4,-3.9 1,-7.79932 1.5,-8.79932 1,-1.79999 4.1004,-1.3998 5.90039,0.7002 0.6,0.7 1.40069,5.19942 1.70069,9.89941 l 0.57568,8.26905 6.16992,1.50878 c -1.08697,-0.72694 -1.62955,-1.72898 -2.14599,-3.27832 -1.3,-3.69999 -1.70059,-14.09922 -0.60059,-15.19921 0.8,-0.8 4.00049,-0.89961 7.00049,-0.0996 1.8,0.5 2.30029,1.7 3.30029,9 1.5,10.49999 3.29932,10.19901 2.79932,-0.50098 l -0.30029,-7.59961 2.50048,0.30029 c 4,0.5 4.99952,2.80001 4.99952,12 v 8.23096 l 3.52587,0.90381 0.375,-8.43457 c 0.2,-5 0.69971,-9.5001 1.19971,-10.1001 1,-1.2 14.30039,0.9001 16.40039,2.6001 1,0.8 3.49951,15.0003 3.49951,19.80029 0,0.55407 -0.35567,0.87512 -0.88476,1.02979 l 5.57812,2.21631 c -1.8031,-1.6595 -2.69384,-5.96675 -2.69384,-13.3462 0,-4.79999 0.20136,-8.70117 0.40136,-8.70117 0.3,0 1.6,0.40049 3,1.00049 2.5,0.9 2.49981,1.0005 2.29981,11.50049 -0.16711,7.26919 -0.41168,9.69178 -1.18506,10.18506 l 12.48633,1.56152 c -0.0922,-0.28596 -0.18501,-0.68617 -0.30176,-1.24658 -0.3,-1.4 -1.10068,-6.6001 -1.70068,-11.6001 -1,-7.89999 -0.89903,-9.59971 0.50097,-13.19971 1.9,-4.69999 2.99942,-5.30097 3.89942,-2.00097 0.79193,2.95175 0.69455,13.10983 0.0601,19.93945 l 3.71044,-8.08154 -0.26953,-4.05762 c -0.4,-6.79999 -0.20087,-12.29923 0.59912,-19.69922 1,-9.89999 2.50088,-5.80028 2.40088,7.19971 0,3.22206 -0.11687,5.94096 -0.31347,8.20459 l 3.97998,-9.51563 c -0.19299,-0.0731 -0.36341,-0.50903 -0.5669,-1.28906 -0.4,-1.4 -1.00039,-5.50069 -1.40039,-9.20068 -0.6,-5.5 -0.4,-7.59913 1.5,-12.59912 1.2,-3.4 2.6,-6.10108 3,-6.10108 0.5,0 1.0001,3.30118 1.1001,7.20117 0.0925,4.71674 0.13295,7.31165 -0.0381,9.4292 l 4.39307,-9.54931 c -0.28052,-0.27736 -0.57559,-1.38138 -0.85547,-3.48047 -0.9,-6.4 -0.9,-21.09942 0,-21.89942 1.5,-1.59999 2.3002,2.39884 2.2002,12.29883 0,5.39988 -0.23744,9.24249 -0.58155,11.34522 l 4.16455,-10.48975 -0.28271,-10.35498 c -0.3,-10.59999 1.30039,-25.09951 2.90039,-25.99951 0.4,-0.3 1.1,3.1 1.5,7.5 1.1,12.69999 2.79912,9.90008 2.09912,-3.3999 -0.6,-11.39999 -0.0992,-19.00108 1.30078,-18.10108 0.4,0.2 0.99932,3.09991 1.29932,6.3999 0.4,3.2 1.1999,7.9004 1.8999,10.4004 0.38431,1.53723 0.60298,2.6139 0.50244,3.9624 z m -121.8999,-54.3999 c 1.54999,0.0875 4.07529,0.81172 8.92529,2.26171 17.09998,5.2 44.90071,10.10001 75.20068,13.5 9.69999,1.1 18.29971,2.3001 19.19971,2.6001 2.1,0.8 1.0996,4.9005 -2.90039,13.00049 -3.6,6.99999 -7.89992,20.19955 -19.8999,60.49951 -4.8,16.19999 -8.89961,29.70039 -9.09961,29.90039 -0.2,0.3 -4.70011,-0.50029 -10.1001,-1.80029 -16.69998,-3.9 -102.9003,-18.09961 -109.80029,-18.09961 -2.1,0 -1.7,-2.39932 1.5,-8.79932 1.59999,-3.09999 6.1001,-13.40069 10.10009,-22.70068 12.79999,-30.09997 28.99981,-63.09932 33.79981,-68.79932 0.95,-1.09999 1.52471,-1.65048 3.07471,-1.56298 z" />
      <path
         d="m 725.80123,782.1488 c -1.7,2.2 -22.1,43.2 -23.7,47.7 -1.8,5.3 -1.9,6.1 -0.2,6.1 1.6,0 4.5,-4.7 16.7,-27.7 9.4,-17.8 12.6,-25.4 11.2,-26.7 -0.9,-1 -2.9,-0.7 -4,0.6 z"
         id="path142"
         style="fill:#000000;stroke:none;stroke-width:0.1" />
      <path
         d="m 740.70123,801.3488 c -2.4,2.9 0.9,5.7 8.4,7 1.7,0.3 8.7,1 15.8,1.6 19.2,1.6 19.1,1.5 5.1,9.5 -17.5,10.1 -22.4,13.6 -32.8,23.6 -10.1,9.6 -14.3,16.1 -13.2,20.4 0.8,3 3.8,4.7 6.4,3.7 1.1,-0.4 8.3,-6.5 15.9,-13.6 11.8,-10.9 16.4,-14.4 31.3,-23.6 21.5,-13.2 25,-17.1 19.6,-22.5 -3.1,-3 -7.4,-4.2 -22.6,-6 -16.2,-1.9 -32.3,-2 -33.9,-0.1 z"
         id="path144"
         style="fill:#000000;stroke:none;stroke-width:0.1" />
    </g>
  </g>
</svg>
