<?xml version="1.0" encoding="UTF-8" standalone="no"?>
<!-- Created with Inkscape (http://www.inkscape.org/) -->

<svg
   width="64.725456mm"
   height="56.222755mm"
   viewBox="0 0 64.725456 56.222755"
   version="1.1"
   id="svg1048"
   inkscape:version="1.2.1 (9c6d41e410, 2022-07-14)"
   sodipodi:docname="button8.svg"
   xmlns:inkscape="http://www.inkscape.org/namespaces/inkscape"
   xmlns:sodipodi="http://sodipodi.sourceforge.net/DTD/sodipodi-0.dtd"
   xmlns="http://www.w3.org/2000/svg"
   xmlns:svg="http://www.w3.org/2000/svg">
  <sodipodi:namedview
     id="namedview1050"
     pagecolor="#ffffff"
     bordercolor="#000000"
     borderopacity="0.25"
     inkscape:showpageshadow="2"
     inkscape:pageopacity="0.0"
     inkscape:pagecheckerboard="0"
     inkscape:deskcolor="#d1d1d1"
     inkscape:document-units="mm"
     showgrid="false"
     inkscape:zoom="0.914906"
     inkscape:cx="53.557414"
     inkscape:cy="80.336122"
     inkscape:window-width="1350"
     inkscape:window-height="1230"
     inkscape:window-x="566"
     inkscape:window-y="90"
     inkscape:window-maximized="0"
     inkscape:current-layer="layer1" />
  <defs
     id="defs1045" />
  <g
     inkscape:label="Layer 1"
     inkscape:groupmode="layer"
     id="layer1"
     transform="translate(-90.832989,-127.18463)">
    <g
       id="g1088"
       transform="matrix(0.35277777,0,0,0.35277777,-204.2605,-156.97029)">
      <path
         id="path146"
         style="fill:#000000;stroke:none;stroke-width:0.1"
         d="m 950.72607,959.15186 c -1.63953,-1.25633 -2.0782,-3.61999 -2.625,-9.70313 -0.4,-4.69999 -1.09961,-8.69961 -1.59961,-9.09961 -1.79999,-1.1 -1.99951,2.39942 -0.49951,8.39942 2.07504,7.80213 2.30296,9.17327 -0.97705,9.13623 z" />
      <path
         id="path1068"
         style="fill:#000000;stroke:none;stroke-width:0.1"
         d="m 1019.959,867.19043 c 0.01,-3.53449 -0.3065,-8.23158 -1.0576,-15.2417 -2.5,-24.79997 -3.4999,-26.9001 -12.3999,-28.1001 -53.19995,-6.79999 -54.29997,-6.99922 -85.89994,-13.69922 -24.99997,-5.39999 -25.9,-5.4999 -30,-3.3999 -7.99999,3.9 -20.2006,27.20005 -41.10058,78 -4.3,10.49999 -9.1,21.49991 -10.5,24.3999 -2.3,4.6 -2.59903,6.19884 -2.49903,15.29883 0.11133,7.12492 0.57665,12.86079 1.36963,17.13135 5.36329,0.82895 8.63279,1.33134 11.06104,1.71533 -1.36464,-3.81661 -3.03897,-20.10692 -2.03174,-21.84668 1,-1.9 1.2002,-1.8998 3.70019,0.7002 1.7,1.9 1.99952,3.5004 1.99952,11.90039 0,5.04183 -0.25742,8.16316 -0.84082,9.68555 1.1779,0.18745 7.4206,1.14958 7.46777,1.15722 -1.16381,-0.41644 -2.458,-1.61936 -3.22559,-3.44238 -1.4,-3.4 -2.00127,-17.59981 -0.80127,-18.79981 0.3,-0.3 1.60118,-0.20078 2.70118,0.19922 1.69999,0.6 2.39892,2.0001 2.89892,5.6001 0.7,4.6 1.10088,11.39971 0.90088,14.69971 -0.0624,1.02947 -0.48505,1.62124 -1.08545,1.83252 l 4.36817,0.15967 c -1.26481,-1.18629 -1.38282,-4.08187 -1.38282,-11.0918 0,-10.29999 0.19962,-10.69951 4.59961,-9.49951 3.2,0.8 4.40039,4.59893 4.40039,13.39892 v 7.48535 l 4.94824,0.59912 c -1.41963,-1.37282 -1.94824,-4.64267 -1.94824,-10.58349 0,-4.5 0.3002,-8.50039 0.7002,-8.90039 1,-0.9 5.5999,0.19961 6.3999,1.59961 0.4,0.6 0.5999,5.0002 0.3999,9.70019 -0.25699,6.93886 -0.45034,8.29263 -1.81787,8.72901 l 6.58594,1.31689 c -2.45259,-0.95004 -2.46066,-1.20393 -2.06836,-9.24609 0.6,-10.99999 1.29971,-12.0002 7.19971,-9.7002 2.49999,0.9 2.60009,1.20001 2.60009,10.5 0,5.89463 -0.001,8.13044 -0.59326,8.97949 l 4.22315,0.1626 c -0.21901,-0.33573 -0.41136,-0.68475 -0.53028,-1.0415 -0.8,-2.1 0.3004,-14.79961 1.40039,-16.59961 0.8,-1.4 2.8003,-1.20078 4.8003,0.19922 1.2,0.9 2.0001,3.69981 2.60009,9.7998 0.4,4.7 0.59991,8.80069 0.39991,9.20069 -0.0151,0.0301 -0.0608,0.0508 -0.082,0.0791 l 5.45947,1.33447 c -2.42576,-2.79586 -3.65443,-16.23669 -1.47803,-18.41309 1.5,-1.49999 1.7001,-1.50107 5.6001,-0.10107 2.7,0.9 3.1001,1.60079 4.1001,7.30078 0.6,3.4 1.10009,7.19942 1.10009,8.39942 0,1.19999 0.5001,2.20019 1.1001,2.20019 0.8,0 1.0002,-2.50049 0.7002,-8.50049 -0.5,-7.49999 -0.3999,-8.49902 1.10009,-8.49902 0.9,0 2.69942,0.69961 3.89942,1.59961 2,1.4 2.20019,2.30001 2.20019,10.5 0,4.00951 -0.25959,7.27336 -0.67089,8.42431 l 0.37207,0.0513 4.70361,1.20557 c -1.09663,-1.27967 -1.16096,-3.40922 -0.8042,-7.18066 0.7,-8.89999 1.4002,-12.60059 2.2002,-12.60059 0.4,0 4.09873,0.69961 8.19873,1.59961 4.09999,0.8 7.80058,1.8002 8.10058,2.2002 0.7,0.79999 2.90039,14.9998 2.90039,18.7998 0,1.10915 -0.0761,1.7213 -0.41748,1.99951 l 5.00391,1.98633 c -1.68665,-2.15907 -2.58692,-6.7718 -2.58692,-13.68604 0,-8.09999 0.4005,-8.79941 4.00049,-6.89941 1.8,0.9 2.0003,2.2005 1.8003,11.50049 0,4.66114 -0.25847,8.56573 -0.51563,9.9375 l 11.69385,1.46338 c -0.17418,-1.03747 -0.74046,-5.26626 -1.47949,-10.90137 -1.6,-10.79999 -1.49942,-11.09981 0.60058,-15.7998 1.8,-4.1 2.20039,-4.39971 2.90039,-2.69971 0.5,1.1 0.89942,6.89903 0.89942,12.99902 0,3.33577 -0.14663,6.34436 -0.38819,8.81836 l 5.06836,-11.0376 0.009,-0.0454 c -1.36133,3.15993 -1.39146,2.83119 -1.48828,-7.33447 -0.1,-11.99999 0.79951,-20.3997 1.99951,-19.19971 0.5,0.5 0.90049,5.79933 1.00049,11.79932 0.0466,3.7745 -0.007,6.54782 -0.18457,8.76856 l 4.14844,-9.91407 c -0.0517,0.0661 -0.12086,0.22017 -0.16407,0.2461 -0.49999,0.3 -0.90087,0.3 -0.90087,0 0,-0.2 -0.49864,-3.90059 -1.09864,-8.10059 -0.9,-6.39999 -0.80126,-8.39981 0.69873,-12.7998 3.2,-9.99999 3.80108,-10.10019 4.60108,-0.7002 0.41689,3.9307 0.5055,6.6872 0.2417,9.31201 l 4.23633,-9.20947 c -0.31119,-0.0543 -0.64989,-1.34257 -0.97852,-4.10303 -0.9,-7.09999 -0.89961,-20.49883 -0.0996,-21.29883 1.8,-1.69999 2.3998,1.40011 2.2998,11.6001 -0.0489,6.40767 -0.33959,10.83701 -0.73828,12.74854 l 0.20508,-0.44532 4.37689,-11.02148 c -1.3668,-1.03939 -0.2848,-27.86871 1.3565,-33.08203 l 1.2993,-4.00049 0.7002,3 c 0.3,1.6 0.6998,4.80049 0.7998,7.00049 0.1,2.2 0.5997,4.69902 1.1997,5.49902 0.7,1.1 0.9998,-1.90001 0.7998,-10.5 -0.3,-15.29998 -0.1,-18.49951 1.0005,-18.49951 0.4,0 1.1,2.59971 1.5,5.69971 0.4,3.19999 1.1007,8.29981 1.7007,11.2998 0.3356,1.64793 0.532,2.83449 0.539,4.03711 l 0.035,-0.0952 z M 894.53174,813.2915 c 2.1914,-0.20605 7.64455,1.14454 24.26953,4.95704 23.59998,5.49999 39.69953,8.0997 61.99951,10.1997 15.89999,1.4 21.79982,2.70069 21.79982,4.70069 0,0.5 -1.0994,3.0001 -2.3994,5.60009 -5.19999,10.29999 -12.89926,33.79975 -25.69925,77.69971 -2.79999,9.89999 -5.30049,18.1999 -5.50049,18.3999 -0.1,0.2 -5.4001,-0.8998 -11.60009,-2.2998 -12.39999,-2.8 -82.09973,-14.70069 -98.69971,-16.70069 -5.69999,-0.79999 -10.50029,-1.79902 -10.80029,-2.49902 -0.2,-0.6 1.50019,-5.10049 3.70019,-10.00049 2.3,-4.89999 7.59971,-16.79942 11.69971,-26.39941 7.49999,-17.59998 26.30059,-57.5003 29.10059,-61.80029 0.67499,-1.05 0.81504,-1.73379 2.12988,-1.85743 z" />
      <path
         d="m 895.80123,816.6488 c -2.4,2 -17.3,30 -19.9,37.4 -1.3,3.5 -1.5,5.1 -0.7,5.9 1.7,1.7 6.5,-4.8 16.9,-22.4 6.4,-10.8 8.8,-15.9 8.9,-18.5 0.1,-4.2 -1.9,-5.1 -5.2,-2.4 z"
         id="path148"
         style="fill:#000000;stroke:none;stroke-width:0.1" />
      <path
         d="m 926.20123,833.8488 c -8.9,3.6 -11.8,7.6 -12.6,17.1 l -0.5,6.4 -7.5,3.9 c -12.9,6.6 -19.1,14.7 -19.8,26.2 -0.5,8.3 1.7,12.1 9.2,15.9 10.7,5.6 28.3,3.7 35.5,-3.8 5.7,-5.9 5.9,-14.7 0.6,-26.4 -3.6,-7.9 -3.4,-10 1.3,-10.7 2,-0.4 7.4,-1.7 11.9,-3.1 13.3,-4 19.6,-11.4 16,-19 -2.6,-5.3 -8.3,-7.7 -19.7,-8.1 -7.6,-0.3 -10.5,0.1 -14.4,1.6 z m 24.9,8.4 c 3.7,2.8 -1.4,5.9 -14.7,8.8 -12.7,2.8 -15.6,1.4 -10.2,-5 1.4,-1.7 4,-3.5 5.7,-4 5,-1.5 17.1,-1.3 19.2,0.2 z m -31,26.9 c 0.3,1.3 0.9,4.3 1.4,6.8 0.5,2.5 1.5,7.1 2.2,10.2 1.5,6.5 0.7,8.1 -4.8,10.5 -7,2.9 -21,0.6 -23.3,-3.8 -2.3,-4.2 0.1,-11.9 5.2,-16.7 3.1,-2.9 14.7,-9.1 17,-9.2 1,0 2,1 2.3,2.2 z"
         id="path150"
         style="fill:#000000;stroke:none;stroke-width:0.1" />
    </g>
  </g>
</svg>
