<?xml version="1.0" encoding="UTF-8" standalone="no"?>
<!-- Created with Inkscape (http://www.inkscape.org/) -->

<svg
   width="64.700623mm"
   height="55.871044mm"
   viewBox="0 0 64.700622 55.871045"
   version="1.1"
   id="svg1397"
   inkscape:version="1.2.1 (9c6d41e410, 2022-07-14)"
   sodipodi:docname="button1.svg"
   xmlns:inkscape="http://www.inkscape.org/namespaces/inkscape"
   xmlns:sodipodi="http://sodipodi.sourceforge.net/DTD/sodipodi-0.dtd"
   xmlns="http://www.w3.org/2000/svg"
   xmlns:svg="http://www.w3.org/2000/svg">
  <sodipodi:namedview
     id="namedview1399"
     pagecolor="#ffffff"
     bordercolor="#000000"
     borderopacity="0.25"
     inkscape:showpageshadow="2"
     inkscape:pageopacity="0.0"
     inkscape:pagecheckerboard="0"
     inkscape:deskcolor="#d1d1d1"
     inkscape:document-units="mm"
     showgrid="false"
     inkscape:zoom="0.64693624"
     inkscape:cx="-386.43685"
     inkscape:cy="-153.80186"
     inkscape:window-width="1350"
     inkscape:window-height="1230"
     inkscape:window-x="848"
     inkscape:window-y="53"
     inkscape:window-maximized="0"
     inkscape:current-layer="layer1" />
  <defs
     id="defs1394" />
  <g
     inkscape:label="Layer 1"
     inkscape:groupmode="layer"
     id="layer1"
     transform="translate(-161.43171,-163.47521)">
    <g
       id="g2140"
       transform="matrix(0.35277777,0,0,0.35277777,-21.166432,-232.36388)">
      <path
         id="path194"
         style="fill:#000000;stroke:none;stroke-width:0.1"
         d="m 632.44482,1274.7554 c -0.11356,-0.1069 -0.23354,-0.1917 -0.34423,-0.3062 -2.1,-2 -2.49903,-3.4002 -2.49903,-8.2002 0,-6.7 -0.7998,-10.3008 -2.2998,-10.3008 -0.6,0 -0.70069,1.8002 -0.20069,5.2002 0.4,2.9 0.80088,7.1003 0.90088,9.3003 0.0446,1.7846 0.0509,2.7458 -0.2373,3.2666 z" />
      <path
         id="path2134"
         style="fill:#000000;stroke:none;stroke-width:0.1"
         d="m 700.98486,1182.7397 c 9.5e-4,-0.3018 0.0161,-0.4698 0.0161,-0.791 0.1,-12 -1.99903,-31.0004 -3.99903,-35.9004 -1.6,-4.2 -4.7002,-6.0996 -9.70019,-6.0996 -1.8,0 -5.00118,-0.5005 -7.20117,-1.0005 -2.2,-0.5 -13.49972,-1.9999 -25.19971,-3.3999 -13.49999,-1.6 -29.59904,-4.3992 -44.49902,-7.6992 -12.79999,-2.8 -26.70128,-5.4001 -30.80127,-5.6001 -6.8,-0.4 -7.69942,-0.2997 -9.89942,1.8003 -7.89999,7.5 -22.50011,36.6995 -40.1001,80.3994 -2.89999,7.1 -6.8001,16.0007 -8.60009,19.7007 l -3.39991,6.6987 0.90088,14.8008 c 0.25344,4.6887 0.59816,8.4441 1.03125,11.5166 5.19567,0.8032 8.3475,1.2868 10.76221,1.6685 -0.49687,-1.1928 -0.86352,-2.9169 -1.09424,-5.1856 -0.3,-3.4 -0.89971,-8.599 -1.19971,-11.499 -0.69999,-5.2 -0.60077,-5.401 1.69922,-5.001 1.3,0.1 2.90059,1.4008 3.60059,2.8008 1.32209,2.5561 1.71089,15.8183 0.82617,19.4795 0.74368,0.1186 5.09979,0.7889 5.27637,0.8174 -2.00911,-1.4535 -2.80225,-5.2767 -2.80225,-12.4966 0,-8.2 0.0995,-8.8008 1.99951,-8.8008 1.2,0 2.4,0.9994 3,2.3994 0.5,1.3 1.19961,6.301 1.59961,11.001 0.41107,5.6864 0.52329,7.5858 -0.0791,8.2383 l 2.95899,0.1084 -0.27979,-10.147 -0.29883,-10.8003 2.79932,0.6006 c 1.5,0.4 3.4001,1.3998 4.1001,2.2998 0.7,1 1.1997,4.7004 1.1997,8.9004 0,4 0.30059,7.9989 0.60059,8.8989 0.0978,0.2282 0.14704,0.4141 0.17285,0.5816 l 4.31836,0.5229 c -1.30353,-2.234 -1.55391,-19.604 -0.19189,-19.604 0.5,0 2.10097,0.4005 3.50097,1.0005 2.5,0.9 2.59864,1.2 2.59864,10.5 0,5.7669 -0.0397,8.0343 -0.61084,8.9253 l 3.84375,0.7691 c -1.0464,-1.4646 -1.23895,-3.9775 -0.83204,-7.8941 0.4,-3.5 1.09961,-7.5004 1.59961,-8.9004 0.9,-2.3 1.40079,-2.4999 4.30079,-1.8999 1.69999,0.4 3.39873,0.8997 3.69873,1.1997 0.3,0.3 0.50097,4.6006 0.50097,9.6006 v 8.77 l 2.26026,0.086 0.64013,-7.9571 c 0.8,-9.9 2.10001,-11.7004 6,-8.9004 2,1.4 3.39951,7.9999 3.49951,15.3999 0.0391,1.5262 0.0272,2.5051 -0.12744,3.1451 l 5.39356,1.3183 c -0.34693,-0.3514 -0.64796,-0.7275 -0.86572,-1.1631 -1.7,-3.3 -1.7,-16.6998 0,-17.2998 1.49999,-0.6 5.79931,0.3 7.29931,1.5 0.7,0.5 1.5003,3.2992 1.80029,6.1992 1.4,10.7 2.40049,11.7002 2.50049,2.2002 l 0.0996,-8.7993 2.79932,0.5991 c 4.49999,1.2 5.40029,3.2011 4.80029,12.1011 l -0.38232,7.6377 0.063,0.01 3.98291,1.0225 c -0.29924,-1.2188 -0.14256,-3.4966 0.23584,-8.4698 0.6,-8 1.10029,-10.6992 1.80029,-10.6992 0.1,0 3.60069,0.6996 7.70068,1.5996 4.1,0.8 8.0001,2.0005 8.6001,2.5005 0.7,0.5 1.4999,4.6992 1.8999,9.1992 0.3,4.5 0.9001,9.0009 1.1001,9.9009 0.14237,0.4805 0.12694,0.8571 -10e-4,1.1441 l 4.17626,1.6582 c -0.99659,-2.0914 -1.94475,-5.6706 -2.37451,-10.2027 -0.8,-9.3 -0.30068,-11.1997 2.79932,-10.1997 1.3,0.4 2.69961,1.1988 3.09961,1.7988 0.4,0.6 0.50068,3.1005 0.20068,5.5005 -0.3,2.4 -0.50097,6.8002 -0.50097,9.7002 0,2.0875 -0.18975,3.4964 -0.49366,4.3667 l 12.17578,1.522 c -0.45225,-1.6136 -1.06929,-5.5001 -1.58203,-10.188 -1.2,-10.4 -1.19931,-12.2006 0.20069,-15.6006 0.9,-2 2.00049,-3.7002 2.50049,-3.7002 0.49999,0 1.19892,5.0006 1.39892,11.1006 0.20059,4.092 0.18384,7.6378 -0.0147,10.5835 l 3.76905,-8.206 -0.45411,-1.878 c -0.79999,-3 -2.9e-4,-20.9004 1.19971,-25.4004 1.2,-4.7 2.2002,0.4999 2.2002,11.2998 0,2.4914 -0.12936,4.9519 -0.3252,7.1558 l 3.83936,-9.1802 c -0.14197,0.078 -0.28178,0.1079 -0.41455,0.025 -0.4,-0.3 -1.1,-4.3004 -1.5,-8.9004 -0.6,-7.2 -0.4,-9.099 1.5,-14.499 2.89999,-7.8 4.00048,-6.5008 4.00048,4.6992 0,2.344 -0.19821,4.8999 -0.50244,7.3653 l 0.0747,-0.3047 4.78125,-10.396 c -0.0829,0.068 -0.16694,0.093 -0.25342,0.035 -1.1,-0.6 -2.3,-18.4993 -1.5,-22.2993 1,-5.2 2.10039,-3.7002 2.90039,3.7998 0.57664,6.0959 0.061,15.1378 -0.80713,17.7261 l 0.25342,-0.5508 4.36084,-10.9819 -0.50683,-1.6934 c -1.6,-5.4 1.19922,-35.2005 3.19921,-34.0005 0.4,0.3 1.1,3.9006 1.5,8.1006 1.1,11.5 2.69991,7.1002 1.89991,-5.2998 -0.4,-5.5 -0.30039,-11.7995 0.0996,-13.9995 l 0.80127,-3.8013 0.69873,3 c 0.5,1.6 1.50127,6.7013 2.30127,11.3013 l 1.29638,6.7266 z m -124.83398,-53.4155 c 0.525,0.125 -0.79913,4.2241 -4.34912,12.2241 -9.19999,20.3 -13.30019,35.4009 -9.7002,35.4009 1.5,0 12.1004,-20.8006 17.90039,-35.1006 1.5,-3.7 3.79913,-7.7004 5.09912,-8.9004 l 2.40088,-2.1987 6.79981,1.9995 c 12.39999,3.8 42.79894,9.1002 62.89892,11.2002 10.99999,1.1 21.10108,2.3001 22.60108,2.6001 4.99999,1 4.99882,2.2991 0.29883,12.5991 -2.4,5.2 -6.69991,16.8999 -9.39991,25.8999 -2.79999,9 -8.2999,27.4 -12.3999,40.8999 -5.49999,18.1 -7.89961,24.6013 -9.09961,24.8013 -0.9,0.2 -5.99942,-0.8006 -11.39941,-2.1006 -9.69999,-2.5 -80.6007,-14.7007 -97.70069,-16.7007 -12.49998,-1.5 -11.9996,-1.1994 -9.09961,-6.8994 1.4,-2.7 6.1004,-13.3997 10.4004,-23.6997 7.39999,-17.7 11.39904,-26.2999 27.99902,-60.3999 3.85,-7.9 6.225,-11.75 6.75,-11.625 z" />
      <path
         d="m 631.80123,1155.6488 c -2.3,2 -23.5,37.2 -28.5,47.2 -5.3,10.9 -3.9,20.7 2.5,17.3 4.2,-2.3 9.9,-11.4 20.5,-32.8 10.8,-21.6 13,-28.6 10.3,-31.9 -1.6,-1.9 -2.3,-1.9 -4.8,0.2 z"
         id="path196"
         style="fill:#000000;stroke:none;stroke-width:0.1" />
    </g>
  </g>
</svg>
