<?xml version="1.0" encoding="UTF-8" standalone="no"?>
<!-- Created with Inkscape (http://www.inkscape.org/) -->

<svg
   width="121.7869mm"
   height="55.253422mm"
   viewBox="0 0 121.7869 55.253422"
   version="1.1"
   id="svg364"
   inkscape:version="1.2.1 (9c6d41e410, 2022-07-14)"
   sodipodi:docname="clearButton.svg"
   xmlns:inkscape="http://www.inkscape.org/namespaces/inkscape"
   xmlns:sodipodi="http://sodipodi.sourceforge.net/DTD/sodipodi-0.dtd"
   xmlns="http://www.w3.org/2000/svg"
   xmlns:svg="http://www.w3.org/2000/svg">
  <sodipodi:namedview
     id="namedview366"
     pagecolor="#ffffff"
     bordercolor="#000000"
     borderopacity="0.25"
     inkscape:showpageshadow="2"
     inkscape:pageopacity="0.0"
     inkscape:pagecheckerboard="0"
     inkscape:deskcolor="#d1d1d1"
     inkscape:document-units="mm"
     showgrid="false"
     inkscape:zoom="0.914906"
     inkscape:cx="173.78834"
     inkscape:cy="119.68443"
     inkscape:window-width="1504"
     inkscape:window-height="1282"
     inkscape:window-x="26"
     inkscape:window-y="23"
     inkscape:window-maximized="0"
     inkscape:current-layer="layer1" />
  <defs
     id="defs361" />
  <g
     inkscape:label="Layer 1"
     inkscape:groupmode="layer"
     id="layer1"
     transform="translate(-59.121156,-117.54758)">
    <path
       id="path112"
       style="fill:#000000;stroke:none;stroke-width:0.0352778"
       d="m 71.558239,117.55576 c -0.16123,0.0353 -0.339721,0.18407 -0.617534,0.4222 -0.881944,0.77611 -6.526583,12.84086 -8.960693,19.26135 -2.363554,6.10295 -3.033716,9.3136 -2.822049,13.44104 0.07055,1.48167 1.975474,3.24577 4.268473,3.91604 2.822166,0.84661 12.876675,2.82223 21.519617,4.23334 4.162721,0.67027 18.132657,3.20999 31.044097,5.6441 12.91144,2.39883 28.39872,5.11548 34.39583,6.0327 6.03238,0.91717 11.57146,1.79882 12.34757,1.93994 3.84522,0.88194 5.32681,0.21171 6.91431,-3.06907 0.59972,-1.3405 2.5751,-5.43294 4.40955,-9.10177 4.44494,-9.10149 6.03276,-12.77061 6.56187,-15.34583 0.70555,-3.42189 0.91698,-3.31613 -9.24285,-5.43274 -3.21022,-0.70556 -10.01926,-2.22225 -15.13447,-3.38636 -21.73077,-4.97411 -53.83376,-11.50061 -70.484588,-14.2875 -10.442053,-1.72861 -12.135831,-2.18743 -13.158886,-3.38687 -0.551216,-0.68351 -0.771529,-0.93948 -1.040247,-0.88057 z m 1.450559,3.76928 c 0.48066,0.0132 1.124581,0.18066 2.024165,0.49816 0.811388,0.28222 8.713745,2.0108 17.603575,3.84524 33.019492,6.84378 60.219232,12.80596 73.730382,16.12201 4.69189,1.12889 8.81927,2.08102 9.17205,2.08102 0.52911,0 0.31782,0.91735 -1.55184,6.59701 -1.19945,3.66878 -3.06944,8.46707 -4.16306,10.76007 -1.23472,2.50466 -2.18739,5.0446 -2.46961,6.52621 -0.3175,1.72861 -0.59962,2.36339 -0.9524,2.29289 -0.84661,-0.21167 -12.48807,-2.08129 -19.01434,-3.06907 -5.85606,-0.88194 -23.28362,-3.9863 -41.80417,-7.44347 -4.65661,-0.88194 -13.053371,-2.36349 -18.662425,-3.35122 -5.644331,-0.9525 -11.676827,-2.08156 -13.405382,-2.46961 -3.845221,-0.84667 -10.089603,-2.71625 -10.689269,-3.21014 -0.246944,-0.21167 -0.458371,-0.81184 -0.458371,-1.34101 0,-2.08133 2.151828,-9.24254 4.409549,-14.63993 1.305278,-3.10439 2.927954,-7.16144 3.598231,-8.99583 0.670278,-1.83445 1.375834,-3.52802 1.5875,-3.77497 0.246945,-0.29986 0.564755,-0.44059 1.045415,-0.42736 z" />
    <path
       id="path596"
       style="fill:#000000;stroke:none;stroke-width:0.0352778"
       d="m 79.290585,124.86384 c -0.709705,0.004 -1.012977,0.22996 -1.682585,0.87488 -2.116666,2.15182 -5.397468,8.60828 -8.078579,15.9458 -2.539873,7.02002 -2.469109,7.83156 0.741042,7.83156 3.457095,0 14.288113,2.0113 40.816117,7.62021 8.67795,1.79916 17.28634,3.56302 19.15593,3.84524 4.12737,0.67015 4.97424,1.02275 5.53868,2.32803 0.49389,1.26987 1.41113,1.30562 2.5399,0.17673 0.77611,-0.77599 1.02316,-0.81139 2.2226,-0.52917 0.77599,0.17639 3.91593,0.81119 7.02024,1.37563 5.57364,1.05833 8.57257,1.76372 9.80716,2.29288 2.75166,1.16417 11.32411,-17.9211 9.77201,-21.73097 -0.52917,-1.23472 -1.90525,-1.76381 -7.40833,-2.96313 -2.22238,-0.45861 -9.63095,-2.11693 -16.43931,-3.66902 -23.88216,-5.43265 -58.208493,-12.69973 -62.829755,-13.29945 -0.423333,-0.0529 -0.754475,-0.0883 -1.027328,-0.0971 -0.05115,-0.002 -0.100481,-0.002 -0.147792,-0.002 z m 0.0014,2.89337 c 0.06708,-2.6e-4 0.138634,0.001 0.214975,0.005 l 0.0014,-3.5e-4 h 3.52e-4 v 3.5e-4 0.001 h 0.0011 0.0011 0.0014 c 1.221486,0.0617 3.682354,0.65267 9.061979,1.85208 1.936291,0.4268 3.393994,0.75509 4.487065,1.02061 0.0049,0.001 0.009,0.002 0.01394,0.004 l 7.210404,1.62316 c 0.0867,0.009 0.1775,0.02 0.27802,0.0336 0.59971,0.10584 5.00915,1.09387 9.7715,2.18747 3.20778,0.76037 6.07391,1.48741 7.65018,1.92495 l 5.68544,1.3658 c 1.41988,0.27887 3.7202,0.75946 6.21616,1.29915 3.88042,0.88194 8.14941,1.76392 9.48986,1.97559 0.59918,0.10486 1.1064,0.2288 1.4981,0.35553 l 5.76037,1.19115 c 1.10438,0.1754 2.65688,0.52999 4.71961,1.07538 l 7.20111,1.61437 c 0.96859,0.0626 4.01236,0.99755 4.42143,1.37253 0.45861,0.38805 -0.423,2.89264 -2.89233,8.14885 -1.30527,2.82215 -2.68128,6.03251 -2.99878,7.16133 -0.31749,1.12884 -0.81126,2.15191 -1.09347,2.25774 -0.24695,0.0705 -1.48217,-0.14105 -2.68149,-0.56431 -1.23472,-0.38805 -4.44506,-1.12875 -7.16132,-1.62264 -3.24471,-0.57358 -4.85604,-0.85092 -5.67304,-1.10329 l -5.58932,-1.08727 c -1.972,-0.19337 -11.96981,-2.39602 -16.45119,-3.58015 l -5.78415,-1.23661 c -0.0869,-0.002 -0.18759,-0.0214 -0.30644,-0.0527 -4.90344,-1.12889 -11.00686,-2.43385 -14.005344,-2.99827 -1.817758,-0.31342 -3.660665,-0.70996 -4.420919,-0.94309 l -6.709149,-1.63298 c -4.441006,-0.8107 -14.544604,-2.97394 -15.046109,-3.28042 -0.493864,-0.3175 -0.282064,-1.02358 2.363678,-7.86722 1.446354,-3.73931 2.645833,-6.98517 2.645833,-7.23211 0,-0.21167 0.316823,-1.09334 0.704868,-1.93994 0.396875,-0.85987 0.406703,-1.32424 1.412832,-1.32808 z" />
  </g>
</svg>
