<?xml version="1.0" encoding="UTF-8" standalone="no"?>
<!-- Created with Inkscape (http://www.inkscape.org/) -->

<svg
   width="64.832947mm"
   height="56.14016mm"
   viewBox="0 0 64.832947 56.140161"
   version="1.1"
   id="svg1397"
   inkscape:version="1.2.1 (9c6d41e410, 2022-07-14)"
   sodipodi:docname="commaButton.svg"
   xmlns:inkscape="http://www.inkscape.org/namespaces/inkscape"
   xmlns:sodipodi="http://sodipodi.sourceforge.net/DTD/sodipodi-0.dtd"
   xmlns="http://www.w3.org/2000/svg"
   xmlns:svg="http://www.w3.org/2000/svg">
  <sodipodi:namedview
     id="namedview1399"
     pagecolor="#ffffff"
     bordercolor="#000000"
     borderopacity="0.25"
     inkscape:showpageshadow="2"
     inkscape:pageopacity="0.0"
     inkscape:pagecheckerboard="0"
     inkscape:deskcolor="#d1d1d1"
     inkscape:document-units="mm"
     showgrid="false"
     inkscape:zoom="0.64693624"
     inkscape:cx="-531.7371"
     inkscape:cy="0.77287369"
     inkscape:window-width="1350"
     inkscape:window-height="1230"
     inkscape:window-x="848"
     inkscape:window-y="53"
     inkscape:window-maximized="0"
     inkscape:current-layer="layer1" />
  <defs
     id="defs1394" />
  <g
     inkscape:label="Layer 1"
     inkscape:groupmode="layer"
     id="layer1"
     transform="translate(-199.52527,-122.51126)">
    <g
       id="g2689"
       transform="matrix(0.35277777,0,0,0.35277777,-17.680593,-349.18794)">
      <path
         id="path2682"
         style="fill:#000000;stroke:none;stroke-width:0.1"
         d="m 799.43701,1398.5596 c 0.15783,-4.0198 -0.12487,-8.6533 -0.73535,-14.9107 -1.7,-16.1 -2.90098,-22.1998 -5.00098,-24.7998 -1.99999,-2.5 -11.79964,-4.2999 -42.09961,-7.8999 -9.59999,-1.1 -23.99952,-3.4006 -31.99951,-5.1006 -46.69995,-9.9 -45.8002,-9.8004 -50.20019,-7.4004 -1.4,0.8 -4.49981,4.3007 -6.79981,7.7007 -6.49999,9.8 -22.00059,42.0999 -32.10058,66.7998 -5,12.4 -10.40001,25.0001 -12,28.1001 l -2.79932,5.6001 0.7998,14.6001 c 0.28333,5.4777 0.5726,9.054 0.95069,11.688 5.25072,0.8113 8.26819,1.275 10.74023,1.6655 -0.90094,-3.2781 -2.38947,-19.9576 -1.89111,-21.2534 1.1,-2.9 3.79951,-0.9009 4.99951,3.5991 0.6,2.5 1.20117,7.8012 1.20117,11.7012 0.0584,3.9104 0.003,5.7115 -0.40136,6.5596 0.80649,0.1285 5.39506,0.8346 5.56933,0.8628 -2.15049,-1.5259 -3.06885,-5.5746 -3.06885,-13.4224 0,-8.8 0.49981,-9.9003 3.79981,-7.8003 1.4,0.8 3.10068,10.8004 3.20068,17.9004 0,2.0556 -0.0647,3.1222 -0.41015,3.6431 l 3.07324,0.1113 c -0.6176,-1.1055 -0.66358,-3.5804 -0.66358,-10.0547 0,-10.4 8.9e-4,-10.5 2.40088,-10.5 1.4,0 3.19903,0.6996 3.99903,1.5996 1.59999,1.6 1.7999,2.9999 1.8999,13.8999 0,2.6183 -0.13565,4.2997 -0.62402,5.3101 l 0.87011,0.032 4.56885,0.5537 c -0.96742,-1.039 -1.11475,-3.1371 -1.11475,-9.8965 0,-8.6999 0.19991,-9.4995 1.89991,-9.4995 1.1,0 2.60097,0.3006 3.50097,0.6006 1.3,0.5 1.59961,2.4 1.59961,10.5 0,5.0026 -0.0959,7.7806 -0.68408,9.0879 l 5.00977,1.002 c -0.92655,-0.6818 -1.61496,-1.5376 -1.82666,-2.4903 -0.3,-1.2 -0.0986,-5.1997 0.40136,-8.6997 0.6,-3.6 1.09864,-6.8008 1.09864,-7.3008 0,-1.4 5.90039,-0.6991 7.40039,0.9009 1.2,1.2 1.59961,3.599 1.59961,9.999 0,5.602 -0.0652,7.4602 -0.87891,8.2588 l 3.63281,0.1407 c -0.74793,-1.4559 -0.64908,-3.8987 -0.25342,-8.3995 0.4,-4.5 0.89971,-8.3989 1.19971,-8.8989 0.6,-1 3.5002,-0.9008 5.2002,0.1992 1.59999,1 3,8.0996 3,15.4995 l 0.0674,3.2637 4.89111,1.1953 c -0.22776,-0.5571 -0.37969,-0.8844 -0.75879,-1.9585 -1.2,-3.5 -1.4999,-15.1997 -0.3999,-16.1997 0.9,-1 3.70059,-0.9008 6.60059,0.1992 2.1,0.8 2.50019,2.0013 3.70019,9.8013 1.5,10.3 3.19981,8.899 2.29981,-2.001 -0.6,-6.5 -0.50078,-6.7002 1.69922,-6.7002 4.69999,0 6,2.6001 6,11.6001 0,3.8451 -0.28129,7.1706 -0.66504,8.3438 l 0.10107,0.013 3.54346,0.9082 0.62109,-8.1651 c 0.3,-5.1 0.8001,-9.499 1.1001,-9.999 0.6,-1 1.8002,-0.9013 9.70019,0.6987 3.8,0.8 7.19961,1.8013 7.59961,2.3013 0.89556,0.9951 3.07453,19.0914 2.50489,20.354 l 4.41064,1.7505 c -1.15354,-1.986 -1.91615,-5.7562 -2.41553,-12.1055 l -0.70019,-8.6997 h 2.50049 c 1.3,0 3.00058,0.6004 3.60058,1.4004 1.39318,1.6544 0.58627,16.7938 -0.76757,20.2866 l 0.0835,0.032 12.55957,1.5703 c -0.45736,-1.5783 -1.12657,-5.725 -1.67578,-10.5894 -1.1,-10.1 -1.1001,-11.5995 0.3999,-15.4995 2.2,-5.4 3.49912,-5.4 3.59912,0 0.1,2.4 0.30098,7.1988 0.50098,10.7988 0.14061,2.2498 0.037,4.888 -0.20508,7.3726 l 3.81446,-8.3057 -0.71045,-3.3662 c -0.7,-3.7 -0.0988,-15.3 1.20117,-22.5 1.1,-6.3 2.30019,-1.1002 2.20019,9.7998 0,2.9435 -0.11526,5.5587 -0.30175,7.774 l 4.09863,-9.7955 c -0.28929,0.1524 -0.56191,-0.024 -0.79688,-0.6782 -0.4,-1.1 -1.10039,-5.2 -1.40039,-9 -0.6,-5.9 -0.4,-8.0001 1.5,-13.1001 1.2,-3.4 2.59961,-5.9001 3.09961,-5.6001 0.5,0.3 0.89942,4.6006 0.89942,9.6006 0,2.9363 -0.24247,5.9868 -0.60059,8.7949 l 0.32813,-1.3271 4.51904,-9.8247 -0.54639,-2.3438 c -1.1,-4.7 -1.29922,-21.8005 -0.19922,-23.5005 1.4,-2.2 2.29981,2.601 2.29981,12.501 0,4.4 -0.3002,9.2995 -0.7002,10.9995 l -0.23144,0.9903 0.23291,-0.5054 5.57226,-14.0303 c -0.76755,1.6104 -1.35471,2.7045 -1.47363,2.5459 -1.8,-1.8 0.79932,-35.5005 2.79932,-35.5005 0.4,0 1.1,3.4 1.5,7.5 0.4,4.8 1.00068,7.2994 1.70068,6.8994 0.7,-0.4 0.80029,-4.399 0.30029,-11.499 -0.7,-11.4 -3.9e-4,-18.2998 1.59961,-15.7998 0.5,0.8 0.89942,2.6989 0.89942,4.3989 0,1.6 0.70107,5.901 1.60107,9.501 l 1.23193,5.3379 z m -124.21142,-54.4615 c 1.47499,0.1 3.92559,0.8511 8.47558,2.3511 8.49999,2.7 37.10041,8.6999 52.40039,10.8999 5.5,0.8 16.69982,2.0001 24.79981,2.6001 8.39999,0.6 16.30029,1.599 18.30029,2.499 4.1,1.7 4.0999,2.101 -1.1001,12.501 -3.79999,7.6 -9.20011,23.9991 -20.6001,62.499 -4.49999,15.4 -8.6,28.3999 -9,28.8999 -0.39999,0.4 -5.50049,-0.3999 -11.50048,-1.8999 -15.09999,-3.8 -96.59943,-17.399 -104.39942,-17.499 -6.19999,-0.1 -6.30077,-0.7005 -1.30078,-11.5005 2.5,-5.5 8.7003,-19.7 13.80029,-31.5 7.7,-17.8 23.59952,-51.3993 27.49952,-58.2993 0.65,-1.1 1.15,-1.6513 2.625,-1.5513 z" />
      <path
         d="m 678.30123,1356.7488 c -1.7,1.9 -11.8,23.6 -13.7,29.5 -0.6,2.1 -1,4.1 -0.7,4.3 1.1,1.1 17.7,-29.4 17.7,-32.6 0,-2.7 -1.5,-3.2 -3.3,-1.2 z"
         id="path228"
         style="fill:#000000;stroke:none;stroke-width:0.1" />
      <path
         d="m 701.20123,1396.0488 c -3.1,3.7 -3.3,6.2 -0.5,10 2.3,3.3 2.1,4.9 -2.2,12.5 -3.7,6.5 -3.8,10.1 -0.5,11 3.3,0.8 6.1,-0.2 10.1,-3.8 7,-6.1 10,-14.6 8.4,-23.5 -1.2,-6.2 -4.2,-9.3 -9,-9.3 -2.9,0 -4.3,0.7 -6.3,3.1 z"
         id="path230"
         style="fill:#000000;stroke:none;stroke-width:0.1" />
      <path
         d="m 724.60123,1474.1488 c 0,1.3 0.7,4.5 1.4,7.3 l 1.4,5 0.1,-5.7 c 0.1,-6 -0.5,-8.8 -2,-8.8 -0.5,0 -0.9,1 -0.9,2.2 z"
         id="path232"
         style="fill:#000000;stroke:none;stroke-width:0.1" />
    </g>
  </g>
</svg>
