<?xml version="1.0" encoding="UTF-8" standalone="no"?>
<!-- Created with Inkscape (http://www.inkscape.org/) -->

<svg
   width="64.895523mm"
   height="56.294998mm"
   viewBox="0 0 64.895523 56.294998"
   version="1.1"
   id="svg1397"
   inkscape:version="1.2.1 (9c6d41e410, 2022-07-14)"
   sodipodi:docname="divButton.svg"
   xmlns:inkscape="http://www.inkscape.org/namespaces/inkscape"
   xmlns:sodipodi="http://sodipodi.sourceforge.net/DTD/sodipodi-0.dtd"
   xmlns="http://www.w3.org/2000/svg"
   xmlns:svg="http://www.w3.org/2000/svg">
  <sodipodi:namedview
     id="namedview1399"
     pagecolor="#ffffff"
     bordercolor="#000000"
     borderopacity="0.25"
     inkscape:showpageshadow="2"
     inkscape:pageopacity="0.0"
     inkscape:pagecheckerboard="0"
     inkscape:deskcolor="#d1d1d1"
     inkscape:document-units="mm"
     showgrid="false"
     inkscape:zoom="0.914906"
     inkscape:cx="33.883262"
     inkscape:cy="81.42913"
     inkscape:window-width="1350"
     inkscape:window-height="1230"
     inkscape:window-x="848"
     inkscape:window-y="53"
     inkscape:window-maximized="0"
     inkscape:current-layer="layer1" />
  <defs
     id="defs1394" />
  <g
     inkscape:label="Layer 1"
     inkscape:groupmode="layer"
     id="layer1"
     transform="translate(-95.953403,-126.85931)">
    <g
       id="g1410"
       transform="matrix(0.35277777,0,0,0.35277777,-328.96795,-182.5504)">
      <path
         id="path160"
         style="fill:#000000;stroke:none;stroke-width:0.1"
         d="m 1319.5796,1031.0742 c -1.9523,-1.4687 -2.978,-4.2778 -2.978,-8.2251 0,-6.1 -0.9998,-10.8999 -2.2998,-10.8999 -0.6,0 -0.7003,1.7 -0.3003,4.5 0.3,2.5 0.8997,6.5 1.1997,9 0.5117,3.6671 0.4271,4.3206 -0.9478,4.4429 z" />
      <path
         id="path1403"
         style="fill:#000000;stroke:none;stroke-width:0.1"
         d="m 1388.439,938.96191 c 0.045,-1.52236 0.01,-3.0702 -0.1377,-4.81347 -2.3,-28.09997 -4.3004,-36.59922 -8.9004,-37.69922 -4.9,-1.1 -21.9994,-3.50049 -38.7993,-5.50049 -9.6,-1.1 -22.9005,-3.19961 -29.5005,-4.59961 -47,-9.89999 -47.7995,-9.9997 -51.4995,-8.69971 -7.1,2.6 -21.3001,28.89888 -39,72.29883 -5.1,12.39999 -10.8006,25.60088 -12.6006,29.40088 l -3.4995,6.79981 0.8994,15.49947 c 0.2872,5.0403 0.5576,8.8437 0.9536,11.7481 5.6616,0.8757 9.6176,1.4835 11.9106,1.8472 -1.0359,-0.5652 -1.4929,-2.7124 -2.4638,-9.9947 -1.8,-12.99996 -0.9001,-16.00017 3.3999,-11.20017 1.6,1.8 1.8999,3.69932 1.8999,11.79927 0,8.3166 -0.1067,9.4599 -1.6685,9.5757 1.3126,0.2087 7.7955,1.208 7.853,1.2173 -2.9783,-1.1467 -4.9149,-8.448 -3.9843,-16.99217 0.5,-5.5 1.4005,-6.5999 4.0005,-4.89991 1.1,0.7 3.2988,13.39978 3.2988,18.79978 0,1.4 -0.6996,2.6996 -1.5996,3.0996 -0.1276,0.049 -0.2511,0.06 -0.3765,0.088 l 4.9688,0.1802 c -0.9289,-0.859 -0.9917,-3.0069 -0.9917,-10.4678 v -10.49997 h 2.499 c 1.4,0 3.0009,0.9002 3.9009,2.2002 0.9,1.49999 1.5992,5.40027 1.6992,10.80027 0.099,4.5576 0.05,7.0244 -0.6929,8.2002 l 0.5142,0.019 5.978,0.7251 c -1.9555,-1.7662 -2.4507,-6.0256 -2.0991,-14.7452 0.2,-4.69996 0.4005,-5.20016 2.5005,-5.20016 1.3,0 2.7995,0.50117 3.4995,1.20117 0.8,0.8 1.1997,4.59999 1.1997,10.49999 0,6.1182 -0.1136,8.2564 -0.8115,8.9649 l 6.6679,1.333 c -3.6894,-1.1135 -4.1053,-2.5387 -3.5551,-9.5992 0.4,-3.9 0.8993,-7.7993 1.2993,-8.7993 0.7,-1.79997 5.0004,-2.20056 7.4004,-0.6006 1.1,0.7 1.4996,3.101 1.5996,9.501 0.063,5.8895 -0.2682,8.7151 -1.7285,9.7105 l 4.6406,0.1787 c -0.7732,-1.1467 -0.4754,-3.2716 -0.1128,-8.0889 0.3,-4.7 0.9012,-8.9014 1.2012,-9.4014 0.7,-1.1 3.5002,-1.1 5.2002,0 1.5,0.9 3.7993,16.1006 2.7993,18.6006 -0.078,0.2141 -0.1933,0.3724 -0.3135,0.5259 l 5.9194,1.4473 c -0.09,-0.057 -0.2519,-0.1186 -0.3061,-0.1729 -1.7,-1.7 -3.0999,-13.6007 -1.8999,-16.7007 1,-2.6 1.3003,-2.7991 4.8003,-2.0991 2,0.4 3.8005,0.7994 4.0005,0.8994 0.1,0.2 0.8992,4.0001 1.6992,8.6001 0.8,4.6 1.6995,8.5008 1.9995,8.8008 0.3,0.3 0.501,-3.4006 0.501,-8.1006 0,-9.1 0.3,-9.7006 4.5,-8.1006 2.7,1.1 3.5989,5.2001 2.8989,13.1001 l -0.6255,6.627 0.038,0.01 5.0918,1.3066 c -1.2785,-1.3443 -1.0215,-4.283 -0.2036,-12.939 0.7,-7.7 0.2992,-7.3998 10.6992,-5.2998 3.7,0.8 7.0008,1.6999 7.3008,1.8999 0.7,0.7 2.2998,12.5998 2.2998,17.2998 0,2.3 -0.082,3.2941 -0.6109,3.6358 l 5.9444,2.3613 c -2.0274,-1.5093 -2.4965,-4.0331 -3.0337,-12.8965 -0.6,-8.3 -0.5,-8.7012 1.5,-8.7012 1.1,0 2.8002,0.8007 3.7002,1.7007 1.3,1.2 1.5001,2.6002 1.1001,5.2002 -0.3,2 -0.6006,6.3994 -0.6006,9.8994 0,3.3813 -0.044,4.8954 -0.4292,5.4185 l 11.7744,1.4722 -0.9448,-6.69 c -0.7,-4.7 -1.2993,-10.4002 -1.2993,-12.7002 -0.1,-4.5 2.699,-11.8996 3.999,-10.5996 0.5,0.5 0.9005,5.9988 1.0005,12.2988 0.049,3.7334 -0.026,6.9212 -0.2183,9.5098 l 3.9199,-8.5356 c -0.034,0.01 -0.067,0.026 -0.101,0.026 -1.2,0 -0.3006,-24.29948 0.8994,-27.49948 0.8,-1.9 0.9,-1.80049 1.5,0.49951 0.4,1.4 0.6998,6.29991 0.7998,10.89987 0.028,2.348 -0.076,4.6045 -0.2652,6.6739 l 3.4527,-8.253 c -0.1,0.01 -0.1957,-0.029 -0.2871,-0.1201 -0.5,-0.5 -1.1,-4.40038 -1.5,-8.90038 -0.5,-7.39999 0.7995,-15.10068 3.4995,-19.70068 1.1,-1.8 2.1006,3.00118 2.1006,10.20117 0.025,1.92768 -0.1318,4.15618 -0.4014,6.38672 l 4.4971,-9.7793 c -1.0814,-0.48768 -2.3675,-18.53272 -1.4956,-22.40771 1.4,-6.49999 2.499,-2.40009 2.499,9.3999 0,5.56189 -0.2614,10.35515 -0.624,12.18311 l 0.1025,-0.22266 4.9849,-12.55078 c -0.2921,0.0785 -0.5191,-0.26888 -0.7632,-0.90967 -1.9,-5.19999 1.2003,-36.70078 3.3003,-32.80078 0.4,0.8 1.1,4.5002 1.5,8.2002 0.4,3.79999 0.8997,6.5999 1.1997,6.3999 0.2,-0.3 0.3999,-6.59952 0.3999,-13.99951 -0.2,-15.19999 0.9002,-20.4997 2.2002,-11.69971 0.5,3 1.4002,8.29971 2.2002,11.69971 0.4593,2.25504 0.7137,3.7623 0.7602,5.01855 z m -124.5484,-54.96386 c 1.2578,0.0283 3.335,0.63867 7.21,1.95117 15.5,5.29999 55.2002,12.3999 78.7002,13.8999 8.5,0.6 16.1007,1.59903 18.2007,2.49902 l 3.5991,1.5 -1.5996,4.30079 c -0.8,2.29999 -2.2999,5.7 -3.3999,7.5 -3,5.09999 -6.4996,15.49925 -18.0996,54.19921 -6,20.09998 -11.2009,36.70046 -11.4009,37.00046 -0.3,0.2 -2.8989,-0.2997 -5.8989,-1.1997 -2.9,-0.9 -8.1005,-1.7007 -11.5005,-1.7007 -3.9,0 -9.5005,-0.999 -14.5005,-2.499 -11.5,-3.49998 -74.7997,-14.50047 -83.6997,-14.50047 -6.5,0 -6.5991,-0.69962 -0.5991,-13.59961 3,-6.59999 8.6987,-19.59991 12.6987,-28.8999 6.5,-15.29999 27.1007,-58.30039 28.7007,-59.90039 0.375,-0.375 0.8346,-0.56778 1.5893,-0.55078 z" />
      <path
         d="m 1264.7012,896.6488 c -0.5,1 -2.9,7.2 -5.4,13.8 -2.5,6.6 -5.7,14.6 -7.1,17.8 -4,8.8 -3.3,12.9 1.1,6.4 4.9,-7.1 16.9,-35.8 16,-38.1 -0.8,-2.1 -3.4,-2 -4.6,0.1 z"
         id="path162"
         style="fill:#000000;stroke:none;stroke-width:0.1" />
      <path
         d="m 1315.4012,914.3488 c -3.9,1.4 -10.6,6 -37.8,25.7 -22.9,16.6 -29.7,24 -26,28.4 2.2,2.7 5.6,1.6 13.6,-4.1 11.1,-7.9 37.5,-28.9 53.7,-42.5 4.2,-3.6 6.3,-7.9 3.8,-7.9 -0.5,0 -1.5,-0.2 -2.3,-0.5 -0.7,-0.2 -2.9,0.2 -5,0.9 z"
         id="path164"
         style="fill:#000000;stroke:none;stroke-width:0.1" />
    </g>
  </g>
</svg>
