<?xml version="1.0" encoding="UTF-8" standalone="no"?>
<!-- Created with Inkscape (http://www.inkscape.org/) -->

<svg
   width="64.838112mm"
   height="56.150898mm"
   viewBox="0 0 64.838112 56.150899"
   version="1.1"
   id="svg1397"
   inkscape:version="1.2.1 (9c6d41e410, 2022-07-14)"
   sodipodi:docname="equalButton.svg"
   xmlns:inkscape="http://www.inkscape.org/namespaces/inkscape"
   xmlns:sodipodi="http://sodipodi.sourceforge.net/DTD/sodipodi-0.dtd"
   xmlns="http://www.w3.org/2000/svg"
   xmlns:svg="http://www.w3.org/2000/svg">
  <sodipodi:namedview
     id="namedview1399"
     pagecolor="#ffffff"
     bordercolor="#000000"
     borderopacity="0.25"
     inkscape:showpageshadow="2"
     inkscape:pageopacity="0.0"
     inkscape:pagecheckerboard="0"
     inkscape:deskcolor="#d1d1d1"
     inkscape:document-units="mm"
     showgrid="false"
     inkscape:zoom="0.64693624"
     inkscape:cx="-517.82537"
     inkscape:cy="-249.6382"
     inkscape:window-width="1350"
     inkscape:window-height="1230"
     inkscape:window-x="848"
     inkscape:window-y="53"
     inkscape:window-maximized="0"
     inkscape:current-layer="layer1" />
  <defs
     id="defs1394" />
  <g
     inkscape:label="Layer 1"
     inkscape:groupmode="layer"
     id="layer1"
     transform="translate(-195.73474,-188.90996)">
    <g
       id="g2752"
       transform="matrix(0.35277777,0,0,0.35277777,-86.734829,-296.29282)">
      <path
         id="path234"
         style="fill:#000000;stroke:none;stroke-width:0.1"
         d="m 915.45996,1528.8896 c -1.63862,-1.4775 -2.2319,-4.0823 -2.7583,-9.7412 -0.7,-8.3 -1.59971,-10.8003 -2.69971,-7.8003 -0.3,0.9 0.099,4.6002 0.99903,8.2002 0.9,3.6 1.40009,6.9 1.10009,7.5 -0.24146,0.3622 -0.86616,0.5912 -1.68896,0.7193 z" />
      <path
         id="path2744"
         style="fill:#000000;stroke:none;stroke-width:0.1"
         d="m 984.44092,1436.9004 c 0.18299,-4.3123 -0.10694,-9.279 -0.83936,-15.9522 -1.6,-15.6999 -2.7999,-21.5996 -4.8999,-24.0996 -1.9,-2.4 -7.30062,-3.3994 -36.60059,-6.8994 -19.39998,-2.3 -30.40051,-4.3009 -56.50048,-9.9009 -24.29998,-5.2 -26.79913,-5.4991 -30.59913,-3.5991 -6.59999,3.4 -22.50089,33.1996 -38.40087,72.4995 -5.1,12.3 -10.69913,25.6005 -12.59913,29.5005 l -3.30029,6.999 0.79981,14.001 c 0.31772,5.0348 0.60414,8.8725 1.02246,11.8491 5.42964,0.8393 8.78133,1.3542 11.20312,1.7373 -0.49504,-0.4676 -0.76971,-1.1524 -0.8247,-2.0874 -0.2,-1.4 -0.8004,-6.1992 -1.4004,-10.6992 -1.39999,-10.6 -0.1995,-13.0007 4.00049,-7.7007 1.8,2.3 2.09912,4.1011 2.09912,12.1011 0,6.1111 -0.058,8.2182 -0.70312,8.8784 0.64329,0.1025 4.12141,0.6381 4.37109,0.6783 -0.0163,-0.021 -0.0547,-0.036 -0.0674,-0.057 -0.2,-0.4 -0.79971,-5.6001 -1.19971,-11.6001 l -0.70019,-10.8003 2.39941,0.7002 c 1.3,0.4 2.49971,0.9005 2.69971,1.0005 0.6,0.5 2.20019,12.3992 2.20019,16.6992 0,3.0524 -0.1133,4.1617 -0.90673,4.566 l 3.38964,0.123 -0.28271,-10.188 c -0.2,-10 -0.0993,-10.7007 1.70068,-10.7007 1,0 2.89971,0.7999 4.19971,1.8999 2,1.6 2.29902,2.7996 2.49902,10.9995 l 0.18164,8.3189 4.58057,0.5552 c -1.09762,-1.4493 -1.3623,-4.4637 -1.3623,-10.4737 0,-8.5 0.20136,-9.3003 1.90136,-9.3003 1.1,0 2.59952,0.3006 3.49951,0.6006 1.3,0.5 1.59961,2.4 1.59961,10.5 0,6.4067 -0.0572,8.6388 -0.7207,9.4366 l 5.86231,1.1733 c -3.00439,-1.5184 -3.44209,-4.7936 -2.14161,-12.5098 1.1,-7 1.3005,-7.1997 4.00049,-7.1997 1.6,0 3.60039,0.6996 4.40039,1.5996 1.2,1.2 1.59961,3.6005 1.59961,10.0005 0,4.8166 -0.18944,7.4174 -1.12207,8.5899 l 4.1001,0.1567 c -0.8497,-1.4386 -0.78762,-3.8429 -0.37793,-8.2471 0.8,-9.5 2.3003,-11.7007 6.30029,-9.2007 1.6,1 2.99961,7.7001 3.09961,15 v 4.1309 l 5.45069,1.333 c -0.62549,-0.5657 -0.9295,-1.3059 -1.35059,-2.4639 -1.5,-4.5 -1.40078,-15.5997 0.19922,-16.1997 1.8,-0.8 2.20088,-0.7997 5.40088,0.3003 2.89999,1 3.09932,1.5002 4.29931,9.7002 1.5,10.4 3.40049,9.4 2.50049,-1.5 -0.6,-6.8 -0.5996,-7.1997 1.40039,-7.1997 1.2,0 2.99864,0.8995 4.09864,1.9995 1.69999,1.7 2.00097,3.3 2.00097,10.5 0,4.5538 0.12704,6.8188 -0.74267,7.7813 l 0.085,0.012 3.59765,0.9229 0.55957,-8.1153 c 0.7,-9.4 1.0002,-11.1006 2.2002,-11.1006 0.4,0 4.1002,0.6996 8.20019,1.5996 4.1,0.8 7.79913,1.6999 8.09913,1.8999 0.4,0.3 1.00039,3.3002 1.40039,6.7002 0.4,3.5 0.90078,8.3007 1.30078,10.7007 l 0.51855,3.8115 3.85254,1.5279 c -1.21652,-2.346 -2.07129,-7.0682 -2.07129,-12.7398 0,-8.8 0.4001,-9.4 4.1001,-7.5 1.8,1 1.89893,1.8998 1.39893,11.2998 -0.15877,4.4456 -0.63057,8.2838 -1.06934,9.794 l 12.02637,1.5029 c -0.25518,-0.5538 -0.45703,-1.6347 -0.45703,-2.896 0,-1.7 -0.49864,-6.8002 -1.09864,-11.2002 -1.1,-7.7 -1.00029,-8.301 1.19971,-12.501 l 2.2998,-4.5 0.7002,3 c 0.4,1.6 0.6998,7.0004 0.7998,11.9004 0.032,2.7548 -0.11445,5.4148 -0.36474,7.8033 l 3.63428,-7.9131 -0.56983,-5.2896 c -0.4,-3.6 -0.1997,-9.901 0.30029,-14.001 0.6,-4.1 1.1001,-8.2 1.1001,-9 0,-1.3 0.099,-1.3 0.99903,0 0.5,0.8 0.90087,6.2 0.90087,12 0,2.7459 -0.14151,5.5773 -0.35742,8.0274 l 4.27735,-10.2232 c -0.96697,0.8845 -1.57526,-1.9243 -2.32032,-9.104 -0.6,-5.6 -0.40038,-7.6997 1.59961,-13.1997 1.2,-3.6 2.60108,-6.1997 3.10108,-5.6997 0.4,0.4 0.79941,4.8994 0.89941,9.8994 0.0404,2.5441 -0.0447,4.7308 -0.20654,6.7471 l 4.61572,-10.0371 c -0.26674,-0.1147 -0.54392,-0.8746 -0.80859,-2.4097 -1,-5 -1.00108,-20.7001 -0.10108,-22.1001 1.4,-2.3 2.30127,2.2997 2.30127,12.0996 0,4.9891 -0.2616,8.6609 -0.63574,10.6817 l 4.45899,-11.2339 c -1.11389,0.3993 -0.89507,-22.5823 0.37646,-28.6465 1.7,-8.1 2.6999,-7.8013 3.3999,1.0986 0.5,5 1.1003,7.8004 1.8003,7.4004 0.59999,-0.4 0.69882,-4.8003 0.29882,-12.3003 -0.7,-11.9999 -0.1,-18.3998 1.5,-15.7998 0.5,0.7 0.90088,2.3006 0.90088,3.6006 0,1.3 0.7,5.6002 1.5,9.7002 l 1.3169,6.1773 z m -123.43213,-54.397 c 1.36731,-0.093 2.96192,0.7075 5.49316,1.645 3.2,1.1 30.39913,7.3007 41.09912,9.2007 13.99999,2.6 22.79973,3.6996 37.19971,4.5996 14.79999,0.9 21.60039,2.3 22.40039,4.5 0.3,0.8 -1.50049,5.6003 -4.00049,10.8003 -4.39999,9.1 -11.19913,29.9993 -23.09912,70.6992 -3.09999,10.7 -6.10058,19.9009 -6.60058,20.4009 -0.5,0.6 -5.00011,-0.1007 -11.6001,-1.7007 -11.99999,-3 -59.79935,-11.3003 -88.29932,-15.3003 -10.19999,-1.5 -19.30019,-2.8988 -20.20019,-3.2988 -1.5,-0.5 -1.20019,-1.6011 2.2998,-9.1011 2.3,-4.7 7.90059,-17.5 12.60059,-28.5 4.69999,-10.9999 13.39893,-29.9988 19.39892,-42.2988 8.3875,-16.9125 10.30003,-21.4419 13.30811,-21.646 z" />
      <path
         d="m 863.80123,1391.1488 c -2.3,2.9 -20.1,43.2 -20.2,45.7 0,2.5 3.8,-1.9 6.4,-7.3 9.5,-20.1 16.6,-36.1 16.6,-37.7 0,-2.2 -1.3,-2.5 -2.8,-0.7 z"
         id="path236"
         style="fill:#000000;stroke:none;stroke-width:0.1" />
      <path
         d="m 876.60123,1422.8488 c -1.4,0.4 -2.6,1.4 -2.8,2.2 -0.6,3.4 11.6,6.4 32.8,8.1 8.6,0.6 16.4,0.9 17.3,0.5 2.6,-1 2,-3.3 -1,-4.6 -4.4,-1.8 -20.2,-4.9 -27.8,-5.6 -3.8,-0.3 -9,-0.7 -11.5,-0.9 -2.5,-0.2 -5.6,-0.1 -7,0.3 z"
         id="path238"
         style="fill:#000000;stroke:none;stroke-width:0.1" />
      <path
         d="m 873.10123,1444.7488 c -3.7,0.5 -5.5,1.9 -5.5,4.4 0,2.4 4.5,4.4 12,5.2 11.4,1.4 37,2.4 39.7,1.7 4.1,-1.1 3.7,-4.2 -0.9,-6.4 -5.5,-2.7 -36.4,-6 -45.3,-4.9 z"
         id="path240"
         style="fill:#000000;stroke:none;stroke-width:0.1" />
    </g>
  </g>
</svg>
