<?xml version="1.0" encoding="UTF-8" standalone="no"?>
<!-- Created with Inkscape (http://www.inkscape.org/) -->

<svg
   width="64.883759mm"
   height="55.744366mm"
   viewBox="0 0 64.883758 55.744366"
   version="1.1"
   id="svg1397"
   inkscape:version="1.2.1 (9c6d41e410, 2022-07-14)"
   sodipodi:docname="multButton.svg"
   xmlns:inkscape="http://www.inkscape.org/namespaces/inkscape"
   xmlns:sodipodi="http://sodipodi.sourceforge.net/DTD/sodipodi-0.dtd"
   xmlns="http://www.w3.org/2000/svg"
   xmlns:svg="http://www.w3.org/2000/svg">
  <sodipodi:namedview
     id="namedview1399"
     pagecolor="#ffffff"
     bordercolor="#000000"
     borderopacity="0.25"
     inkscape:showpageshadow="2"
     inkscape:pageopacity="0.0"
     inkscape:pagecheckerboard="0"
     inkscape:deskcolor="#d1d1d1"
     inkscape:document-units="mm"
     showgrid="false"
     inkscape:zoom="0.914906"
     inkscape:cx="-43.720338"
     inkscape:cy="63.940995"
     inkscape:window-width="1350"
     inkscape:window-height="1230"
     inkscape:window-x="848"
     inkscape:window-y="53"
     inkscape:window-maximized="0"
     inkscape:current-layer="layer1" />
  <defs
     id="defs1394" />
  <g
     inkscape:label="Layer 1"
     inkscape:groupmode="layer"
     id="layer1"
     transform="translate(-116.43363,-131.37661)">
    <g
       id="g1716"
       transform="matrix(0.35277777,0,0,0.35277777,-282.38492,-240.48435)">
      <path
         id="path1707"
         style="fill:#000000;stroke:none;stroke-width:0.1"
         d="m 1241.6528,1205.5811 2.2676,0.5039 c -0.8353,-1.5515 -1.3198,-3.6572 -1.3198,-6.2359 0,-6.1 -0.9998,-10.8999 -2.2998,-10.8999 -0.6,0 -0.7003,1.7 -0.3003,4.5 0.3,2.5 0.9012,6.5996 1.2012,9.0996 z" />
      <path
         id="path1701"
         style="fill:#000000;stroke:none;stroke-width:0.1"
         d="m 1130.9546,1162.1411 -0.4453,1.0693 0.8921,15.3384 c 0.2387,4.276 0.4709,7.5432 0.7661,10.2539 5.5607,0.8584 8.4786,1.3072 11.0727,1.7168 -0.4434,-1.3685 -0.8568,-3.4378 -1.3388,-6.5713 -1.6,-11.2999 -1.6,-15 0,-15 0.8,0 2.1992,0.901 3.1992,2.001 1.3,1.4 1.9013,4.1999 2.3013,9.3999 0.3564,5.3474 0.2061,8.8527 -0.4468,10.7461 0.6669,0.1062 4.0907,0.6328 4.3637,0.6768 -1.8799,-2.9796 -2.9287,-8.8538 -2.2177,-15.1231 0.7,-5.5 1.5997,-6.5999 4.1997,-4.8999 1.1,0.7 3.3003,13.3998 3.3003,18.7998 0,0.6446 -0.1608,1.2572 -0.4087,1.7813 l 2.8052,0.1011 c -0.3295,-1.4144 -0.397,-3.9959 -0.397,-9.0821 0,-10 0.1002,-10.4004 2.2002,-10.4004 1.2,0 3.0005,0.7007 4.0005,1.7007 1.5,1.3 1.8003,3.1993 1.8003,10.2993 0,4.3465 -0.072,6.5369 -0.4263,7.7447 l 1.2026,0.044 3.8819,0.4702 c -1.2766,-1.7217 -1.4744,-5.0976 -0.958,-11.3584 0.5,-6.2 0.7997,-6.9009 2.6997,-6.9009 1.2,0 2.6999,0.5012 3.3999,1.2012 0.8,0.8 1.1997,4.5001 1.1997,10.1001 v 7.9248 l 2.685,0.5361 c -0.6605,-1.4749 -0.7073,-3.8349 -0.3852,-7.5615 0.8,-9.6 1.2005,-10.4005 5.5005,-10.0005 3.2,0.3 3.6993,0.7006 4.2993,3.6006 0.4,1.8 0.4011,6.2002 0.1011,9.7002 l -0.4073,5.2822 3.6402,0.1407 c -0.3931,-1.6032 -0.3482,-3.9858 -0.034,-7.5235 0.3,-4.2 0.7997,-8.0005 1.1997,-8.5005 0.6,-1.1 3.4006,-1.1996 5.1006,-0.1 1.2,0.7 3.3003,11.2004 3.3003,16.4004 0,0.5668 -0.031,0.9759 -0.091,1.3374 l 4.2232,1.0327 c -0.4467,-1.4404 -0.9485,-3.5994 -1.333,-5.9707 -1.5,-9.1 -0.2001,-12.0998 4.8999,-11.2998 1.9,0.4 3.7009,0.8005 3.9009,1.0005 0.3,0.2 1.0999,4.0997 1.8999,8.6997 0.8,4.6 1.6995,8.5008 1.9995,8.8008 0.3,0.3 0.4995,-3.4002 0.4995,-8.2002 v -8.7012 l 2.7012,0.3003 c 4.2,0.5 5.3996,4.0008 4.5996,13.3008 -0.2005,2.539 -0.3386,4.1743 -0.5244,5.2779 l 0.8906,0.123 3.4775,0.8921 c -0.3667,-2.0033 -0.022,-5.3072 0.5567,-11.0933 0.7,-7.7 0.3991,-7.5998 11.0991,-5.2998 3.5,0.8 6.5002,1.5003 6.7002,1.8003 0.7,0.6 2.5005,13.0995 2.5005,16.9995 0,1.1151 -0.042,1.8834 -0.1597,2.4449 l 4.1206,1.6362 c -1.2057,-2.7892 -1.8905,-7.339 -1.9614,-13.0811 0,-5.9 0.1005,-6.2007 2.5005,-6.2007 1.3,0 2.8003,0.8007 3.3003,1.7007 0.5,1 0.6988,6.2001 0.2988,11.6001 -0.2467,3.7819 -0.4122,6.0389 -0.6358,7.3667 l 11.9429,1.4942 c -0.2538,-1.0058 -0.5497,-2.8078 -1.0063,-5.6617 -1.7,-10.7999 -1.7004,-15.8991 0.1,-20.0991 2.5,-6 3.4995,-3.0999 3.4995,10.1001 0,4.9178 -0.2498,9.4355 -0.6299,12.3487 l 0.9185,-3.7925 3.7514,-8.1724 c -0.1125,0.072 -0.2259,0.1157 -0.3398,0.1157 -1.2,0 -0.2991,-26.0997 0.9009,-28.1997 1.3,-2 2.1998,2.7005 2.2998,11.5005 0.044,3.7393 -0.259,7.4153 -0.7471,10.3916 l 0.561,-2.6953 4.2627,-10.188 c -0.3385,0.6951 -0.6735,1.1909 -0.977,1.1909 -2.1,0 -2.6006,-17.4001 -0.6006,-22.1001 0.7,-1.9 1.6006,-4.2994 2.1006,-5.3994 l 0.7002,-2.001 0.7998,2.001 c 0.5,1.1 0.8994,5.2999 0.8994,9.3999 0.042,2.9615 -0.3743,6.6286 -0.9771,9.9068 l 1.0357,-4.1924 5.3745,-11.6851 5.5737,-14.0361 c -1.5657,3.4317 -2.0174,3.4281 -2.4067,1.8061 -1,-3.8 0,-21.8992 1.5,-28.6992 1.5,-6.4 2.501,-5.2007 3.501,4.2993 1,9.3 1.6996,5.9009 1.5996,-8.0991 -0.2,-14.2 0.8006,-19.8007 2.1006,-12.2007 0.4,2.5 1.2999,7.2 1.8999,10.5 0.5992,2.8251 0.9562,5.7723 0.9902,7.2803 l 0.5493,-1.5117 7.1865,0.2798 c 0.016,-1.306 -0.013,-2.6284 -0.1259,-4.0489 -2.2,-25.9999 -3.8001,-33.9 -7.1001,-36 -2.1,-1.4 -19.1004,-4.099 -43.8003,-6.999 -7.6,-0.9 -19.9996,-2.9 -27.4995,-4.5 -7.6,-1.6 -20.3008,-4.3004 -28.3008,-5.9004 -18,-3.8 -20.9005,-3.8995 -25.0005,-0.4995 -7.5,6.4 -22.1991,35.7 -39.999,79.8999 -2.9,7.1 -6.7997,16.1003 -8.6997,19.8003 z m 58.4473,-101.0552 c 1.675,0.037 4.5494,0.8128 9.8994,2.3628 20.9999,6.1 53.1999,11.6004 78.3999,13.4004 20.8,1.5 21.4995,2.1995 15.4995,13.9995 -3.9,7.8 -9.3991,24.4007 -20.499,62.1006 -4.5,15.1 -8.5,28.1995 -9,28.9995 -1,1.8 -4.7,1.5999 -13.8999,-1.1001 -7.1,-2 -85.1001,-15.3003 -99,-16.8003 -4.6,-0.5 -8.6004,-1.0989 -8.9004,-1.3989 -0.3,-0.3 1.7,-5.4009 4.5,-11.4009 2.7,-5.9 8.6993,-19.6003 13.2993,-30.3003 4.6,-10.6999 12.3002,-27.6 17.2002,-37.5 4.9,-9.8999 9.2998,-18.9998 9.7998,-20.2998 0.55,-1.4 1.0262,-2.1 2.7012,-2.0625 z" />
      <path
         d="m 1186.3012,1079.1488 c -0.8,1.8 -2.3,6 -3.2,9.3 -1,3.3 -3.7,11 -6.1,17.2 -2.4,6.1 -4.4,11.7 -4.4,12.4 0,3.1 4.7,-3.5 9.6,-13.6 5.8,-12.1 8.5,-19.6 8.7,-24.7 0.3,-4.6 -2.5,-4.9 -4.6,-0.6 z"
         id="path190"
         style="fill:#000000;stroke:none;stroke-width:0.1" />
      <path
         d="m 1209.1012,1088.9488 c -0.8,2.4 -0.2,5.4 3.2,17.8 2.9,10.5 2.7,10.9 -4.1,14.4 -8.9,4.5 -22.6,14.8 -22.6,17 0,2.1 5.3,0.3 16.5,-5.7 6.8,-3.6 13.1,-6.5 14.2,-6.5 1.3,0 2.7,1.7 4.6,5.9 2.5,5.5 10.3,14.1 12.7,14.1 3.2,0 1.3,-10.5 -3.6,-20.2 -1.4,-2.7 -2.3,-5.6 -2.1,-6.3 0.3,-0.7 4.5,-3.6 9.4,-6.5 13.6,-8.1 19.3,-12.7 19.3,-15.4 0,-5.3 -6.6,-3.5 -17.9,4.9 -8.4,6.2 -14.2,8.8 -15.8,7.2 -0.7,-0.7 -2.6,-5 -4.3,-9.7 -2.8,-7.7 -6.1,-13 -8.1,-13 -0.4,0 -1.1,0.9 -1.4,2 z"
         id="path192"
         style="fill:#000000;stroke:none;stroke-width:0.1" />
    </g>
  </g>
</svg>
