<?xml version="1.0" encoding="UTF-8" standalone="no"?>
<!-- Created with Inkscape (http://www.inkscape.org/) -->

<svg
   width="64.832947mm"
   height="56.14016mm"
   viewBox="0 0 64.832947 56.140161"
   version="1.1"
   id="svg1397"
   inkscape:version="1.2.2 (b0a8486541, 2022-12-01)"
   sodipodi:docname="commaButton.svg"
   xmlns:inkscape="http://www.inkscape.org/namespaces/inkscape"
   xmlns:sodipodi="http://sodipodi.sourceforge.net/DTD/sodipodi-0.dtd"
   xmlns="http://www.w3.org/2000/svg"
   xmlns:svg="http://www.w3.org/2000/svg">
  <sodipodi:namedview
     id="namedview1399"
     pagecolor="#ffffff"
     bordercolor="#000000"
     borderopacity="0.25"
     inkscape:showpageshadow="2"
     inkscape:pageopacity="0.0"
     inkscape:pagecheckerboard="0"
     inkscape:deskcolor="#d1d1d1"
     inkscape:document-units="mm"
     showgrid="false"
     inkscape:zoom="0.914906"
     inkscape:cx="162.85826"
     inkscape:cy="-132.25402"
     inkscape:window-width="1452"
     inkscape:window-height="1205"
     inkscape:window-x="26"
     inkscape:window-y="23"
     inkscape:window-maximized="0"
     inkscape:current-layer="layer1" />
  <defs
     id="defs1394" />
  <g
     inkscape:label="Layer 1"
     inkscape:groupmode="layer"
     id="layer1"
     transform="translate(-199.52527,-122.51126)">
    <path
       id="path2682"
       style="fill:#000000;stroke:none;stroke-width:0.0352778"
       d="m 264.34301,144.1928 c 0.0557,-1.4181 -0.044,-3.05269 -0.25941,-5.26017 -0.59972,-5.67972 -1.0234,-7.83159 -1.76424,-8.74881 -0.70555,-0.88195 -4.16265,-1.51691 -14.8518,-2.78691 -3.38667,-0.38806 -8.4665,-1.19966 -11.28872,-1.79938 -16.4747,-3.4925 -16.15729,-3.45737 -17.70951,-2.6107 -0.49389,0.28222 -1.58743,1.51719 -2.39882,2.71664 -2.29305,3.45722 -7.76132,14.85191 -11.32437,23.56548 -1.76389,4.37445 -3.6689,8.81948 -4.23334,9.91309 l -0.98753,1.97559 0.28215,5.15059 c 0.0999,1.93241 0.202,3.19405 0.33538,4.12327 1.85234,0.28621 2.91683,0.44979 3.78891,0.58755 -0.31783,-1.15644 -0.84295,-7.0406 -0.66714,-7.49773 0.38806,-1.02305 1.34039,-0.31781 1.76372,1.26969 0.21167,0.88194 0.42374,2.75209 0.42374,4.12792 0.0206,1.3795 0.001,2.01489 -0.14159,2.31408 0.28452,0.0453 1.90326,0.29443 1.96474,0.30438 -0.75865,-0.53831 -1.08262,-1.9666 -1.08262,-4.73513 0,-3.10444 0.17632,-3.4926 1.34049,-2.75177 0.49388,0.28222 1.09385,3.81014 1.12912,6.31486 0,0.72517 -0.0228,1.10145 -0.14469,1.28521 l 1.08417,0.0393 c -0.21787,-0.38999 -0.23409,-1.26308 -0.23409,-3.54707 0,-3.66889 3.1e-4,-3.70417 0.84697,-3.70417 0.49389,0 1.12855,0.24681 1.41077,0.56431 0.56444,0.56444 0.63497,1.05829 0.67025,4.90357 0,0.92368 -0.0479,1.51684 -0.22014,1.87329 l 0.30695,0.0113 1.61179,0.19533 c -0.34128,-0.36654 -0.39326,-1.1067 -0.39326,-3.49127 0,-3.06913 0.0705,-3.35121 0.67025,-3.35121 0.38805,0 0.91756,0.10605 1.23506,0.21188 0.45861,0.17639 0.56431,0.84667 0.56431,3.70417 0,1.7648 -0.0338,2.74482 -0.24133,3.206 l 1.76734,0.35349 c -0.32687,-0.24053 -0.56973,-0.54243 -0.64441,-0.87852 -0.10583,-0.42334 -0.0348,-1.83434 0.14159,-3.06907 0.21167,-1.27 0.38758,-2.39917 0.38758,-2.57556 0,-0.49388 2.08152,-0.24662 2.61069,0.31782 0.42333,0.42334 0.56431,1.26965 0.56431,3.52743 0,1.97626 -0.023,2.63179 -0.31006,2.91352 l 1.28157,0.0496 c -0.26385,-0.51361 -0.22898,-1.37537 -0.0894,-2.96315 0.14111,-1.5875 0.3174,-2.96295 0.42323,-3.13934 0.21167,-0.35277 1.23479,-0.31778 1.83452,0.0703 0.56444,0.35277 1.05833,2.85736 1.05833,5.46788 l 0.0238,1.15136 1.72547,0.42167 c -0.0804,-0.19653 -0.13394,-0.312 -0.26768,-0.69091 -0.42334,-1.23473 -0.52913,-5.36212 -0.14108,-5.7149 0.3175,-0.35278 1.30549,-0.31778 2.32854,0.0703 0.74084,0.28222 0.88201,0.70601 1.30535,3.45768 0.52916,3.63361 1.12882,3.13937 0.81132,-0.70591 -0.21167,-2.29306 -0.17666,-2.36368 0.59945,-2.36368 1.65805,0 2.11666,0.91725 2.11666,4.09225 0,1.35647 -0.0992,2.52963 -0.23461,2.94351 l 0.0357,0.005 1.25005,0.32039 0.21911,-2.88047 c 0.10583,-1.79916 0.28226,-3.35103 0.38809,-3.52742 0.21167,-0.35278 0.63507,-0.31796 3.42201,0.24648 1.34056,0.28223 2.53986,0.63546 2.68097,0.81185 0.31594,0.35105 1.08463,6.73502 0.88367,7.18044 l 1.55598,0.61754 c -0.40694,-0.70062 -0.67598,-2.03066 -0.85215,-4.27055 l -0.24701,-3.06906 h 0.88212 c 0.45861,0 1.05854,0.2118 1.2702,0.49403 0.49149,0.58363 0.20683,5.92448 -0.27078,7.15666 l 0.0295,0.0113 4.43074,0.55396 c -0.16135,-0.55679 -0.39743,-2.01965 -0.59118,-3.7357 -0.38806,-3.56306 -0.38809,-4.09205 0.14107,-5.46788 0.77612,-1.905 1.23442,-1.905 1.26969,0 0.0353,0.84667 0.10618,2.53958 0.17674,3.80958 0.0496,0.79368 0.013,1.72437 -0.0724,2.60089 l 1.34566,-2.93007 -0.25063,-1.18752 c -0.24695,-1.30528 -0.0349,-5.3975 0.42374,-7.9375 0.38806,-2.2225 0.81146,-0.38813 0.77618,3.45715 0,1.0384 -0.0407,1.96099 -0.10645,2.7425 l 1.44591,-3.45564 c -0.10206,0.0538 -0.19823,-0.008 -0.28113,-0.23925 -0.14111,-0.38806 -0.38819,-1.83445 -0.49402,-3.175 -0.21167,-2.08139 -0.14111,-2.82226 0.52916,-4.62143 0.42334,-1.19944 0.91709,-2.08142 1.09348,-1.97559 0.17639,0.10584 0.31729,1.62299 0.31729,3.38688 0,1.03586 -0.0855,2.11201 -0.21187,3.10265 l 0.11576,-0.46818 1.59421,-3.46593 -0.19275,-0.82684 c -0.38806,-1.65806 -0.45834,-7.69073 -0.0703,-8.29046 0.49389,-0.77611 0.81132,0.91758 0.81132,4.41008 0,1.55222 -0.1059,3.28066 -0.24702,3.88038 l -0.0816,0.34935 0.0822,-0.17829 1.96577,-4.94958 c -0.27077,0.56812 -0.47791,0.95409 -0.51986,0.89814 -0.635,-0.635 0.28198,-12.52379 0.98754,-12.52379 0.14111,0 0.38805,1.19945 0.52916,2.64583 0.14111,1.69334 0.35302,2.57507 0.59997,2.43396 0.24694,-0.14111 0.28232,-1.55187 0.10593,-4.05659 -0.24694,-4.02167 -1.4e-4,-6.45576 0.56431,-5.57382 0.17639,0.28222 0.31729,0.95211 0.31729,1.55183 0,0.56445 0.24732,2.08175 0.56482,3.35175 l 0.4346,1.88309 z m -43.81903,-19.21281 c 0.52035,0.0353 1.38487,0.30025 2.99,0.82942 2.99861,0.9525 13.0882,3.06913 18.48569,3.84524 1.94028,0.28222 5.89133,0.70559 8.74883,0.91726 2.96333,0.21166 5.75038,0.56409 6.45593,0.88159 1.44639,0.59972 1.44635,0.74118 -0.38809,4.41007 -1.34055,2.68111 -3.24559,8.46635 -7.26726,22.04826 -1.58749,5.43278 -3.03389,10.01885 -3.175,10.19524 -0.1411,0.14111 -1.94045,-0.14107 -4.05711,-0.67024 -5.32694,-1.34056 -34.07813,-6.13798 -36.8298,-6.17326 -2.18721,-0.0353 -2.22277,-0.24712 -0.45888,-4.05712 0.88194,-1.94028 3.06927,-6.94972 4.86843,-11.1125 2.71639,-6.27944 8.32539,-18.13253 9.70122,-20.5667 0.22931,-0.38805 0.4057,-0.58254 0.92604,-0.54726 z" />
    <path
       d="m 221.609,129.44288 c -0.59972,0.67027 -4.16278,8.32555 -4.83305,10.40694 -0.21167,0.74083 -0.35278,1.44639 -0.24695,1.51694 0.38806,0.38806 6.24417,-10.37166 6.24417,-11.50055 0,-0.9525 -0.52917,-1.12889 -1.16417,-0.42333 z"
       id="path228"
       style="fill:#000000;stroke:none;stroke-width:0.0352778" />
    <path
       d="m 237.94261,170.85899 c 0,0.45861 0.24695,1.5875 0.49389,2.57527 l 0.49389,1.76389 0.0353,-2.01083 c 0.0353,-2.11667 -0.17639,-3.10444 -0.70556,-3.10444 -0.17639,0 -0.3175,0.35277 -0.3175,0.77611 z"
       id="path232"
       style="fill:#000000;stroke:none;stroke-width:0.0352778" />
    <ellipse
       style="fill:#000000;stroke-width:0.264583"
       id="path420"
       cx="229.25591"
       cy="152.72263"
       rx="2.8116419"
       ry="2.8701723" />
  </g>
</svg>
