<?xml version="1.0" encoding="UTF-8" standalone="no"?>
<!-- Created with Inkscape (http://www.inkscape.org/) -->

<svg
   width="64.777412mm"
   height="55.880814mm"
   viewBox="0 0 64.777413 55.880815"
   version="1.1"
   id="svg1397"
   inkscape:version="1.2.1 (9c6d41e410, 2022-07-14)"
   sodipodi:docname="plusButton.svg"
   xmlns:inkscape="http://www.inkscape.org/namespaces/inkscape"
   xmlns:sodipodi="http://sodipodi.sourceforge.net/DTD/sodipodi-0.dtd"
   xmlns="http://www.w3.org/2000/svg"
   xmlns:svg="http://www.w3.org/2000/svg">
  <sodipodi:namedview
     id="namedview1399"
     pagecolor="#ffffff"
     bordercolor="#000000"
     borderopacity="0.25"
     inkscape:showpageshadow="2"
     inkscape:pageopacity="0.0"
     inkscape:pagecheckerboard="0"
     inkscape:deskcolor="#d1d1d1"
     inkscape:document-units="mm"
     showgrid="false"
     inkscape:zoom="0.64693624"
     inkscape:cx="-632.21068"
     inkscape:cy="-226.45199"
     inkscape:window-width="1350"
     inkscape:window-height="1230"
     inkscape:window-x="848"
     inkscape:window-y="53"
     inkscape:window-maximized="0"
     inkscape:current-layer="layer1" />
  <defs
     id="defs1394" />
  <g
     inkscape:label="Layer 1"
     inkscape:groupmode="layer"
     id="layer1"
     transform="translate(-225.91982,-182.64544)">
    <g
       id="g2820"
       transform="matrix(0.35277777,0,0,0.35277777,-121.3551,-314.45957)">
      <path
         id="path242"
         style="fill:#000000;stroke:none;stroke-width:0.1"
         d="m 1098.2417,1561.7783 c -1.0893,-1.7823 -1.7097,-4.7877 -2.1401,-9.6299 -0.4,-4.5 -1.1,-8.3997 -1.5,-8.6997 -1.7,-1.1 -1.9003,2.8995 -0.3003,9.4995 1.1176,4.6382 1.4199,7.0253 0.4599,8.0567 z" />
      <path
         id="path2813"
         style="fill:#000000;stroke:none;stroke-width:0.1"
         d="m 1168.0078,1469.8154 c 0.1127,-4.3625 -0.4379,-9.2905 -1.3066,-16.8662 -2.3,-20.5 -3.4004,-23.5009 -8.9004,-24.9009 -4.2,-1.1 -20.8002,-3.4001 -39.7002,-5.6001 -15,-1.8 -16.1988,-2.0001 -47.1987,-8.6001 -25.5,-5.4 -29.4013,-5.7996 -33.8013,-3.0996 -6.4,3.9 -20.5991,31.4003 -36.999,71.2002 -5.3,12.9 -11.00023,26.2005 -12.70023,29.5005 l -3,6 0.60058,14.7993 c 0.20506,4.9726 0.4708,8.9137 0.87159,12.0264 5.07662,0.7856 8.52264,1.3135 10.81201,1.6758 -0.75509,-1.8591 -1.19246,-5.2455 -1.58496,-11.3013 -0.6,-9.3 -0.49873,-10.7007 0.80127,-10.7007 0.89999,0 2.29961,1.0002 3.0996,2.2002 1.82774,2.5755 2.20074,15.886 1.07224,20.3277 0.6763,0.1078 4.6992,0.7268 4.8882,0.7573 -0.9563,-1.1878 -1.297,-3.9816 -1.56,-11.0845 -0.3,-8.9 -0.1007,-10.2012 1.2993,-10.2012 0.9,0 2.0997,0.6008 2.6997,1.3008 1.2,1.4 3.3005,18.3994 2.5005,20.3994 -4e-4,0 0,0 0,0 l 2.1768,0.079 -0.2754,-8.1812 c -0.2,-4.9 -0.1008,-9.5008 0.1992,-10.3008 0.8,-2.1 5.3005,-1.4991 7.0005,0.9009 1.1,1.6 1.5996,4.6996 1.5996,10.5996 v 7.3579 l 4.6157,0.5596 c -1.2238,-1.5568 -1.6157,-4.7358 -1.6157,-10.6172 v -8.1006 h 2.9004 c 1.7,0 3.2998,0.5997 3.7998,1.1997 0.4,0.7 0.7998,5.2005 0.7998,10.0005 v 8.5122 l 3.1435,0.6285 c -0.5037,-0.8987 -0.643,-2.2548 -0.643,-4.3404 0,-2.6 0.3006,-6.7999 0.6006,-9.3999 l 0.7002,-4.7007 4.0986,0.3003 4.1001,0.3003 0.3003,9.7002 0.2739,8.9282 3.2227,0.1231 c -0.2233,-0.9953 -0.2959,-2.307 -0.2959,-4.1514 0,-9.7 0.8995,-13.1001 3.4995,-13.1001 1.2,0 2.7003,0.5997 3.3003,1.1997 1.1,1.3 1.6997,4.4 2.6997,13.5 l 0.5127,4.5191 4.1616,1.018 c -0.059,-0.079 -0.1266,-0.1554 -0.1743,-0.2373 -1.4,-2.6 -2.3996,-12.2995 -1.5996,-15.4995 0.7,-2.6 0.9992,-2.7002 4.6992,-2.2002 2.3,0.3 4.3,0.7005 4.5,1.0005 0.2,0.2 1.0011,4.099 1.6011,8.499 0.7,4.5 1.5991,8.2002 2.0991,8.2002 0.6,0 0.801,-3.3995 0.501,-7.9995 l -0.501,-8.001 h 2.6997 c 1.4,0 3.1013,0.5012 3.8013,1.2012 1.2174,1.2175 1.5997,14.2107 0.8247,18.1099 l 4.5205,1.1587 c -0.4836,-1.3876 -0.4703,-3.5558 -0.3457,-7.169 0.4,-11.6 0.3991,-11.6999 6.5991,-10.8999 2.8,0.4 6.7012,1.0996 8.7012,1.5996 l 3.5991,1.0005 1.1001,8.2002 c 1.1623,8.1361 1.4822,11.1265 0.706,12.2066 l 4.8765,1.9365 c -1.4441,-2.3752 -2.3818,-7.1184 -2.3818,-12.8438 v -7.5996 l 2.7993,0.3003 2.6997,0.2988 0.3003,10.7007 c 0.1295,6.0212 0.087,8.7487 -0.3091,9.9405 l 11.4609,1.4326 c -0.069,-1.1914 -0.6944,-5.8668 -1.4516,-11.0728 -1.2,-9.4 -1.1994,-10.3005 0.6006,-14.5005 2.9,-6.5 3.8998,-3.7995 3.7998,10.0005 0,2.3155 -0.061,4.2911 -0.1509,6.0996 l 3.6284,-7.9013 c -0.224,-1.407 -0.3779,-3.8315 -0.3779,-7.1983 0,-10.8 0.8995,-20.001 1.9995,-20.001 0.4,0 1.0008,4.5005 1.3008,10.0005 0.14,2.6882 0.1593,5.1201 0.086,7.3184 l 2.8374,-6.7822 c -0.3234,-1.2819 -0.6895,-3.5011 -1.2246,-7.336 -1,-7.8 -0.9988,-8.8008 1.2012,-14.8008 1.2,-3.5 2.6,-6.3999 3,-6.3999 0.3,0 0.8993,3.8009 1.2993,8.4009 0.1883,2.2329 0.3086,3.895 0.3266,5.3775 l 3.5479,-7.7139 c -1.1608,-3.9648 -1.9423,-20.2954 -0.7749,-23.4639 1.5,-3.9 2.4009,0.4002 2.4009,11.2002 0,3.437 -0.1205,6.6511 -0.3047,9.0718 l 3.7661,-9.4849 c -0.2716,-1.5453 -0.4614,-4.8648 -0.4614,-9.9873 0,-10.7 0.5997,-15.3994 2.6997,-23.3994 l 0.6006,-2.5005 0.6987,3 c 0.4,1.6 0.8009,4.8005 0.9009,7.0005 0.1,2.2 0.6001,4.699 1.1001,5.499 0.8,1.1 0.9994,-1.6 0.8994,-9 -0.1,-15.6999 9e-4,-18.999 0.9009,-18.999 0.5,0 1.4987,3.7002 2.1987,8.2002 0.8075,4.9223 1.25,8.3004 1.2056,11.3467 z m -124.4062,-53.8667 c 1,0 3.5989,0.7 5.8989,1.5 6,2.1 33.4011,8.1 48.1011,10.5 6.9,1.1 20.4,2.6999 30,3.3999 17.9999,1.5 22.9995,2.7001 22.9995,5.6001 0,0.9 -1.7994,5.2998 -3.8994,9.7998 -4.5,9.1 -10.1006,26.1 -21.6006,64.8999 -9,30.2 -7.0005,27.8003 -20.5005,24.3003 -8.2,-2.2 -77.6,-14.1005 -93,-16.0005 -15.09997,-1.9 -15.99904,-1.9996 -15.99904,-3.0996 0,-0.6 1.59913,-4.4997 3.59912,-8.6997 2.00002,-4.2 7.60102,-17.0004 12.50102,-28.4004 13.1999,-30.7999 29.6999,-63.7998 31.8999,-63.7998 z" />
      <path
         d="m 1042.8012,1429.3488 c -1,1.4 -4.9,10.4 -8.6,20.1 -7.7,20.1 -8.8,23.5 -7.6,23.5 1.1,0 5.2,-5.4 7.4,-9.7 3.3,-6.5 13.6,-32.6 13.6,-34.4 0,-2.7 -2.5,-2.4 -4.8,0.5 z"
         id="path244"
         style="fill:#000000;stroke:none;stroke-width:0.1" />
      <path
         d="m 1085.8012,1447.6488 c -1.9,0.7 -5.2,6.5 -9.7,16.6 -2.1,4.9 -4.6,9.2 -5.4,9.6 -0.9,0.5 -6,0.2 -11.5,-0.6 -10.8,-1.6 -14.6,-0.9 -14.6,2.6 0,2.6 5,4.8 12.8,5.7 4,0.4 6.6,1.2 6.9,2.1 0.3,0.7 -0.7,4.1 -2.2,7.5 -7.6,16.8 0.2,17 10,0.2 4.5,-7.6 5.8,-8.2 16.4,-6.5 10.3,1.5 14.6,1.4 16.1,-0.5 2.3,-2.6 -0.8,-4.3 -12,-6.5 -5.8,-1.1 -10.8,-2.3 -11.2,-2.7 -0.5,-0.5 1,-4.5 3.2,-9 5,-10.5 6.5,-15.9 4.9,-17.8 -1.2,-1.5 -1.6,-1.6 -3.7,-0.7 z"
         id="path246"
         style="fill:#000000;stroke:none;stroke-width:0.1" />
    </g>
  </g>
</svg>
