<?xml version="1.0" encoding="UTF-8" standalone="no"?>
<!-- Created with Inkscape (http://www.inkscape.org/) -->

<svg
   width="64.547997mm"
   height="55.825867mm"
   viewBox="0 0 64.547997 55.825868"
   version="1.1"
   id="svg1397"
   inkscape:version="1.2.1 (9c6d41e410, 2022-07-14)"
   sodipodi:docname="subButton.svg"
   xmlns:inkscape="http://www.inkscape.org/namespaces/inkscape"
   xmlns:sodipodi="http://sodipodi.sourceforge.net/DTD/sodipodi-0.dtd"
   xmlns="http://www.w3.org/2000/svg"
   xmlns:svg="http://www.w3.org/2000/svg">
  <sodipodi:namedview
     id="namedview1399"
     pagecolor="#ffffff"
     bordercolor="#000000"
     borderopacity="0.25"
     inkscape:showpageshadow="2"
     inkscape:pageopacity="0.0"
     inkscape:pagecheckerboard="0"
     inkscape:deskcolor="#d1d1d1"
     inkscape:document-units="mm"
     showgrid="false"
     inkscape:zoom="0.64693624"
     inkscape:cx="-508.55089"
     inkscape:cy="-118.24967"
     inkscape:window-width="1350"
     inkscape:window-height="1230"
     inkscape:window-x="848"
     inkscape:window-y="53"
     inkscape:window-maximized="0"
     inkscape:current-layer="layer1" />
  <defs
     id="defs1394" />
  <g
     inkscape:label="Layer 1"
     inkscape:groupmode="layer"
     id="layer1"
     transform="translate(-193.53635,-154.03972)">
    <g
       id="g2322"
       transform="matrix(0.35277777,0,0,0.35277777,-180.09097,-280.67645)">
      <path
         id="path212"
         style="fill:#000000;stroke:none;stroke-width:0.1"
         d="m 1172.1899,1384.6729 c -1.0287,-1.7552 -1.6238,-4.6358 -1.9892,-9.1246 -0.8,-8.8 -1.3993,-10.6998 -2.7993,-8.2998 -0.5,1.1 -0.2998,3.7996 0.7002,7.5996 1.2798,4.9772 1.7794,7.8009 1.0415,9.148 z" />
      <path
         id="path2315"
         style="fill:#000000;stroke:none;stroke-width:0.1"
         d="m 1242.0718,1292.8213 c -0.2906,-10.576 -3.1576,-34.4321 -4.8706,-37.7725 -0.9,-1.6 -2.4003,-3.1995 -3.3003,-3.4995 -2.3,-0.7 -12.2998,-2.2001 -27.7998,-4.1001 -26.7,-3.4 -34,-4.601 -57,-9.501 -28.5,-6.1 -33.8992,-6.7989 -37.6992,-4.3989 -5.7,3.7 -21.0003,31.7995 -32.2002,59.3994 -3.3,8 -9.1005,21.6996 -13.0005,30.4995 l -7.1001,16.0005 0.3003,15.4995 c 0.1379,5.7455 0.3081,9.4899 0.5757,12.2842 4.9576,0.7665 7.9255,1.2227 10.3212,1.6011 -0.5127,-1.8578 -0.7914,-5.3016 -1.1967,-11.6851 -0.6,-8.7 -0.5002,-10.1997 0.7998,-10.1997 0.8,0 2.0993,0.6996 2.7993,1.5996 0.9,1.1 1.5007,5.3 1.7007,12 0.201,4.9748 0.275,7.5728 0.059,8.9297 0.6962,0.111 4.7275,0.7324 4.9277,0.7647 -0.1289,-0.1322 -0.2562,-0.2457 -0.3867,-0.3941 -1.4,-1.6 -1.9002,-4.0005 -2.2002,-11.5005 -0.4,-8.8999 -0.2989,-9.3999 1.6011,-9.3999 1.1,0 2.4,0.6012 3,1.2012 1.2,1.6 3.3986,18.1998 2.5986,20.2998 -0.03,0.08 -0.073,0.1335 -0.1069,0.2066 l 2.4668,0.089 c -0.6529,-1.1343 -0.7588,-3.2076 -0.7588,-8.2969 0,-4.6 0.2991,-9.099 0.5991,-9.999 1,-2.5 5.6001,-1.5 7.1001,1.5 0.7,1.4 1.3008,5.9997 1.3008,10.1997 0,3.879 -0.037,5.8127 -0.3941,6.8819 h 0.1319 l 4.3681,0.5288 c -0.2299,-0.2886 -0.4186,-0.5921 -0.5068,-0.9156 -0.3,-1.2 -0.5991,-5.699 -0.5991,-9.999 v -7.7007 h 2.8989 c 1.6,0 3.4005,0.6004 4.0005,1.4004 1.0709,1.2657 0.9071,15.5757 -0.1172,18.0864 l 3.8569,0.772 c -0.218,-0.542 -0.3387,-1.2513 -0.4394,-2.2588 -0.2,-1.9 -0.1,-6.2998 0.3003,-9.7998 l 0.7002,-6.3003 4.1001,0.3003 4.1997,0.3003 0.3003,9.5991 c 0.1348,4.8081 0.1422,7.5457 -0.419,9.0059 l 3.9155,0.1494 c -0.2239,-0.9956 -0.2973,-2.308 -0.2973,-4.1543 0,-9.7 0.8995,-13.1001 3.4995,-13.1001 1.2,0 2.7003,0.5997 3.3003,1.1997 1.1,1.3 1.6997,4.4 2.6997,13.5 l 0.4995,4.4121 4.0605,0.9917 c -1.7226,-3.5396 -2.7102,-13.2972 -1.4589,-16.604 0.6,-1.4 1.4996,-1.5997 4.5996,-1.1997 2.2,0.3 4.2004,0.7005 4.4004,1.0005 0.2,0.2 0.9996,4.099 1.5996,8.499 0.7,4.5 1.6006,8.2002 2.1006,8.2002 0.5,0 0.6995,-3.5995 0.4995,-7.9995 -0.3,-7.2 -0.1,-8.001 1.5,-8.001 1,0 2.6998,0.5005 3.7998,1.0005 1.7,0.9 1.8999,2.1996 1.8999,10.5996 v 7.6963 l 4.0415,1.0357 c -0.2709,-1.2383 -0.2269,-3.2297 -0.1421,-6.8321 0.4,-12.3999 0.3007,-12.3989 10.7007,-10.3989 3.2,0.7 6.4005,1.5991 7.0005,2.0991 1.1,0.8 3.3999,13.2003 3.3999,18.3003 0,0.8381 -0.098,1.4008 -0.3326,1.7857 l 4.5323,1.8003 c -1.3272,-2.4543 -2.2002,-7.0617 -2.2002,-12.586 0,-7.8 0.4004,-8.3994 4.4004,-6.8994 2.092,0.7845 2.3578,16.4518 0.8027,20.4624 l 12.0498,1.5059 c -0.3137,-0.9328 -0.6553,-3.0733 -1.2524,-7.0694 -1.7,-11.8999 -1.6005,-15.3989 0.4995,-19.3989 2.6,-5.1 3.4999,-2.3001 3.3999,10.8999 0,2.8393 -0.097,5.2867 -0.2403,7.4619 l 3.8716,-8.4331 c -0.313,-1.0294 -0.5317,-3.9404 -0.5317,-8.1299 0,-10.6999 0.901,-19.8999 2.001,-19.8999 0.4,0 0.9993,4.5005 1.2993,10.0005 0.1714,3.2917 0.1676,6.2112 0.022,8.7525 l 3.3398,-7.982 c -0.4447,-1.0596 -1.0293,-3.6252 -1.4619,-6.8701 -1.1,-7.6 -0.9995,-8.7996 1.0005,-15.0996 1.2,-3.7 2.5004,-6.8013 2.9004,-6.8013 0.4,0 1.1,3.5007 1.5,7.7007 0.2436,2.9239 0.3123,5.1985 0.1772,7.3491 l 3.8408,-8.351 c -1.2891,-2.2783 -2.2659,-20.7112 -1.018,-24.0982 1.5,-3.9 2.3994,0.4002 2.3994,11.2002 0,4.4098 -0.1959,8.4599 -0.4776,10.8574 l 4.043,-10.185 c -1.2216,-1.52 0.027,-27.2719 1.6348,-32.4727 l 1.5,-4.5 0.7002,6 c 1.4,11.9 2.0994,10.7002 2.3994,-3.7998 0.3,-14.9 1.4001,-18.9995 2.6001,-9.4995 0.4,2.9 1.2003,7.7999 1.8003,10.8999 0.2837,1.3928 0.4816,2.4469 0.5405,3.4717 z m -124.4707,-53.8726 c 1,0 3.6996,0.6996 6.0996,1.5996 14,5 51.6999,11.7999 76.8999,13.8999 19.5,1.6 24,2.7001 24,5.6001 0,1.1 -1.4999,5.0012 -3.3999,8.7012 -4.8,9.7 -7.4997,17.4998 -19.1997,56.6997 -5.8,19.2 -10.7998,35.2993 -11.2998,35.7993 -0.4,0.4 -5.2007,-0.4003 -10.7007,-1.8003 -10.5,-2.7 -87.1988,-15.7994 -101.1987,-17.3994 -4.6,-0.5 -8.6004,-1.2 -8.9004,-1.5 -0.4,-0.3 1.0996,-4.3004 3.0996,-8.9004 2.1,-4.5 8.1996,-18.3002 13.5996,-30.7002 14,-32.2999 28.9005,-61.9995 31.0005,-61.9995 z" />
      <path
         d="m 1120.4012,1247.7488 c -2.4,2.6 -3.9,5.9 -14.2,31.7 -9.7,24.5 -11.5,30.4 -7.5,25.5 5.7,-7.1 24.9,-50.2 24.9,-56 0,-2.7 -1.5,-3.2 -3.2,-1.2 z"
         id="path214"
         style="fill:#000000;stroke:none;stroke-width:0.1" />
      <path
         d="m 1117.9012,1291.4488 c -5.3,3.8 -0.6,7.1 12,8.5 9.1,1.1 44.6,1.4 47.1,0.4 2.1,-0.8 2,-3.1 -0.2,-4.3 -2.8,-1.5 -29.2,-4.9 -43.7,-5.6 -11.1,-0.6 -13.3,-0.4 -15.2,1 z"
         id="path216"
         style="fill:#000000;stroke:none;stroke-width:0.1" />
    </g>
  </g>
</svg>
