<?xml version="1.0" encoding="UTF-8" standalone="no"?>
<svg
   version="1.0"
   width="1323.4918pt"
   height="1583.5126pt"
   viewBox="0 0 1323.4918 1583.5126"
   preserveAspectRatio="xMidYMid"
   id="svg260"
   sodipodi:docname="testCalculator.svg"
   inkscape:version="1.2.1 (9c6d41e410, 2022-07-14)"
   xmlns:inkscape="http://www.inkscape.org/namespaces/inkscape"
   xmlns:sodipodi="http://sodipodi.sourceforge.net/DTD/sodipodi-0.dtd"
   xmlns="http://www.w3.org/2000/svg"
   xmlns:svg="http://www.w3.org/2000/svg">
  <defs
     id="defs264" />
  <sodipodi:namedview
     id="namedview262"
     pagecolor="#ffffff"
     bordercolor="#000000"
     borderopacity="0.25"
     inkscape:showpageshadow="2"
     inkscape:pageopacity="0.0"
     inkscape:pagecheckerboard="0"
     inkscape:deskcolor="#d1d1d1"
     inkscape:document-units="pt"
     showgrid="false"
     inkscape:zoom="1.0003519"
     inkscape:cx="1122.6049"
     inkscape:cy="686.25848"
     inkscape:window-width="1506"
     inkscape:window-height="1282"
     inkscape:window-x="26"
     inkscape:window-y="23"
     inkscape:window-maximized="0"
     inkscape:current-layer="svg260" />
  <path
     id="path2"
     style="fill:#000000;stroke:none;stroke-width:0.1"
     d="m 456.22852,0.03076172 c -6.80625,0.06874888 -11.5377,0.25654809 -12.8877,0.58154297 -3.4,0.89998561 -10.99973,4.09990201 -23.39941,9.79980431 -4,1.799984 -6.09932,5.70021 -7.29932,13.100098 -0.5,3.099952 -1.2999,23.399961 -1.8999,45.099609 -0.9,39.499354 -1.70098,51.500114 -6.50098,98.799314 -2.4,24.09968 -3.99951,45.80133 -6.49951,87.20069 -0.6,10.19984 -2.6,32.19934 -4.5,48.99902 -1.9,16.79968 -3.9,38.60114 -4.5,48.50098 -0.6,9.89984 -1.6002,19.59951 -2.2002,21.49951 -0.6,1.9 -2.9998,6.19951 -5.2998,9.49951 -6.09984,8.69984 -11.70065,18.80032 -20.50049,37.5 -4.29984,9.09984 -12.19918,25.70065 -17.49902,37.00049 -30.39952,64.19888 -88.70175,193.50096 -116.30127,258 -40.59936,94.9984 -63.70031,153.90159 -109.99951,280.99951 -26.899628,73.59846 -32.899638,89.70206 -58.699222,157.00046 -31.599504,82.3984 -45.700129,121.2016 -54.0000005,148.5 -5.09991842,16.9 -5.3001457,18.7998 -2.2001953,23.2998 2.49996,3.6 2.7002113,4.5008 3.7001953,25.3008 1.6999728,35.9 4.7991335,46.5003 17.8989255,60.3003 9.79984,10.2 20.800482,16.5 44.600098,25.5 15.999744,6 34.800969,11.4992 62.500489,18.1992 64.19904,15.7 98.20176,22.5011 205.5,40.9995 31.89952,5.5 69.00016,12.0009 82.5,14.4009 74.99872,13.6 107.90127,18.8001 214.99951,34.1001 36.59936,5.2 84.50032,12.0999 106.5,15.3999 39.09936,5.8 108.50064,14.9005 145.5,19.0005 10.19984,1.1 22.30016,2.6995 27,3.4995 10.39984,1.8 23.2001,1.8936 28.1001,0.1 2,-0.7 5.2001,-2.4994 7.1001,-3.8994 3.79984,-2.9 5.4,-3.3 6,-1.5 1,2.9 4.30035,-0.8999 8.20019,-9.3999 6.79984,-14.6 11.20026,-27.2998 19.1001,-54.7998 4,-14 10.29951,-33.801 13.99951,-44.001 3.7,-10.2 12.00099,-33.599 18.50099,-51.999 6.5,-18.4 17.4995,-49.5 24.4995,-69 16.2,-45.2 27.2991,-78.1023 54.5991,-162.2007 27.3,-84.1984 35.7009,-108.8023 66.9009,-194.80076 36,-99.1984 52.2,-146.80096 70.5,-207 4.8,-15.69968 11.8002,-38.39934 15.7002,-50.49902 3.8,-12.09984 7.3995,-23.60016 7.9995,-25.5 0.6,-1.9 5.3,-15.60007 10.5,-30.39991 14.5,-41.4992 26.2007,-82.20106 30.2007,-105.60058 2.9,-16.49984 3.7001,-24.10031 7.1001,-66.49951 12.7,-159.89744 14.1996,-176.10146 18.0996,-204.50098 4.9,-35.49936 4.8993,-54.29954 -0.2007,-78.19922 -1.1,-5.09984 -3.4994,-16.50094 -5.3994,-25.30078 -4.1,-20.09968 -5.6001,-23.79993 -16.1001,-42.09961 -9.8,-17.19968 -12.5003,-20.89918 -16.8003,-23.49902 -16.4,-10.10104 -187.5016,-50.400257 -307.49999,-72.399905 C 918.64211,48.907665 829.24041,34.311298 776.24121,26.711426 700.04249,15.811602 615.64091,7.1122247 538.24219,2.1123047 515.74251,0.68732728 476.64695,-0.17548508 456.22852,0.03076172 Z M 469.29199,15.786621 c 4.825,0 11.04987,0.274723 22.94971,0.824707 138.39776,6.099904 338.90332,34.001665 553.5,77.000977 55.7984,11.099835 96.201,20.299185 156.8994,35.499025 38,9.49984 49.1006,11.99996 62.1006,14.2998 l 4.5,0.79981 -0.1,4.8999 c 0,2.8 -1.2012,14.70065 -2.7012,26.50049 -5.4,43.5992 -10.4987,106.9008 -12.6987,160.5 -0.6,14.29968 -2.0011,38.00061 -3.1011,52.80029 -1.1,14.69984 -2.5995,36.30016 -3.4995,48 -0.8,11.59984 -1.8006,40.09954 -2.1006,63.19922 l -0.4995,42 -7.4004,22.00049 c -4,12.09984 -12.2999,38.59983 -18.3999,58.99951 -36.5,121.39808 -73.7014,223.40447 -147.7998,405.00146 -33.9,83.1984 -42.7993,107.0006 -65.7993,176.499 -22.69988,68.2 -46.50082,145.9015 -64.0005,208.8999 -3.59984,13 -8.10049,28.701 -10.00049,35.001 -1.89984,6.2 -3.3999,12.3988 -3.3999,13.7988 0,1.3 -0.7,3.9004 -1.5,5.9004 -1.9,4.7 -6.30045,6.4001 -18.30029,7.1001 -8.59984,0.5 -16.20051,-0.3992 -67.19971,-7.6992 -76.89872,-10.9 -97.70147,-14.501 -186,-32.001 -23.49968,-4.7 -68.10095,-12.899 -159.49951,-29.499 -101.6984,-18.5 -158.00144,-29.401 -243,-47.001 -34.29952,-7.1 -55.00106,-10.799 -113.6001,-20.499 -79.998684,-13.3 -113.999801,-20.3013 -119.699705,-24.8013 -2.799968,-2.2 -4.400277,-8.3997 -3.300293,-13.1997 0.799984,-4.1 0.399849,-4.0995 15.099609,-0.4995 17.199728,4.1 58.200605,11.8 120.099609,22.5 32.09952,5.6 81.40087,14.1005 109.40039,19.0005 59.69904,10.4 67.5001,11.5996 70.1001,10.5996 1.7,-0.7 1.70068,-0.8007 0.20068,-1.7007 -0.9,-0.5 -7.00123,-2.3993 -13.60107,-4.2993 -20.59968,-6 -61.80034,-14.1996 -135.19922,-27.0996 -20.59968,-3.6 -47.19967,-8.3 -58.99951,-10.5 -35.099468,-6.4 -81.200226,-14.001 -94.500002,-15.501 -10.19984,-1.2 -10.400132,-1.3998 -6.700196,-11.2998 1.499984,-4.2 1.699185,-4.3994 5.099121,-3.8994 1.999968,0.2 8.801171,1.7995 15.101075,3.4995 15.399744,4.1 47.400364,10.5006 100.999512,20.1006 24.49952,4.4 48.60049,8.899 53.50049,9.999 9.79984,2.2 15.99951,2.5997 16.99951,1.1997 0.9,-1.5 -3.09961,-4.7 -7.59961,-6 -10.99984,-3.3 -102.60181,-21.3996 -137.701172,-27.0996 -34.99944,-5.8 -42.199219,-7.3992 -42.199219,-9.1992 0,-0.6 1.499919,-4.9002 3.399903,-9.7002 1.899968,-4.7 6.299462,-16.2996 9.899414,-25.5996 3.599936,-9.4 17.101282,-43.9007 30.101074,-76.7007 28.599536,-72.4984 34.20054,-87.1023 67.8999,-176.80076 84.29872,-224.29648 132.90079,-340.50174 211.99951,-506.49902 32.79952,-68.99888 38.19971,-79.8002 41.69971,-83.2002 3.6,-3.7 3.30065,-3.70078 16.00049,0.19922 18.89968,5.69984 41.40369,10.00146 241.00049,45.50098 64.09885,11.39984 151.70032,27.50025 169.5,31.10009 8.29984,1.7 31.49944,6.79942 51.59912,11.39942 20.09968,4.59984 76.1008,16.50104 124.5,26.40088 48.29999,9.89984 102.10089,20.99912 119.40089,24.59912 31,6.59984 50.8999,9.19951 48.3999,6.49951 -1.8,-1.8 -15.3003,-5.49961 -39.3003,-10.59961 -11.9,-2.5 -39.4001,-9.1001 -61.1001,-14.6001 -95.99844,-24.19952 -156.20063,-37.89963 -222.49951,-50.79931 -87.69856,-17.09984 -155.40128,-29.10114 -229.5,-41.00098 -107.69824,-17.29968 -145.30146,-23.80016 -180.50098,-31.5 -10.99984,-2.3 -21.6001,-4.5999 -23.6001,-4.8999 -4.79984,-0.8 -7.79906,-3.09922 -6.19922,-4.69922 0.9,-0.9 3.20016,-0.69951 10.5,1.00049 5.1,1.1 20.10046,4.09873 33.3003,6.69873 20.79968,3.89984 56.69924,11.40127 68.89892,14.30127 5.3,1.3 7.9,-2e-4 4.5,-2.2002 -5.69984,-3.69984 -84.69973,-21.70068 -105.89941,-24.20068 -8.49984,-1 -10.99951,-2.2001 -10.99951,-5.6001 0,-4.5 3.8999,-26.19922 4.8999,-27.19922 0.5,-0.5 4.19922,-0.0999 9.19922,1.1001 4.59984,1.2 18.10055,4.19873 29.90039,6.69873 11.79984,2.6 24.6,5.50059 28.5,6.60059 7.29984,1.99984 13.60039,2.50048 11.90039,1.00048 -2,-1.89984 -24.10048,-8.40025 -49.5,-14.60009 -14.69984,-3.5 -27.40039,-6.8001 -28.40039,-7.1001 -1.4,-0.6 -1.6001,-1.50045 -1.1001,-4.80029 3.7,-25.29968 6.1001,-48.50139 10.1001,-99.60059 1.9,-24.49968 4.79951,-57.39895 6.49951,-73.09863 3.3,-31.99952 4.5,-51.2007 6,-96.399905 1.2,-34.299456 1.50006,-36.001236 7.8999,-40.201172 4.5,-2.999952 9.80075,-4.399821 20.10059,-5.299805 6.29984,-0.549984 9.72545,-0.824707 14.55029,-0.824707 z M 1292.959,177.34277 c 0.3703,0.275 0.8328,1.19356 1.3828,2.76856 0.8,2.2 2.0001,7.30088 2.6001,11.40088 0.8,5.69984 0.7997,12.40016 -0.3003,28.5 l -1.4004,21.09961 -1.1001,-18.50098 c -0.6,-10.19984 -1.4999,-23.99889 -1.8999,-30.69873 -0.675,-10.42484 -0.3932,-15.39434 0.7178,-14.56934 z m -7.2173,33.76905 c 0.6,0.3 0.8994,3.59947 0.8994,7.29931 -0.1,6.6 -0.199,6.60004 -0.999,2.2002 -1.1,-6.4 -1.1064,-10.19951 0.1,-9.49951 z m -7.9775,35.59277 c 0.8107,1.16484 2.09,17.75689 4.9775,62.90625 3.2,50.9992 5.3996,67.40023 7.5996,58.40039 0.4,-1.6 -5e-4,-23.10071 -1.0005,-47.90039 -2.4,-65.59888 -2.6996,-76.89951 -1.5996,-70.99951 1.4,7.69984 3,30.7009 3,42.60058 0,8.3 0.5002,12.09952 2.2002,16.99952 4,11.89968 3.5999,27.80053 -2.6001,102.89941 -0.4,3.8 -0.2005,5.00049 0.4995,4.00049 1.1,-1.7 0.3003,11.79967 -1.1997,18.49951 -0.4,2.2 -1.4994,18.40032 -2.3994,36 -1.8,35.99936 -4.9001,77.30071 -7.1001,94.40039 -1.7,13.29984 -4.3994,27.30039 -5.3994,28.40039 -0.3,0.4 -2.3004,-4.80049 -4.4004,-11.50049 -2,-6.79984 -5.5007,-17.49947 -7.7007,-23.79931 -6.9,-19.69968 -7.4996,-22.59997 -6.0996,-33.79981 0.6,-5.29984 1.5003,-13.70035 1.8003,-18.70019 0.4,-5.4 1.0004,-8.10049 1.4004,-7.00049 0.4,1.1 2.199,11.00065 3.999,22.00049 4.4,27.79952 7.2005,38.49902 10.0005,38.49902 1.8,0 1.1,-8.70028 -3,-36.7998 -8.6,-60.69904 -8.4002,-58.40048 -8.2002,-87 0.3,-42.49936 1.6007,-38.39875 7.7007,24.30029 5.5,55.79904 5.8996,58.09984 9.0996,54 1.3,-1.7 1.4994,-4.00016 0.8994,-15 -1.7,-35.29952 -6.5991,-97.50097 -9.5991,-124.00049 -2.1,-17.89968 -2.2011,-40.29932 -0.1011,-47.79932 0.7,-2.69984 12.3007,109.79991 12.2007,118.89991 0,2.19984 0.6004,4.9 1.4004,6 1.4,1.79984 1.4987,1.79935 2.1987,-1.00049 1.1,-4.4 -0.199,-29.70041 -3.999,-82.59961 -5,-66.79904 -5.0007,-67.49954 -9.2007,-87.19922 -0.5,-2.3 2.4008,-24.50045 4.3008,-33.30029 0.1,-0.425 0.2064,-0.57364 0.3223,-0.40723 z m -28.0972,317.81982 c 0.45,0.4625 0.9252,2.28741 1.0752,5.08741 0.3,4.99984 0.1,5.69902 -1.0005,3.99902 -0.5,-0.8 -1.0005,-3.5 -1.0005,-6 0.05,-2.65 0.4758,-3.54893 0.9258,-3.08643 z m -4.2774,16.72559 c 0.3141,0.30469 0.6018,1.21172 1.0518,2.26172 1,2.4 1.2998,4.99951 0.7998,7.99951 -0.6,4.1 -8.7996,39.70042 -15.0996,65.6001 -2.7,11.09984 -4.2997,28.5 -2.6997,28.5 1.5,0 2.8999,-3.90032 6.3999,-18 3.7,-14.99984 15.8,-59.30039 16.5,-59.90039 0.7,-0.7 0.9998,0.001 3.7998,7.60107 l 2.5005,7.29932 -4.0005,13.70068 c -17.1,58.89904 -31.8999,111.69903 -31.8999,113.49903 0.1,0.89984 0.2994,0.90078 0.8994,-0.19922 1.6,-2.8 16.8006,-49.10064 27.6006,-84 5.9,-18.99968 10.9998,-34.90088 11.2998,-35.40088 0.2,-0.5 0.7993,-0.19942 1.2993,0.60058 0.9,1.7 -8.3989,34.80061 -23.8989,84.79981 -6.1,19.49968 -14.9007,48.30065 -19.7007,64.00049 -4.8,15.69968 -12.699,39.49967 -17.499,52.99951 -4.9,13.49968 -15.901,45.20032 -24.501,70.5 -26.9,78.69872 -42.2995,122.10207 -72.4995,203.50047 -26.1,70.0984 -41.4005,113.7027 -85.0005,241.9995 -36.49924,107.2984 -56.09989,163.0005 -57.39989,163.0005 -0.3,0 -0.29976,-3.6998 -0.0996,-8.2998 0.4,-6.9 0.2998,-7.8005 -0.7002,-5.5005 -1.69984,3.9 -2.3998,3.5005 -3.7998,-1.9995 l -1.1001,-4.8003 17.39942,-48 c 16.79968,-45.9984 36.79998,-103.2004 41.99998,-119.9004 2.9,-9.6 3.9012,-15.299 2.7012,-15.999 -1.2,-0.8 -3.201,3.3 -6.501,13.5 -4.6,14.1 -24.00034,65 -33.70018,88.5 -11.29984,27.4 -13.89948,33.8997 -19.29932,49.1997 -2.4,6.7 -5.00078,13.3993 -5.80078,14.7993 l -1.39893,2.6997 -2.10058,-5.6997 c -1.2,-3.1 -2.2002,-7.6997 -2.2002,-10.1997 0,-4.7 3.99977,-19.7998 12.09961,-45.7998 5.1,-16.2 10.90137,-38.4997 10.90137,-41.6997 0,-3.6 -1.80137,-1.5998 -4.90137,5.2002 -2.5,5.7 -12.89893,38.1995 -17.89893,55.9995 l -1.00048,3.4995 -0.0996,-3 c -0.1,-4.7 2.89957,-15.899 15.89941,-59.499 34.49952,-115.3984 59.19989,-189.2021 90.39989,-269.5005 15.2,-39.0984 14.7998,-38.2004 15.7998,-35.9004 0.7,1.7 5.2003,35.7 7.8003,58.5 1,8.9 0.901,10.0995 -0.999,15.4995 -2.8,7.6 -3.8003,11.6001 -3.3003,13.1001 0.9,2.5 2.3995,1.2003 4.9995,-4.1997 2,-4.1 2.9994,-5.2004 3.8994,-4.4004 1.3,1.1 1.7008,-0.099 2.8008,-10.0986 0.4,-3.8 3.1998,-14.001 5.2998,-20.001 0.3,-0.8 1.1007,0.701 1.7007,3.501 2.9,12.1 4.3,8.7 4.5,-10.5 0.1,-13.4 0.9996,-17.8004 6.0996,-31.4004 3.2,-8.3 4.2998,-10.0004 5.2998,-7.4004 1,3 2.1993,-0.9995 2.7993,-9.4995 0.9,-12.9 6.5,-34.7007 9,-34.7007 0.5,0 1.1,1.1997 1.5,2.6997 1.2,5.6 1.4012,6.0013 2.7012,3.8013 0.7,-1.2 1.1993,-6.8 1.2993,-13.5 0.1,-12 1.5999,-18.501 7.8999,-35.00097 3.3,-8.39984 4.001,-9.5999 5.001,-7.8999 0.5,0.7 1.7992,-3.10036 3.1992,-9.7002 2.7,-11.89984 9.9002,-35.00039 11.2002,-35.90039 0.5,-0.2 1.1,0.90049 1.5,2.50049 0.7,3.79984 2.6001,3.90068 2.6001,0.20068 0.2,-10.39984 2.3002,-23.70133 5.2002,-32.70117 l 3.3003,-9.99902 0.1992,4.99951 c 0.5,9.19984 1.4008,13.5 2.8008,13.5 0.7,0 1.5995,-0.80045 1.9995,-1.80029 0.9,-2.2 1.9995,-25.00002 3.4995,-70.69922 1.3,-41.09936 1.5002,-42.90048 9.7002,-64.5 3.1,-8 11.1008,-31.2013 17.8008,-51.50098 11.4,-34.19952 16.099,-49.50014 35.499,-114.99902 6.525,-22.27468 7.7063,-26.77588 8.6484,-25.86182 z m 19.752,40.36084 c 0.3,0 0.8001,0.40049 1.1001,1.00049 0.3,0.5 0.1001,1.00049 -0.3999,1.00049 -0.6,0 -1.1001,-0.50049 -1.1001,-1.00049 0,-0.6 0.1999,-1.00049 0.3999,-1.00049 z m -101.499,207.24463 c 1.1129,0.9748 1.8245,12.83137 1.9995,32.95605 0.1,15.09984 0,15.90016 -3,24 -1.6,4.6 -3.4013,8.69961 -3.8013,9.09961 -0.5,0.5 -0.6995,-11.40012 -0.4995,-26.2998 0.3,-27.39952 0.9003,-32.59967 4.8003,-39.49951 0.175,-0.3125 0.342,-0.39561 0.501,-0.25635 z m -13.2012,34.55566 c 0.4,-0.7 1.2007,10.10085 1.7007,24.20069 l 0.7998,25.5 -5.2998,14.49902 c -5.4,14.49984 -5.4004,14.50033 -5.9004,10.00049 -0.3,-2.5 -0.2064,-15.30032 0.1,-28.5 l 0.7002,-24 3.4995,-10.19971 c 2,-5.59984 3.9004,-10.80049 4.4004,-11.50049 z m -16.5996,45.39991 c 0.4,0.79984 0.9001,12.40006 1.1001,25.8999 l 0.3003,24.3999 -4.5,13.00049 c -4.2,12.39984 -4.4002,12.79951 -5.2002,9.49951 -0.4,-1.9 -0.5007,-14.80016 -0.2007,-28.5 l 0.4995,-24.99902 3.6006,-10.30078 c 2.4,-6.8 3.9004,-9.9 4.4004,-9 z m -17.8535,43.76074 c 1.3193,-0.82715 1.4912,5.97688 2.0537,24.53906 l 0.8994,27.00146 -3.7998,11.7993 c -2.8,8.6 -4,11.1998 -4.5,9.7998 -0.4,-1 -0.9005,-14.3993 -1.0005,-29.79929 -0.2,-27.69952 -0.1991,-27.80016 2.4009,-34.5 1.95,-5.1 3.1547,-8.34404 3.9463,-8.84033 z m -15.2461,41.23974 c 0.4,0.7 1.0996,10.49978 1.5996,21.79978 1.5,34.4 1.3992,36.201 -4.3008,56.001 -1.3,4.4 -1.6998,5.0995 -2.2998,3.4995 -0.4,-1.2 -0.9001,-17.3 -1.1001,-36 l -0.3999,-34.0005 2.9004,-6.30026 c 1.9,-4.1 3.2006,-5.89952 3.6006,-4.99952 z m -15.4043,34.92478 c 0.1781,0.175 0.3289,0.6259 0.5039,1.2759 0.5,1.6 1.2999,10.099 1.8999,18.999 0.5,8.8 1.4991,22.6998 2.0991,30.7998 0.6,8.1 0.801,16.0005 0.501,17.5005 -2.3,9.1 -6.8996,22.4006 -7.5996,21.6006 -0.5,-0.4 -1.4014,-8.8998 -1.9014,-18.7998 -0.6,-9.9 -1.7986,-25.3012 -2.5986,-34.2012 -0.8,-8.9 -1.2009,-17 -0.9009,-18 0.4,-1 2.1997,-6.0998 4.1997,-11.2998 2.475,-6.45 3.2625,-8.4 3.7969,-7.875 z M 20.39209,1332.9243 c 1.299984,-0.3375 4.499576,0.2874 8.749512,2.0874 1.999968,0.8 3.600586,2.0005 3.600586,2.5005 0,1.8 -6.300244,1.1991 -9.700196,-0.9009 -3.349936,-2.05 -3.949886,-3.3495 -2.649902,-3.687 z m 23.57373,6.2124 c 2.024968,-0.15 5.526432,0.3251 9.776368,1.4751 3.299936,0.9 3.999756,4.0005 0.799804,4.0005 -2.999952,0 -10.00052,-1.9007 -11.500488,-3.2007 -1.649968,-1.35 -1.100652,-2.1249 0.924316,-2.2749 z m 24.625489,4.6245 c 0.674984,-0.15 1.849641,-0.049 3.849609,0.2505 2.599952,0.3 6.200618,1.3994 8.100586,2.3994 4.59992,2.2 4.59992,3.6005 0,4.0005 -4.69992,0.4 -12.799805,-2.9994 -12.799805,-5.3994 0,-0.7 0.17461,-1.101 0.84961,-1.251 z m -45.09961,0.6006 c 0.575,0.05 1.549446,0.4003 3.149414,1.0503 2.199968,0.9 3.800586,1.8991 3.600586,2.0991 -0.999984,0.9 -7.5,-1.0994 -7.5,-2.3994 0,-0.55 0.175016,-0.8 0.75,-0.75 z m 76.962891,6.3369 c 2.3625,0.088 5.73662,0.5636 9.78662,1.4136 3.9,0.8 23.7013,4.3995 44.00098,7.9995 37.69936,6.7 82.50096,15.0992 147,27.5991 46.9992,9.1 113.20079,21.1009 195.49951,35.4009 81.59872,14.2 116.60063,20.5999 183.49951,33.3999 67.89885,13 91.50107,17.1993 126.60059,22.2993 l 28.8999,4.2012 v 4.2993 c 0,2.5 -0.5001,4.3008 -1.1001,4.3008 -0.6,0 -8.39996,-0.7 -17.2998,-1.5 -62.09904,-5.6 -80.6001,-6.7011 -80.6001,-4.6011 0,0.5 0.59932,1.2999 1.29932,1.8999 3.19984,2.7 51.10112,9.5998 88.00048,12.7998 8.7,0.7 12.7002,2.9005 12.7002,7.0005 0,3 -1.10065,2.9995 -14.50049,0.4995 -5.49984,-1.1 -18.79918,-3.1 -29.49902,-4.5 -35.59952,-4.7 -50.00098,-5.2995 -50.00098,-1.9995 0,1.7 3.50081,2.5003 28.00049,6.3003 11.29984,1.7 31.00045,4.9993 43.80029,7.2993 25.89968,4.6 25.39971,4.401 26.69971,12.501 l 0.70019,4.2993 h -3.50097 c -1.9,0 -22.50013,-2.7004 -45.79981,-5.9004 -70.89888,-10 -89.49973,-12.0991 -124.69922,-14.0991 -14.39968,-0.9 -20.10068,-0.9 -22.70068,0 -8.99984,3 -4.89958,4.4005 19.1001,7.0005 45.69917,4.8 117.50116,14.7989 150.20068,20.8989 11.39984,2.1 22.79893,4.2 25.39893,4.5 4.59984,0.7 6.20127,1.9004 8.30127,5.9004 1.4,2.9 3.49951,3.2998 3.49951,0.7998 0,-1.2 0.60039,-2.3997 1.40039,-2.6997 0.8,-0.3 11.69899,1.5005 24.29883,4.0005 25.29952,5 36.60133,6.5991 46.20117,6.5991 4.6,0 6.99996,0.5007 8.2998,1.7007 4.1,3.7 1.09916,5.3003 -6.20068,3.3003 -1.9,-0.5 -13.40016,-1.8004 -25.5,-2.9004 -27.69952,-2.6 -47.60031,-5.4002 -97.99951,-14.2002 -60.19904,-10.5 -74.20094,-12.7 -85.30078,-13.5 -9.99984,-0.7 -12.4999,-0.2 -7.8999,1.5 4.29984,1.7 133.30019,27.0996 137.20019,27.0996 0.5,0 0.60029,0.201 0.30029,0.501 -1.29984,1.3 -74.50159,-9.6005 -188.2998,-28.0005 -25.29968,-4.1 -65.10032,-10.3995 -88.5,-13.9995 -76.49872,-11.8 -100.90177,-16.001 -184.00049,-32.001 -21.19968,-4.1 -55.39934,-10.2995 -75.99902,-13.9995 -41.19936,-7.2 -70.80114,-12.8008 -78.50098,-14.8008 -3.6,-1 -4.49922,-1.4995 -3.19922,-1.9995 1,-0.4 1.59971,-1.0992 1.19971,-1.6992 -0.7,-1.1 -19.1012,-7.1006 -38.40088,-12.6006 -15.29968,-4.3 -15.99984,-5.4994 -1.5,-2.3994 18.69968,4 24.90084,4.8993 28.70068,4.2993 2,-0.3 3.7002,-0.8993 3.7002,-1.2993 0,-1.4 -8.00022,-4.0006 -24.3999,-8.1006 -22.19968,-5.5 -61.29987,-13.6004 -71.69971,-14.9004 -12.29984,-1.5 -16.00123,-2.9001 -18.10107,-7.1001 -4.7,-9.1 -1.3989,-10.0999 20.80078,-6.3999 12.89968,2.2 70.69979,12.9005 94.29931,17.5005 7.3,1.4 12.4001,1.3001 14.6001,-0.3999 1.8,-1.3 1.70004,-1.3996 -0.7998,-3.0996 -3.7,-2.4 -15.70003,-5.801 -38.69971,-11.001 -25.19968,-5.6 -72.80065,-15.1995 -85.00049,-16.9995 -6.59984,-1 -9.89922,-1.9007 -10.69922,-3.2007 -3.09984,-4.2 -0.59984,-6.1 6,-4.5 5,1.3 68.19938,10.7007 81.19922,12.2007 11.39984,1.3 17.50049,1.3 17.50049,0 0,-1.6 -5.00026,-3.6004 -14.6001,-5.9004 -11.59984,-2.7 -61.89958,-11.5001 -74.39941,-13.1001 -15.49984,-1.9 -16.00108,-2.0001 -18.10108,-4.1001 -1,-1 -1.899899,-3.2999 -1.899899,-4.8999 0,-2.7 0.299609,-3 3.099609,-3 1.7,0 8.60045,1.1009 15.30029,2.4009 17.19984,3.5 51.4013,9.2001 69.50098,11.6001 16.59968,2.2 25.1001,2.4986 25.1001,1.0986 0,-1.4 -16.60048,-4.5986 -45,-8.5986 -10.49984,-1.6 -20.10004,-4.2004 -15.7002,-4.4004 2,-0.1 2.1999,-1.4004 0.3999,-2.9004 -1.39984,-1.2 -26.60051,-6.5993 -41.20019,-8.7993 -9.49984,-1.4 -14.500489,-3.3009 -14.500489,-5.4009 0,-0.7 1.350912,-1.0001 3.713379,-0.9126 z m -73.913086,2.9136 c 1.499968,0 4.399544,0.4986 6.499512,1.0986 2.999952,0.8 4.19982,1.8004 5.299804,4.4004 0.8,1.9 1.400391,3.9 1.400391,4.5 0,2.2 -13.599641,0.2998 -15.099609,-2.2002 -0.5,-0.7 -0.899414,-2.7996 -0.899414,-4.5996 0,-2.8 0.299348,-3.1992 2.799316,-3.1992 z m 21.099609,4.1616 c 0.874984,-0.1875 2.600064,0.1875 6,0.9375 5.39992,1.1 7.600114,3.0001 8.600098,7.1001 0.699984,2.7 0.600717,2.8008 -3.199219,2.8008 -8.199872,0 -12.300293,-2.8009 -12.300293,-8.4009 0,-1.5 0.02442,-2.25 0.899414,-2.4375 z m 24.925782,5.0508 c 0.874984,-0.2625 2.424169,-0.1125 5.474121,0.1875 3.299936,0.4 6.900293,1.0996 7.800293,1.5996 1.999968,1.1 3.400261,7.0995 1.800293,7.9995 -1.599984,1.1 -13.800618,-1.5003 -15.600586,-3.3003 -1.099984,-1 -1.299414,-2.3997 -0.899414,-4.1997 0.349984,-1.35 0.550293,-2.0241 1.425293,-2.2866 z m -46.325684,8.8872 c 0.699984,-1.2 15.000618,3.5001 17.100586,5.6001 2.899952,2.9 0.09955,3.5991 -7.800293,2.0991 -6.299904,-1.2 -7.500114,-1.8001 -8.600098,-4.1001 -0.699984,-1.5 -1.100195,-3.0991 -0.700195,-3.5991 z m 26.575195,7.0254 c 0.824984,-0.15 2.224935,-0.076 4.524903,0.1743 2.999952,0.3 6.200504,1.1003 7.000488,1.8003 2.399952,1.9 1.599432,2.9004 -2.500488,2.9004 -5.09992,0 -10.100098,-1.8002 -10.100098,-3.7002 0,-0.65 0.250211,-1.0248 1.075195,-1.1748 z m 23.487305,3.9492 c 1.237484,0.025 3.387173,0.3754 7.037109,1.0254 3.199952,0.6 6.801384,1.5991 7.901368,2.0991 1.899968,1.1 1.898893,1.1003 -0.101075,1.8003 -3.899936,1.5 -16.398925,-1.599 -16.398925,-3.999 0,-0.65 0.324039,-0.9508 1.561523,-0.9258 z m -35.512207,14.105 c 1.949968,-0.2672 6.150325,0.7453 8.550293,2.3203 2.799952,1.8 3.100163,3.4995 0.700195,3.4995 -2.799952,-0.1 -10.300781,-3.7991 -10.300781,-5.0991 0,-0.4 0.400309,-0.6316 1.050293,-0.7207 z m 19.731445,2.7246 c 1.124984,0 2.593001,0.1701 4.417969,0.4951 6.099904,1.1 6.30109,1.201 7.601074,5.001 0.699984,2.2 0.899887,4.2988 0.399903,4.7988 -1.299984,1.3 -11.501107,-2.799 -13.601075,-5.499 -2.474952,-3.3 -2.192807,-4.8006 1.182129,-4.7959 z m 19.980469,2.2954 c 0.737484,-0.225 2.18763,-0.05 5.037598,0.3003 3.099952,0.4 7.200016,1.2991 9,2.0991 2.999952,1.2 6.200684,6.101 6.200684,9.501 0,1.4 -12.100065,0.5999 -16.500001,-1.1001 -2.699952,-1 -4.5,-4.4997 -4.5,-8.6997 0,-1.25 0.02422,-1.8756 0.761719,-2.1006 z m 863.138672,72.7998 c 0.4,0 1.8,3.2997 3,7.1997 2.3,7.2 2.49912,13.5001 0.59912,13.1001 -1.7,-0.2 -5.59951,-14.399 -4.99951,-17.499 0.4,-1.5 1.00039,-2.8008 1.40039,-2.8008 z m -100.6626,9.1377 c 1.5125,-0.2125 4.81217,0.3123 11.56201,1.3623 13.19984,2.1 13.40049,2.1998 13.00049,5.2998 -0.4,3.5 -3.70113,4.2 -14.00097,3 -9.2,-1.1 -10.49942,-1.8991 -11.39942,-6.5991 -0.4,-1.9 -0.67461,-2.8505 0.83789,-3.063 z m 34.61133,4.9878 c 1.575,-0.125 4.45055,0.3244 9.65039,1.2744 7.89984,1.4 9.50098,2.0997 9.50098,4.1997 0,1.1 -1.9003,1.4004 -9.3003,1.4004 -9.89984,0 -11.6997,-0.6992 -11.6997,-4.6992 0,-1.35 0.27363,-2.0503 1.84863,-2.1753 z m 38.75098,4.875 h 7.40039 v 3.4995 c 0,4 0.0994,4.001 -3.60059,2.001 -1.6,-0.8 -3.90074,-1.5 -5.10058,-1.5 -3.3,0 -7.49981,-1.9 -6.79981,-3 0.3,-0.5 4.00059,-1.0005 8.10059,-1.0005 z m 37.05029,8.9253 c 0.75,0.05 1.5999,1.8741 2.6499,5.4741 1.4,4.9 1.4,6.1001 0,11.6001 -0.9,3.3 -1.80097,5.9001 -2.00097,5.6001 -1.3,-1.3 -3.29971,-14.3005 -2.69971,-17.5005 0.65,-3.5 1.30078,-5.2238 2.05078,-5.1738 z m -103.05029,0.075 c 2.59984,0 7.59912,0.4997 11.09912,1.1997 7.09984,1.3 9.70107,3.6995 9.10107,7.9995 -0.4,2.7 -2.60094,2.8009 -14.80078,0.9009 -8.09984,-1.2 -9.99902,-2.6008 -9.99902,-7.3008 0,-2.7 0.19961,-2.7993 4.59961,-2.7993 z m 31.10009,3.0996 c 1,0 5.09938,0.6008 9.19922,1.3008 4,0.7 7.70059,1.9001 8.10059,2.6001 0.9,1.4 2.29922,9.0991 1.69922,9.5991 -0.2,0.2 -4.79932,-0.4004 -10.29932,-1.4004 l -9.89941,-1.6992 -0.90088,-3.6006 c -1.1,-4.4 -0.29926,-6.8998 2.10058,-6.7998 z m 40.22461,2.1006 c 1.65,0.075 2.32559,0.399 2.47559,0.999 0.3,0.7 0.69902,4.7 0.99902,9 l 0.60059,7.6011 -6.30029,-1.4004 c -3.4,-0.8 -6.79961,-2.1004 -7.59961,-2.9004 -0.8,-0.8 -1.59991,-3.8994 -1.89991,-6.8994 l -0.3999,-5.5005 3.79981,-0.3999 c 4.04984,-0.4 6.67486,-0.5745 8.3247,-0.4995 z m -70.24951,12.8994 c 1.85,0.1 4.72438,0.7003 8.82422,1.8003 3.9,1 8.29981,2.2005 9.79981,2.5005 3.09984,0.7 5.70117,5.4001 5.70117,10.1001 0,2.1 -0.40108,2.499 -3.10108,2.499 -1.7,0 -7.1,-0.8991 -12,-2.0991 l -8.89892,-2.1006 -1.5,-5.1006 c -0.8,-2.8 -1.5,-5.6999 -1.5,-6.3999 0,-0.9 0.8248,-1.2997 2.6748,-1.1997 z m 30.7251,7.2495 c 0.325,-0.325 0.8999,-0.2442 1.8999,0.051 1.2,0.3 5.09971,1.0992 8.69971,1.6992 8.79984,1.5 10.59932,2.8001 11.79932,8.6001 0.6,2.6 0.90019,4.9006 0.70019,5.1006 -0.3,0.3 -11.29971,-1.6003 -19.19971,-3.3003 -2.29984,-0.5 -4.29931,-4.9998 -4.29931,-9.7998 0,-1.3 0.0749,-2.0261 0.3999,-2.3511 z m 40.93359,5.023 c 1.27188,0.1281 2.36592,0.4272 3.06592,0.9272 1.8,1.3 3.50059,7.1004 3.60059,11.9004 0,2.3 -0.50127,2.8008 -2.30127,2.8008 -4.1,0 -12.6,-3.0003 -13.5,-4.8003 -1.6,-3 -2.09932,-6.7006 -1.29932,-8.1006 1.2,-1.95 6.61861,-3.1119 10.43408,-2.7275 z" />
  <path
     d="m 525.74149,42.511573 c -1.4,2.7 -1.3,5.2 0.7,12.2 2,7.3 1.5,7.9 -6.9,7.9 -4.6,0 -5.9,0.4 -6.7,1.9 -1.3,2.4 0.2,3.8 5,4.7 5.7,1.1 6.2,2 3.4,7.2 -4.2,7.9 0.2,9.4 7.8,2.6 2,-1.9 4.3,-3.4 5.1,-3.4 0.8,0 3,1.6 5.1,3.7 3.4,3.4 3.7,3.5 5.3,1.9 1.6,-1.6 1.6,-1.9 -0.1,-4.7 -2.9,-5.2 -1.9,-6.9 4.3,-6.9 4.1,0 6,-1 6,-3.1 0,-1.3 -1.2,-2.1 -4,-2.9 l -3.9,-1.1 2.1,-4.3 c 3.7,-7.6 -0.1,-10.2 -6.6,-4.6 -4.5,4 -6.2,3.2 -7.6,-3.7 -1.7,-8 -6.5,-12 -9,-7.4 z"
     id="path4"
     style="fill:#000000;stroke:none;stroke-width:0.1" />
  <path
     d="m 444.44149,51.111573 c -2.8,7.1 -3.7,115.899997 -1.1,118.499997 1.6,1.6 2.1,0.4 3.3,-7.1 1.2,-7.5 2.7,-106.299997 1.7,-110.299997 -0.7,-2.8 -3,-3.5 -3.9,-1.1 z"
     id="path6"
     style="fill:#000000;stroke:none;stroke-width:0.1" />
  <path
     d="m 575.24149,53.311573 c -1.3,1.3 -1.6,2.6 -1,5.7 1.9,11.4 2.3,10.2 -3.6,11.2 -8.8,1.5 -9.5,7 -1,8.7 2.2,0.4 4.1,1.2 4.1,1.7 0,0.5 -1.2,2.2 -2.6,3.9 -3.1,3.7 -2.8,6.7 0.6,6.3 1.3,-0.1 5.2,-2.1 8.8,-4.3 l 6.4,-4.1 4.7,4.6 c 2.6,2.5 5.2,4.6 5.8,4.6 2.1,0 2.1,-2.4 0.1,-5.8 -2.5,-4.1 -1.8,-6.2 2.2,-6.2 4.4,0 7,-1.7 7,-4.4 0,-1.8 -0.8,-2.7 -3,-3.5 -3.7,-1.2 -3.8,-3 -0.4,-6.2 1.4,-1.3 3.2,-3.6 4,-5.1 1.2,-2.3 1.2,-2.9 -0.1,-4.2 -2.1,-2.1 -5.5,-0.7 -13.4,5.4 -3.6,2.8 -6.8,5 -7.2,5 -0.4,0 -1.9,-3 -3.5,-6.6 -3.1,-7.4 -5.4,-9.3 -7.9,-6.7 z"
     id="path8"
     style="fill:#000000;stroke:none;stroke-width:0.1" />
  <path
     d="m 628.34149,55.811573 c -2.3,3.2 -1.9,11.5 1,21 0.5,1.6 -0.2,1.8 -5.8,1.8 -6.9,0 -10.8,1.8 -10.8,5 0,2.3 4.1,5.6 8,6.5 1.7,0.4 3.2,1.1 3.5,1.5 0.3,0.5 -1,3.3 -3,6.1 -1.9,2.799997 -3.5,5.799997 -3.5,6.499997 0,3.9 6.6,1.6 12,-4.1 1.4,-1.499997 3.8,-3.299997 5.3,-4.099997 2.7,-1.5 2.9,-1.4 9.1,4.599997 6,5.7 9.6,7.4 11.1,5 0.8,-1.2 -1.3,-4.7 -5,-8.399997 -1.4,-1.4 -2.5,-2.9 -2.5,-3.4 0,-0.5 2.8,-1.2 6.1,-1.6 7.2,-0.7 9.1,-1.9 8.7,-5.5 -0.3,-2.4 -2.1,-3.5 -9.7,-5.7 -0.9,-0.3 -0.1,-1.8 2.6,-4.7 9.5,-10.3 11.3,-14.7 6.1,-14.7 -2.7,0 -7.9,3.3 -15.6,9.8 -2.9,2.4 -5.5,4.2 -5.8,3.9 -0.3,-0.3 -1.4,-4.4 -2.4,-9.1 -1.1,-4.7 -2.4,-9.5 -3,-10.6 -1.4,-2.6 -4.5,-2.6 -6.4,0.2 z"
     id="path10"
     style="fill:#000000;stroke:none;stroke-width:0.1" />
  <path
     d="m 722.74146,59.611573 c -2.4,1.5 -0.1,2.8 7,3.9 3.6,0.6 21.4,2.9 39.5,5.1 18.2,2.2 43.4,5.7 56,7.6 61.8,9.5 164.9,29.499997 236.00004,45.899997 48.4,11.1 63.4,13.6 62.3,10.3 -0.7,-2 -8.2,-4.4 -33.7,-10.8 -40.3,-10.1 -87,-20.1 -144.60004,-30.899997 -79.9,-15 -113.9,-20.3 -181.1,-28.1 -36.8,-4.3 -39.1,-4.5 -41.4,-3 z"
     id="path12"
     style="fill:#000000;stroke:none;stroke-width:0.1" />
  <path
     d="m 492.04149,97.811573 c -1.7,2 -1.7,2.399997 -8.8,52.299997 -8.2,59.1 -9.1,67 -11.5,104.6 -1.1,17.3 -3,38.6 -4.1,47.4 -3.2,24.7 -2,29.7 8,32.9 2.5,0.9 20.1,4.7 39.1,8.6 19,3.9 38.6,7.9 43.5,9 38.1,8.1 120.8,22.4 178.99997,31 69.7,10.3 138.5,21.8 228,38 56.80004,10.3 96.50004,17.3 130.50004,23 16.8,2.8 36.2,6.2 43.1,7.5 18.7,3.6 37.2,5.7 40.2,4.6 3.4,-1.3 3.9,-2.5 4.2,-8.5 0.2,-2.8 1,-8.3 1.8,-12.1 0.9,-3.9 2.3,-13.9 3.2,-22.4 0.9,-8.5 3.4,-26 5.5,-39 6.3,-38 8.7,-56.6 12,-91.1 3.7,-38.6 5.7,-56.8 7,-62.4 1.6,-6.9 1.2,-12.1 -1,-14.1 -2.6,-2.3 -27.9,-8.1 -61,-13.9 -125.9,-22.2 -158.80004,-27.6 -278.50004,-45.6 -25.8,-3.9 -67.5,-10.2 -92.5,-14.1 -119.99997,-18.5 -139.29997,-21.1 -211.99997,-28.4 -30.5,-3 -58.2,-5.999997 -61.5,-6.599997 -12.3,-2.1 -13.1,-2.1 -14.2,-0.7 z m 17.5,5.599997 c 1.3,0.4 2.3,1.1 2.3,1.7 0,1.2 -11,4.7 -12.3,3.9 -0.4,-0.3 -0.8,-1.8 -0.8,-3.5 0,-2.8 0.2,-2.9 4.3,-2.8 2.3,0.1 5.2,0.4 6.5,0.7 z m 44.7,6.1 c 47.6,6 133.8,18.1 170.99997,24 17.1,2.7 50.2,8.1 205.8,33.6 25.2,4.1 63.7,10.7 85.50004,14.5 86.9,15.5 125,22 154.2,26.5 16.8,2.6 31.5,4.9 32.8,5.1 2.8,0.5 2.8,2.2 0.2,12.2 -3,12 -4.6,23.4 -10,71.2 -2.8,24.5 -6.6,55.7 -8.5,69.5 -3.4,24.6 -9.1,59.4 -9.8,60.1 -0.2,0.2 -2.1,-0.5 -4.3,-1.6 -6.9,-3.5 -21.5,-6.6 -69.9,-14.9 -87,-15 -156.80004,-26 -228.00004,-36.1 -57.1,-8.1 -85.8,-12.7 -135,-21.6 -44.79997,-8.1 -75.59997,-13.4 -146.49997,-24.8 -49,-7.9 -64.6,-10.2 -78.6,-11.3 -7.1,-0.5 -9.1,-1 -11.5,-3 -3.3,-2.9 -4.5,-2.7 -16.5,1.7 -4.3,1.6 -8,2.8 -8.2,2.5 -0.2,-0.2 -0.1,-3.6 0.3,-7.4 0.7,-6.7 0.8,-7.1 3.2,-7.1 1.4,0 4.7,-1.7 7.5,-4 5.7,-4.5 7.8,-5 7.7,-1.8 -0.3,5.7 -1.3,6.9 -8.7,10 -7.4,3.1 -9.4,5 -7.4,7 0.7,0.7 2.5,0.2 5.9,-1.7 2.6,-1.5 6.5,-3.6 8.5,-4.7 6,-3 5.1,1.7 10.3,-52.8 2,-20.1 5.5,-51.4 8,-69.5 5.3,-39.2 7.5,-59.8 7.5,-69.8 0,-8.5 1,-10 6,-9.4 1.9,0.2 14.8,1.8 28.5,3.6 z m -37.5,0.6 c 0,4.2 -2.4,6.5 -8.9,8.6 -3.6,1.1 -7.2,2.3 -7.8,2.5 -0.9,0.4 -1.3,-0.3 -1.3,-2 0,-2.2 1.1,-3.1 8.3,-6.5 9.4,-4.5 9.7,-4.6 9.7,-2.6 z m -3,12.3 c 0,2.5 -2.5,4.5 -8.8,7.3 -4.5,1.9 -5.5,2 -6.3,0.8 -1.1,-1.8 0.5,-3.4 6.8,-7 5.8,-3.3 8.3,-3.6 8.3,-1.1 z m -1,9.5 c 0,2.4 -3.1,5.7 -7.3,7.5 -2.3,1 -4.8,2.6 -5.6,3.5 -2.4,2.9 1.6,3.3 6.5,0.7 2.4,-1.4 4.6,-2.1 4.9,-1.8 1.2,1.2 -2,4.8 -6.6,7.2 -5.4,3 -7.5,5.1 -5.9,6.1 0.5,0.3 3.2,-0.6 5.9,-2.2 2.8,-1.5 5.2,-2.5 5.6,-2.2 1.3,1.4 -1,3.7 -8.1,8.2 l -7.6,4.8 0.5,-3.3 c 0.3,-1.8 0.9,-6.5 1.2,-10.3 0.9,-9.8 1.8,-11.6 8.2,-15.8 5.8,-3.9 8.3,-4.6 8.3,-2.4 z m -3.6,31.4 c -0.3,1.6 -0.7,3.3 -0.9,4 -0.2,0.7 -2.6,2.3 -5.3,3.7 -5.2,2.6 -7.6,4.9 -7,6.6 0.2,0.7 2.6,0 6.1,-1.9 3.1,-1.6 5.7,-2.8 5.7,-2.5 0,2 -2.8,4.8 -7,6.9 -4.9,2.5 -7,4.9 -7,7.9 0,2.3 2.7,2 7.7,-0.9 5.5,-3.3 5.7,-1.4 0.2,2.3 -6.3,4.2 -10.5,8 -9.7,8.7 0.4,0.4 2.9,-0.7 5.6,-2.4 5.6,-3.6 7.2,-3.9 7.2,-1.3 0,2.2 -2.2,4.3 -7,6.7 -4.4,2.2 -8,5.4 -8,7.2 0,2.2 3,1.5 8.2,-1.8 2.7,-1.7 5.1,-2.9 5.4,-2.6 1.3,1.2 -1.9,4.7 -7,7.6 -3,1.6 -5.7,3.5 -6.1,4.1 -0.3,0.5 -1,1 -1.5,1 -0.9,0 -0.5,-7 1.5,-22 0.8,-5.8 1.7,-13.2 2,-16.5 1.1,-9.9 1.2,-10.1 8.3,-13.9 8.2,-4.4 9.4,-4.5 8.6,-0.9 z m -6.4,52.6 c 0,2.3 -3.1,5.7 -6.9,7.6 -3.9,2 -6.8,4.8 -5.9,5.7 0.3,0.3 2.9,-0.4 5.8,-1.5 l 5.3,-2 -0.6,4 c -0.7,5 -2.3,6.9 -8.8,9.9 -6.2,3 -7.3,2 -6.4,-6 1.2,-11 1.8,-12.2 9.3,-15.7 7.7,-3.6 8.2,-3.7 8.2,-2 z m -3,27 c 0,0.8 -1,2.3 -2.2,3.4 -2.5,2.2 -12.8,7.7 -13.4,7.1 -0.9,-0.9 3.1,-5.1 7.9,-8.3 5.5,-3.7 7.7,-4.3 7.7,-2.2 z m -1.7,12 c -0.7,3.7 -2.3,5.1 -7.6,6.7 -4.2,1.2 -8.1,4.5 -7.2,6 0.7,1.1 2.8,0.4 7.7,-2.7 4.6,-2.8 6.8,-2.9 6.8,-0.3 0,2.4 -1.5,3.8 -9.9,9.3 -3.6,2.3 -6.7,4.8 -6.9,5.4 -0.7,2.5 2.8,1.2 9.3,-3.2 l 6.6,-4.6 -0.3,3.8 c -0.3,3.7 -0.6,3.9 -8.8,8 -4.6,2.3 -8.5,4.1 -8.7,4 -0.1,-0.2 0.6,-6.1 1.7,-13.2 1.6,-10.2 2.5,-13.4 4.3,-15.3 2.7,-2.9 11.8,-8.3 12.9,-7.6 0.4,0.3 0.4,1.9 0.1,3.7 z m -2.1,33.9 c -0.2,0.9 -2.4,2.5 -4.9,3.4 -2.4,1 -6.2,3 -8.4,4.6 -4.7,3.4 -4.9,3.4 -4.9,0.4 0,-2.7 2.3,-5.6 4.4,-5.6 0.7,0 4,-1.8 7.2,-4 5.1,-3.4 6,-3.7 6.5,-2.3 0.3,1 0.4,2.5 0.1,3.5 z m 10.7,30.4 c 1.7,0.4 3.1,1 3.1,1.4 0,1.2 -10.6,4.9 -15.7,5.5 -2.7,0.3 -6.1,0.2 -7.8,-0.3 l -3,-1 6.5,-3 c 6.5,-3.1 10.9,-3.8 16.9,-2.6 z m 32.9,6.1 c 11.2,2.4 16.8,3.9 15.6,4.4 -1,0.4 -5.9,1.8 -10.7,3.3 -7.7,2.2 -9.4,2.4 -13.7,1.5 -6.4,-1.4 -7,-2.5 -1.9,-3.3 5.2,-0.8 7.9,-2.2 7.9,-4.1 0,-2.2 -5.5,-1.9 -12.6,0.5 -7.1,2.5 -16.9,3.7 -17.8,2.2 -0.3,-0.6 1.6,-1.8 4.5,-2.8 2.8,-1 5.5,-2.7 6,-3.6 1.3,-2.5 2.7,-2.3 22.7,1.9 z m 34.6,6.2 c 0.4,0.5 -2.7,2.3 -6.8,4 -6.1,2.5 -8.8,3.1 -14.8,3.1 -7.6,0 -11.8,-1.3 -8.6,-2.5 10.9,-4.2 28.8,-6.9 30.2,-4.6 z m 21.6,3.6 c 0.7,0.5 -0.7,1.4 -3.9,2.5 -2.9,0.9 -6.2,2.6 -7.4,3.7 -1.2,1.2 -3.2,2.4 -4.4,2.7 -2.4,0.8 -13.2,-0.9 -14.5,-2.2 -0.4,-0.4 3,-2.4 7.5,-4.5 7.4,-3.4 8.9,-3.7 14.8,-3.4 3.7,0.2 7.2,0.8 7.9,1.2 z m 12.4,2.4 c 0.3,0.5 -0.8,1.4 -2.4,2 -3.2,1.1 -3.3,1 -2.4,-1.3 0.7,-1.7 3.9,-2.2 4.8,-0.7 z m -7.4,3.6 c 0,0.8 -7.3,4.2 -10.7,4.9 -1.8,0.4 -3.4,0.3 -3.8,-0.3 -0.7,-1.3 0.9,-2 8.4,-3.7 3.1,-0.6 5.7,-1.2 5.9,-1.3 0.1,-0.1 0.2,0.1 0.2,0.4 z m 30.5,0.5 c 0.3,0.5 0.2,1 -0.3,1 -0.4,0 -3.9,1.9 -7.7,4.1 -6.7,4.1 -6.9,4.2 -13.9,3.5 -6.7,-0.6 -9.7,-1.8 -8.3,-3.2 0.4,-0.4 4.8,-1.9 9.9,-3.5 9.5,-2.8 19.2,-3.7 20.3,-1.9 z m 17.5,3 c 2.5,0.7 2.5,0.7 -1,2.2 -1.9,0.8 -5.6,2.3 -8.2,3.2 -2.6,1 -5,2.2 -5.3,2.7 -0.8,1.1 -9.5,1.2 -11.4,0 -2.3,-1.5 -0.3,-2.9 6.7,-5.1 3.7,-1.1 7.4,-2.4 8.2,-3 1.7,-1.1 7.4,-1.1 11,0 z m 22,3 c 0,0.5 -0.4,1 -0.9,1 -0.5,0 -4.5,2 -8.9,4.5 -7.8,4.4 -11.7,5.3 -16.9,3.9 -2.7,-0.7 -3,-2.4 -0.5,-2.5 0.9,0 5.5,-1.7 10.2,-3.8 8.2,-3.8 17,-5.3 17,-3.1 z m 16,2.9 c 0,0.4 -3.7,2.5 -8.2,4.6 -9.1,4.1 -21.5,6.2 -20.6,3.4 0.5,-1.7 10.2,-5.3 19.5,-7.3 8.3,-1.8 9.3,-1.8 9.3,-0.7 z m 20.99997,3.5 c 0,0.2 -3,1.4 -6.7,2.6 -3.8,1.3 -8.19997,3.1 -9.89997,4.1 -2.2,1.3 -5,1.9 -9.2,1.9 -6.9,0 -8.6,-1.2 -3.9,-2.7 1.8,-0.6 6.4,-2.3 10.2,-3.7 4.6,-1.7 9.09997,-2.5 13.29997,-2.6 3.4,0 6.2,0.2 6.2,0.4 z m 15.4,3.6 c -0.6,0.6 -4.8,2.6 -9.5,4.6 -6.7,2.8 -9.2,3.4 -12.4,2.9 -7.19997,-1 -7.1,-2.1 0.2,-4 3.7,-0.9 8.6,-2.3 10.8,-3 5,-1.6 12.3,-1.9 10.9,-0.5 z m 20.1,3 c 0.3,0.5 -2.8,2.6 -7.1,4.5 -6.2,2.8 -8.9,3.5 -14,3.5 -3.5,0 -6.4,-0.4 -6.4,-0.9 0,-0.5 4.4,-2.5 9.8,-4.4 9.7,-3.6 16.5,-4.6 17.7,-2.7 z m 20.5,3.9 c 2.3,0.7 2.1,1 -3.5,3.8 -8.2,4.1 -10.7,4.6 -17.6,3.2 -7.2,-1.4 -6.7,-2.3 2.8,-5.5 6.8,-2.3 13.5,-2.9 18.3,-1.5 z m 24.2,3.9 c 0.5,0.5 -2.2,2.2 -6.3,4 -7.3,3.3 -15.7,4.1 -21.9,2.3 -2.3,-0.7 -2,-1 3.5,-3.5 3.3,-1.4 6.9,-3.1 8,-3.6 2.3,-1.1 15.4,-0.5 16.7,0.8 z m 18.8,3.3 c 0,0.5 -2.6,2.2 -5.7,3.7 -6,2.7 -15.1,4 -20,2.7 l -2.8,-0.7 2.7,-1.4 c 6.7,-3.5 25.8,-6.7 25.8,-4.3 z m 20.4,2.8 c 0.8,1.3 -13.2,7.4 -17.3,7.4 -4.8,0.1 -11.1,-1.2 -11.1,-2.3 0,-0.9 5.7,-3.2 12,-4.9 4.5,-1.2 15.7,-1.4 16.4,-0.2 z m 21.5,2.7 c 1.7,0.4 3.1,1 3.1,1.4 0,1.7 -13.8,7 -18.2,7 -4.4,0 -11.3,-1.8 -10.4,-2.7 0.2,-0.3 4.2,-1.8 8.8,-3.4 8.6,-3 11.3,-3.3 16.7,-2.3 z m 21.7,3.5 c 2.5,0.6 4.3,1.6 4.2,2.1 -0.2,0.6 -3.1,2.2 -6.3,3.6 -6.3,2.7 -15.7,3.4 -23.9,1.8 -5.1,-1 -3.9,-2 6.5,-5.6 9.3,-3.2 12.8,-3.5 19.5,-1.9 z m 24.4,4 c 2.9,0.6 4.8,1.5 4.3,1.9 -1.1,1 -16.2,5.8 -19.3,6.1 -3.9,0.4 -14,-1.1 -14,-2.1 0,-2.2 12.8,-6.8 19.2,-6.9 2.6,-0.1 7,0.4 9.8,1 z m 25.9,3.5 c 0.6,0.6 0.4,0.7 -7.5,4.1 -3.9,1.8 -8.7,3.5 -10.7,3.8 -4,0.8 -12.7,-0.2 -12.7,-1.3 0,-0.8 16.1,-6.9 20,-7.5 2.5,-0.5 10.1,0.2 10.9,0.9 z m 31.1,5 c 0.9,0.9 -0.6,1.8 -5.7,3.8 -12.4,4.7 -12.9,4.8 -24.5,3 -6,-0.9 -10.8,-2 -10.8,-2.5 0,-0.5 2.4,-1.5 5.3,-2.3 2.8,-0.8 6.8,-2 8.7,-2.5 4.6,-1.4 25.6,-0.9 27,0.5 z m 17.6,3.3 c -0.8,1.3 -21.9,6.3 -24.7,5.9 -1.8,-0.2 -0.6,-1.1 5.1,-3.5 5.7,-2.5 9,-3.2 13.8,-3.3 3.5,0 6.1,0.4 5.8,0.9 z m 26,3.9 c 1.6,0.9 0.9,1.5 -5.6,4.7 l -7.5,3.7 -11,-0.6 c -11.9,-0.7 -16.5,-1.4 -16.5,-2.6 0,-0.4 4.8,-2.2 10.8,-3.9 9.1,-2.6 12,-3 19.3,-2.7 4.7,0.2 9.4,0.8 10.5,1.4 z m 20.40004,4 c 0,0.9 -12.1,7.1 -16.20004,8.3 -2.9,0.8 -9.8,-0.6 -9.8,-2.1 0,-1.4 17.10004,-6.8 21.80004,-6.9 2.3,-0.1 4.2,0.3 4.2,0.7 z m 19.9,3.9 c 0,0.5 -3.6,2.5 -7.9,4.7 -5.5,2.6 -9.2,3.8 -12.1,3.8 -3.8,-0.1 -5.8,-0.7 -4.8,-1.5 0.2,-0.2 4.9,-2 10.4,-4 9.8,-3.5 14.6,-4.5 14.4,-3 z m 20,3.2 c 1.7,1.1 -0.6,2.7 -9.3,6.7 -4.9,2.2 -6.7,2.6 -11.4,2.1 -10.2,-1.1 -8.4,-3.7 5.5,-7.6 7.4,-2.1 13,-2.6 15.2,-1.2 z m 21,3.7 c 1.7,0.4 3.1,1 3.1,1.4 0,0.4 -3.2,2.2 -7.1,4 -5.6,2.6 -8.4,3.2 -13.3,3.2 -3.4,0 -7.3,-0.3 -8.7,-0.7 -2.2,-0.8 -1.6,-1.2 5.6,-4.6 8.1,-3.9 13.2,-4.7 20.4,-3.3 z m 25.1,4.5 c 2.7,0.6 5,1.4 5,1.8 0,0.4 -3.6,2.5 -8,4.5 l -8,3.8 -8.7,-1.2 c -10.9,-1.4 -13,-2.4 -8.8,-4 15.4,-6.1 19.6,-6.8 28.5,-4.9 z m 27.8,5.9 c 2.8,0.7 5,1.5 4.7,2 -1,1.7 -13.7,6 -17.6,6 -2.2,0 -7,-0.7 -10.6,-1.7 l -6.6,-1.6 2.9,-1.5 c 9.3,-5 15.5,-5.7 27.2,-3.2 z m 20.3,4 c 2.6,0 0.2,2 -5.3,4.4 -6.3,2.6 -13.1,3.4 -15.7,1.7 -1.1,-0.7 -1,-1.1 0.5,-1.9 4.8,-2.4 15.8,-5.2 18.2,-4.6 0.8,0.2 1.8,0.4 2.3,0.4 z m 6.4,7.5 c -1.6,1.3 -4.3,2.4 -5.9,2.5 -3.7,0 -3.3,-0.3 2.9,-2.9 6.4,-2.6 6.6,-2.6 3,0.4 z m 18.3,2.6 -0.3,3.4 -5.8,-0.1 c -8.3,-0.2 -8.7,-1.4 -1.5,-5.2 3.5,-1.8 6.6,-2.8 7.1,-2.3 0.5,0.5 0.7,2.4 0.5,4.2 z"
     id="path14"
     style="fill:#000000;stroke:none;stroke-width:0.1" />
  <path
     d="m 1193.3415,217.81157 c -1.8,4.3 -9.8,59.7 -14.6,101.3 -1.1,9.9 -3.2,24.1 -4.5,31.5 -3.2,17.6 -4.1,27 -2.7,27 1.6,0 3.6,-7.8 7.6,-29.5 9.6,-51.9 20.9,-127.7 19.5,-131.2 -1.2,-3.3 -3.8,-2.8 -5.3,0.9 z"
     id="path40"
     style="fill:#000000;stroke:none;stroke-width:0.1" />
  <path
     d="m 403.44149,355.21157 c -1.5,1.5 0.9,3.4 6.1,5 10,2.9 31.1,7.2 53.2,10.9 28.3,4.7 52.7,9.5 79,15.5 22.9,5.2 33,7.1 33,6.1 0,-1.2 -13.2,-5.8 -25.5,-8.9 -32.3,-8.3 -134.3,-29.2 -142.5,-29.2 -1.5,0 -2.9,0.3 -3.3,0.6 z"
     id="path104"
     style="fill:#000000;stroke:none;stroke-width:0.1" />
  <path
     d="m 398.04149,411.01157 c -1.1,1.4 -2.6,4 -3.3,5.8 -0.7,1.8 -4.4,10.7 -8.2,19.8 -3.9,9.1 -12.4,29.8 -19,46 -6.6,16.2 -14.6,35.6 -17.8,43 -5.2,12.1 -7.6,18.9 -9.4,27.2 -0.9,4.2 1.4,3.5 5,-1.5 4.2,-5.6 4.6,-6.5 23.7,-49.2 28.2,-63.3 35,-80.6 34.5,-88.4 -0.4,-5.5 -2.5,-6.5 -5.5,-2.7 z"
     id="path106"
     style="fill:#000000;stroke:none;stroke-width:0.1" />
  <path
     d="m 1232.4415,420.81157 c -4.5,9.4 -7.9,29.2 -9.6,54.3 -0.4,7.2 -1.4,14.1 -2,15.3 -1.2,2.2 -1.5,2.3 -13.4,1.7 -13.6,-0.7 -18.2,0.1 -18.2,3.1 0,1.5 1.7,2.5 8.1,4.6 11,3.6 22.6,5.5 26.1,4.2 6.3,-2.2 7.5,-6.6 10.8,-38.4 0.8,-8 2.2,-20.9 3.1,-28.7 0.9,-7.9 1.3,-15.4 1,-16.8 -0.9,-3.6 -4,-3.2 -5.9,0.7 z"
     id="path108"
     style="fill:#000000;stroke:none;stroke-width:0.1" />
  <path
     d="m 493.74149,435.51157 c 0,2.4 6.9,4 30,7 12.9,1.8 37.9,5.1 55.5,7.6 17.6,2.4 40.6,5.6 51,6.9 54.6,7.2 67.29997,8.9 81.49997,11.1 16.9,2.7 23,3.1 23,1.4 0,-1.6 -5.7,-3.5 -14,-4.9 -4.1,-0.6 -14.5,-2.5 -23,-4.1 -31.69997,-5.9 -94.29997,-15.7 -130.49997,-20.3 -36.5,-4.7 -73.5,-7.1 -73.5,-4.7 z"
     id="path110"
     style="fill:#000000;stroke:none;stroke-width:0.1" />
  <path
     id="path114"
     style="fill:#000000;stroke:none;stroke-width:0.1"
     d="M 660.54785 571.32861 C 660.53655 571.33761 660.52672 571.34755 660.51563 571.35645 C 660.53072 571.34945 660.54614 571.34364 660.56104 571.33594 C 660.55704 571.33394 660.55205 571.33061 660.54785 571.32861 z " />
  <path
     id="path574"
     style="fill:#000000;stroke:none;stroke-width:0.1"
     d="M 595.91455 520.67725 C 595.93065 520.67925 595.97294 520.69313 595.97314 520.69043 C 595.97414 520.67333 595.93883 520.68145 595.92188 520.67725 C 595.91988 520.67715 595.91655 520.67733 595.91455 520.67725 z " />
  <path
     d="m 685.04149,482.31157 c -2.4,0.9 -1.3,3.4 2,4.8 1.9,0.8 6.5,1.9 10.29997,2.5 3.8,0.7 16.1,2.9 27.4,5.1 28,5.4 60.9,10.8 70.2,11.6 6.7,0.5 7.8,0.4 8.4,-1.1 0.4,-1 0.3,-2.1 -0.2,-2.6 -1.2,-1.2 -23.3,-6 -52.4,-11.4 -13.5,-2.5 -30.3,-5.7 -37.5,-7 -11.9,-2.3 -25.09997,-3.2 -28.19997,-1.9 z"
     id="path130"
     style="fill:#000000;stroke:none;stroke-width:0.1" />
  <path
     d="m 1052.1415,496.11157 c -0.4,0.8 -0.1,2.2 0.6,2.9 3.5,4.3 87.7,19.3 145.5,26.1 17.6,2 24.4,2 25.2,-0.1 0.9,-2.3 -2,-4.2 -7.6,-4.9 -13.2,-1.8 -134.7,-21.3 -148.6,-24 -10.2,-1.9 -14.4,-1.9 -15.1,0 z"
     id="path132"
     style="fill:#000000;stroke:none;stroke-width:0.1" />
  <path
     d="m 888.74146,511.31157 c 0,0.6 1,1.3 2.3,1.6 32.2,6.9 91.7,20.1 109.20004,24.2 43.3,10.1 63.6,13.2 63.5,9.6 -0.1,-2 -2.5,-3.5 -8.1,-4.8 -14.1,-3.3 -80.50004,-16.8 -114.50004,-23.3 -36.5,-7 -52.4,-9.2 -52.4,-7.3 z"
     id="path134"
     style="fill:#000000;stroke:none;stroke-width:0.1" />
  <path
     d="m 1080.5415,544.31157 c -2.8,0.7 -2.1,2.3 1.5,3.8 1.7,0.7 4.7,2.5 6.6,3.9 4.3,3.2 8.2,4.3 37.1,10.5 35,7.5 53.2,11.9 54.4,13.1 0.7,0.7 0.5,1.5 -0.5,2.6 -1.4,1.3 -3,1.2 -16,-1.2 -15.3,-2.8 -29.9,-3.7 -30.6,-1.8 -0.2,0.6 0.9,1.6 2.4,2.2 2.6,1 20.2,4.9 33.5,7.3 6.6,1.3 8.7,2.9 6.2,5 -1.3,1.1 -2.9,1 -9.8,-0.5 -21.3,-4.6 -28.5,-5.8 -30.2,-5.2 -4.5,1.8 4.4,5.6 24.6,10.6 13.6,3.3 13,2.7 12.3,10.9 -0.5,6.2 -0.4,7.1 1.2,7.7 2.6,1 4.7,-0.7 7.5,-6.2 2.8,-5.4 4.8,-6.3 10.5,-4.4 4.2,1.4 4.5,3.6 1.6,12.6 -4.7,14.3 -6.7,27.4 -4.2,27.4 1.4,0 4.8,-5.2 7.6,-11.3 1.3,-3 6.5,-17.6 11.5,-32.5 10,-29.6 10.1,-30.5 4.5,-34.8 -5.6,-4.2 -32.6,-9 -81.5,-14.4 -10.2,-1.2 -24.7,-3 -32.3,-4 -14,-2 -14.9,-2.1 -17.9,-1.3 z m 124.8,24.4 c 0.3,0.6 0.1,1.6 -0.4,2.1 -1.2,1.2 -7.2,-0.8 -7.2,-2.3 0,-1.3 6.8,-1.1 7.6,0.2 z m -5.5,10.9 c 3.2,1.8 2.3,4 -1.6,4 -3.8,0 -5.9,-2.5 -3.4,-4.1 1.8,-1.1 2.6,-1.1 5,0.1 z m -2,11.6 c 0.6,0.8 0.9,2.1 0.5,2.9 -0.8,2.2 -7.5,1.6 -9,-0.8 -2.3,-3.8 5.5,-5.7 8.5,-2.1 z"
     id="path136"
     style="fill:#000000;stroke:none;stroke-width:0.1" />
  <path
     d="m 869.24146,568.21157 c -7.1,2 -12.1,10.3 -19.5,32.4 -6.3,18.8 -6.3,25.9 -0.4,32.9 7.5,8.9 19.1,13 75.6,26.5 36.1,8.6 35.4,8.5 87.30004,17.3 40.7,6.9 46.3,7.6 58.5,7.6 15.3,0.1 21.4,-1.5 30.6,-7.8 17.7,-12.2 24.9,-39.2 13.7,-51.6 -4,-4.4 -9.2,-7.1 -26.5,-13.5 -27,-9.9 -58.2,-17.7 -119.00004,-29.4 -60,-11.5 -93.3,-16.3 -100.3,-14.4 z m 36.1,13 c 11.5,1.9 22.4,3.8 24.2,4.1 3.9,0.7 4,1.2 0.6,4.4 -1.4,1.3 -3.5,4.1 -4.5,6.1 -3.3,6.5 -14.1,35 -15.8,41.8 l -1.6,6.5 -4,-0.2 c -4.3,-0.2 -24.2,-7.2 -35.8,-12.7 -9.7,-4.5 -12.3,-7.4 -12,-13.4 0.2,-5.3 8.2,-29.7 11.4,-34.8 1.1,-1.9 2.8,-3.8 3.7,-4.4 3.1,-1.7 12.6,-1 33.8,2.6 z m 56.1,11 c 12.5,2.5 23.2,4.9 23.6,5.3 0.4,0.4 -2.1,6.7 -5.7,14 -3.6,7.3 -9.1,20.3 -12.3,28.7 -6.5,17.4 -6.5,17.4 -15.3,14.9 -7.9,-2.2 -25.7,-6.1 -31.2,-6.9 -2.6,-0.4 -5,-1 -5.2,-1.5 -0.3,-0.4 2.7,-7.2 6.6,-15.1 10.5,-21.7 16.1,-36.5 15.3,-40.6 -0.3,-2 -0.2,-3.4 0.4,-3.4 0.5,0 11.3,2 23.8,4.6 z m 47.30004,20.2 c -1.5,6.2 -13.60004,39.5 -16.30004,44.9 -2,4.2 -4.7,5.8 -4.7,2.8 0,-0.9 1.3,-4.1 2.9,-7.3 4.1,-8.2 13.80004,-32.9 15.50004,-39.6 0.8,-3.1 1.8,-6.2 2.2,-6.8 1.4,-2.3 1.7,1.1 0.4,6 z m 26.8,-3.7 c 4.2,1.2 11,3.1 15,4.2 4.1,1.1 7.6,2.6 7.9,3.3 0.3,0.7 -3,9.1 -7.3,18.6 -4.3,9.5 -9.2,21.1 -11,25.8 -3.2,8.4 -3.2,8.5 -6.9,8.8 -2.1,0.2 -7,-0.3 -10.9,-1.2 -3.9,-0.8 -10.3,-2 -14.1,-2.6 -10.20004,-1.6 -10.30004,-1.7 -8.1,-8.7 1,-3.2 5.3,-12.8 9.6,-21.3 4.2,-8.5 8.5,-18 9.5,-21 2.9,-9.2 3.6,-9.4 16.3,-5.9 z m 50.7,14.9 c 8.2,2.7 16,5.7 17.4,6.8 4.4,3.2 6.3,7.9 5.8,14.7 -0.8,11.3 -8.7,22.1 -20.2,27.6 -5,2.4 -7.3,2.9 -13.8,2.9 -8,0 -29.6,-2.7 -30.9,-3.9 -0.4,-0.3 2.9,-7.8 7.2,-16.6 4.5,-9 9.1,-19.9 10.5,-25 2.5,-8.8 4.3,-11.5 7.4,-11.5 0.9,0 8.3,2.2 16.6,5 z"
     id="path138"
     style="fill:#000000;stroke:none;stroke-width:0.1" />
  <path
     id="path983"
     style="fill:#000000;stroke:none;stroke-width:0.1"
     d="m 541.51575,654.1491 -7.07227,-0.27539 c -0.18723,2.51128 -1.52763,6.00389 -5.30127,15.43799 l -5.90039,14.79931 -0.0176,-0.64453 -4.16455,10.48975 c -0.22033,1.3464 -0.48143,2.01441 -0.76318,1.73584 l -4.39307,9.54931 c -0.19883,2.46169 -0.68706,4.26886 -1.7622,7.87061 -0.99129,3.50253 -1.45647,4.83143 -1.83252,4.68896 l -3.97998,9.51563 c -0.23662,2.7244 -0.59535,4.75716 -1.08692,5.79492 l -1.30078,3 -0.0293,-0.44238 -3.71044,8.08154 c -0.24683,2.65676 -0.56739,4.85262 -0.95948,5.86084 -0.91979,2.60608 -1.19578,3.18575 -1.49853,2.24707 l -12.48633,-1.56152 c -0.15223,0.0971 -0.31827,0.14715 -0.51563,0.11426 -0.48616,-0.10804 -0.91067,-0.38851 -1.30664,-0.75293 l -5.57812,-2.21631 c -1.01966,0.29806 -2.7424,-0.10208 -4.26856,-1.09717 l -5.61621,-1.24805 c -1.06239,0.25388 -2.77377,-0.0463 -5.33056,-0.68554 l -5.39942,-1.29932 0.0249,-0.56543 -3.52587,-0.90381 v 0.16846 l -6.69873,-0.79981 c -6.26844,-0.66301 -9.20532,-1.11924 -10.8545,-2.22217 l -6.16992,-1.50878 0.0234,0.33105 h -3.59912 c -2.85399,0 -4.57874,-0.50153 -5.49024,-2.05664 l -3.21093,-0.12305 v 0.18018 h -3.69873 c -2.37165,0 -3.84185,-0.23392 -4.84571,-0.85401 l -6.09082,-1.21875 c -0.22335,0.0472 -0.46917,0.0718 -0.76465,0.0718 -1.04503,0 -1.85615,-0.15192 -2.49316,-0.55371 l -4.81934,-0.58447 0.0132,0.23877 -4.40039,-0.30029 -4.40039,-0.3003 v -0.0205 l -3.74268,-0.13623 c -0.0775,0.19184 -0.16171,0.32363 -0.25635,0.35743 -0.51017,0.17005 -1.44602,-0.10946 -2.27051,-0.62256 -0.18432,-0.0298 -5.51935,-0.85142 -6.59472,-1.02246 -0.16524,0.2602 -0.33902,0.44531 -0.53467,0.44531 -0.53226,0 -1.09693,-0.3231 -1.54102,-0.76611 -2.36873,-0.375 -5.91287,-0.92011 -11.36865,-1.76368 0.9767,5.78441 2.40265,8.93527 4.20996,9.12891 0.6,0.1 3.99962,0.20029 7.59961,0.30029 7.79999,0.1 43.19905,5.60059 62.49903,9.60059 54.79994,11.39999 52.8001,10.79961 55.10009,15.09961 1.7,3.49999 4.4005,3.6998 8.50049,0.7998 4.2,-2.89999 7.09991,-8.6004 12.3999,-23.90039 5.7,-16.19998 14.1008,-37.60002 23.80079,-60 6.75055,-15.65345 7.0876,-16.80633 7.47363,-25.46191 z" />
  <path
     id="path1066"
     style="fill:#000000;stroke:none;stroke-width:0.1"
     d="m 714.09926,692.8532 -7.6831,-0.30029 -0.035,0.0952 c 0.016,2.73818 -1.0654,5.57785 -4.5395,14.26319 -2.8,6.99999 -5.1006,13.10068 -5.1006,13.70068 0,0.5 -0.5001,1.19961 -1.1001,1.59961 -0.055,0.0311 -0.1063,0.0196 -0.1553,-0.0176 l -4.37694,11.02148 -0.20508,0.44532 c -0.14854,0.71218 -0.31083,1.08333 -0.48339,1.05322 l -4.23633,9.20947 c -0.17915,1.78248 -0.51574,3.50702 -1.04151,5.48877 -0.82222,3.10617 -1.79035,5.85457 -2.33642,6.55371 l -4.14844,9.91407 c -0.20365,2.54491 -0.57501,4.3435 -1.21582,5.73193 -0.0478,0.11144 -0.0666,0.13045 -0.11133,0.23437 l -0.009,0.0454 -5.06836,11.0376 c -0.25085,2.56927 -0.60465,4.56135 -1.0122,5.68213 -0.7,1.9 -1.39893,3.20078 -1.39893,2.80078 -0.008,-0.0305 -0.10721,-0.81382 -0.12158,-0.89941 l -11.69385,-1.46338 c -0.0628,0.33516 -0.12566,0.5625 -0.18457,0.5625 -0.97173,-0.0294 -1.80973,-0.51393 -2.51367,-1.41504 l -5.00391,-1.98633 c -0.36654,0.2987 -1.0396,0.21105 -2.28222,-0.0996 -1.42425,-0.34815 -2.41659,-0.71463 -3.17579,-1.29638 l -5.70117,-1.26709 c -0.67173,-0.008 -1.4384,-0.0512 -2.42431,-0.13623 -3.53048,-0.34325 -5.53965,-0.78737 -6.59473,-2.01856 l -4.70361,-1.20557 -0.37207,-0.0513 c -0.10161,0.28433 -0.21074,0.47608 -0.32959,0.47608 -2.7,0 -15.89991,-2.3 -16.89991,-3 -0.14509,-0.086 -0.28411,-0.22794 -0.42187,-0.38672 l -5.45947,-1.33447 c -0.68466,0.91172 -4.48698,0.89604 -6.71778,0.12011 -0.63243,-0.28108 -1.35294,-0.96425 -1.8706,-1.75781 l -4.22315,-0.1626 c -0.35194,0.50491 -0.91116,0.52149 -1.80615,0.52149 -1.4,0 -3.7002,-0.50049 -5.2002,-1.00049 -0.05,-0.0192 -0.0837,-0.0355 -0.13183,-0.0542 l -6.58594,-1.31689 c -0.22884,0.073 -0.48119,0.12838 -0.78223,0.17138 -1.25765,0.20395 -2.22063,-0.009 -2.95166,-0.71631 l -4.94824,-0.59912 v 0.51563 h -3.90088 c -1.79574,0 -2.96029,-0.0995 -3.7163,-0.80859 l -4.36817,-0.15967 c -0.40089,0.14107 -0.88337,0.0915 -1.38867,-0.0894 -0.0472,-0.008 -6.28987,-0.96977 -7.46777,-1.15722 -0.52744,1.37633 -1.31847,1.45448 -2.45801,0.31494 -0.11807,-0.11807 -0.24346,-0.40288 -0.36914,-0.7544 -2.42825,-0.38399 -5.69775,-0.88638 -11.06104,-1.71533 0.63162,3.40154 1.46571,5.89412 2.52979,7.26855 1.7,2.3 2.59981,2.5001 9.7998,2.6001 12.59999,0.2 44.79994,5.4005 79.8999,13.00049 10.99999,2.3 22.9005,4.9001 26.50049,5.6001 5.5,1.1 7.09971,1.89981 10.19971,5.2998 l 3.70019,4.00049 3.59913,-1.70068 c 4.69999,-2.2 8.70059,-8.70011 12.60058,-20.6001 4.2,-12.79999 15.89983,-42.69963 24.79983,-63.09961 3.9,-9.09999 7.5006,-18.79951 8.1006,-21.49951 0.2618,-1.34674 0.3527,-3.14627 0.3574,-5.25879 z" />
  <path
     d="m 295.34149,660.81157 c -3,6.2 -11.5,35.2 -12.3,42.2 -0.5,4.3 -0.4,4.8 1.3,4.4 1.5,-0.3 2.9,-4.4 8,-23.3 8,-30.2 7.6,-28.5 6.5,-28.5 -0.5,0 -2.1,2.4 -3.5,5.2 z"
     id="path152"
     style="fill:#000000;stroke:none;stroke-width:0.1" />
  <path
     id="path1332"
     style="fill:#000000;stroke:none;stroke-width:0.1"
     d="m 899.18076,730.79558 -7.5498,-0.29443 0.3106,1.71094 -5.2002,13.39892 c -2.9,7.39999 -5.6992,13.90088 -6.1992,14.40088 -0.068,0.0837 -0.1302,0.082 -0.189,0.0322 l -4.1074,10.34619 c -0.1226,1.02954 -0.2565,1.81452 -0.4043,2.02148 -0.1526,0.24407 -0.3036,0.17062 -0.4512,-0.0601 l -3.8877,8.45069 c -0.1073,2.4183 -0.4874,4.52854 -1.2612,6.90967 -1.0052,3.12708 -1.9667,5.3311 -2.6309,6.25927 l -3.6299,8.67481 c -0.3543,5.05203 -1.2071,8.8735 -2.3393,9.56543 -0.1227,0.0736 -0.233,-0.13029 -0.3311,-0.54639 l -4.0224,8.7627 c -0.2524,2.79544 -0.6142,4.99574 -1.0459,6.18306 -0.7,1.9 -1.4004,2.801 -1.4004,2.001 0,-0.01 -0.016,-0.1214 -0.018,-0.1318 l -11.7495,-1.4693 c -0.2289,0.4217 -0.5254,0.6006 -0.9331,0.6006 -0.7051,0 -1.3531,-0.5471 -1.9336,-1.4619 l -5.1284,-2.03612 c -0.277,0.34297 -0.6504,0.49805 -1.1382,0.49805 -1.9998,0 -3.3957,-0.52609 -4.3945,-1.89697 l -3.6724,-0.81592 c -0.384,0.51479 -0.9916,0.63949 -1.8325,0.41309 -1,-0.3 -3.5001,-0.79971 -5.6001,-1.19971 l -3.7998,-0.60059 0.029,-1.26416 -3.9302,-1.00781 v 0.47168 l -5.6997,-0.59912 c -6.5423,-0.76073 -10.6393,-1.69706 -12.5405,-2.89307 l -4.8135,-1.17627 0.054,0.56836 h -3.3003 c -3.3631,0 -5.158,-0.483 -5.9927,-2.41406 l -3.7075,-0.14355 v 0.5581 h -3.2988 c -2.5022,0 -4.1361,-0.28086 -5.1636,-1.2334 l -3.8277,-0.76611 h -2.8095 c -1.2592,0 -2.3039,-0.36041 -3.0689,-0.97705 l -4.831,-0.58594 v 0.5625 h -3.8994 c -1.9409,0 -3.268,-0.28005 -3.9829,-0.87891 l -4.7593,-0.17285 c -0.1201,0.0169 -0.2376,0.0513 -0.3589,0.0513 -0.5476,0 -1.0286,-0.0891 -1.4619,-0.2666 -0.1473,-0.0238 -5.2018,-0.80186 -6.1084,-0.94629 -0.3086,0.90467 -0.757,1.21289 -1.4297,1.21289 -0.6746,0 -1.2362,-0.51919 -1.7124,-1.70068 -2.3827,-0.37688 -5.7145,-0.88826 -10.9878,-1.70361 0.6308,3.4231 1.4661,5.96914 2.5005,7.30517 1.7,2.4 2.6003,2.59971 9.3003,2.69971 8.6,0 42.1,5.09951 63,9.49951 7.9,1.59996 21.9005,4.49986 31.0005,6.39986 20.1999,4.2 21.199,4.6009 23.499,8.4009 4.8,8.1 13.5004,-0.1 19.4004,-18.39988 3.2,-9.69999 17.9005,-47.1006 25.0005,-63.60059 5.9414,-13.64581 8.1614,-19.24744 8.4389,-26.71582 z" />
  <path
     id="path1401"
     style="fill:#000000;stroke:none;stroke-width:0.1"
     d="m 1082.5793,764.62468 -7.5777,-0.29443 c 0.065,1.752 -0.2865,3.00178 -1.1601,4.98193 -1,2.1 -3.5001,8.49874 -5.6001,14.19873 -2.3626,6.32324 -3.372,8.73179 -4.0371,8.91065 l -4.9849,12.55078 -0.1025,0.22266 c -0.087,0.43978 -0.1785,0.75774 -0.2754,0.81591 -0.034,0.0219 -0.069,0.0245 -0.104,0.009 l -4.4971,9.7793 c -0.7286,6.02746 -2.2934,12.05547 -3.4116,12.13327 l -3.4527,8.253 c -0.4826,5.2799 -1.5727,9.1982 -2.833,9.3999 l -3.9199,8.5356 c -0.199,2.681 -0.5235,4.7193 -0.9814,5.9912 l -1.3008,3.999 -0.2549,-1.809 -11.7744,-1.4722 c -0.2754,0.3741 -0.7201,0.2567 -1.4707,-0.1187 -0.2827,-0.157 -0.529,-0.3259 -0.7661,-0.5024 l -5.9444,-2.3613 c -0.3678,0.2376 -0.946,0.1699 -1.8896,-0.035 -0.9685,-0.1614 -1.8025,-0.5346 -2.521,-1.0752 l -5.3262,-1.1821 c -0.2373,0.021 -0.4291,0.057 -0.7529,0.057 -1.3,0 -4.0996,-0.5001 -6.0996,-1.1001 -1.3693,-0.3502 -2.29874,-0.6332 -2.89604,-1.2612 l -5.0918,-1.3066 -0.038,-0.01 -0.073,0.7734 -2.9004,-0.6006 c -1.6,-0.4 -5.4009,-0.9989 -8.4009,-1.3989 -2.7287,-0.3638 -5.2857,-1.0532 -6.1934,-1.6274 l -5.9194,-1.4473 c -0.4972,0.6351 -1.3761,0.7762 -2.9868,0.3735 -3.4223,-0.723 -5.0681,-0.9427 -5.7876,-2.0097 l -4.6406,-0.1787 c -0.8705,0.5933 -2.1413,0.5375 -3.9712,0.089 -0.3904,-0.1 -0.7103,-0.2009 -1.0445,-0.3017 l -6.6679,-1.333 c -0.2489,0.2526 -0.5668,0.3339 -0.9873,0.3339 -1.3951,0 -2.4764,-0.3092 -3.3018,-1.0546 l -5.978,-0.7251 -0.5142,-0.019 c -0.7563,1.1977 -2.2315,1.0559 -5.0068,0.3999 -0.6177,-0.1611 -1.0667,-0.3174 -1.4077,-0.6328 l -4.9688,-0.1802 c -0.4648,0.1045 -0.9117,0.069 -1.3389,-0.095 -0.057,-0.01 -6.5404,-1.0086 -7.853,-1.2173 -0.1095,0.01 -0.2065,0.025 -0.331,0.025 -0.3245,0 -0.5921,-0.072 -0.8365,-0.205 -2.293,-0.3637 -6.249,-0.9715 -11.9106,-1.8472 1.1202,8.2171 3.2709,9.0784 9.8467,9.1523 7.8,0.1 43.8004,5.5994 64.4004,9.8994 55.69994,11.5 52.69944,10.7004 54.89944,14.9004 1.9,3.5 3.8,3.9003 7.5,1.8003 4.4,-2.5 8.7,-10.2999 13.5,-24.3999 4.7,-13.5 15.3007,-40.40049 24.2007,-61.00046 5.7233,-13.51343 7.563,-18.88613 7.7373,-24.78663 z" />
  <path
     id="path2076"
     style="fill:#000000;stroke:none;stroke-width:0.1"
     d="m 467.16028,829.87467 -6.74707,-0.2622 c 0.18498,2.6639 -0.9938,5.7165 -5.27197,16.5996 l -5.90039,14.8989 -0.041,-1.5996 -3.92432,9.8819 c -0.31012,3.1597 -0.78521,4.3462 -1.30517,2.9546 l -4.21729,9.1713 c -0.19464,3.049 -0.64396,5.5506 -1.51172,8.0918 -0.74981,2.2852 -1.33255,3.6073 -1.82373,3.9009 l -3.99755,9.5567 c -0.2424,3.37 -0.59809,5.9628 -1.07813,7.0429 -0.72568,1.7538 -1.04778,2.4158 -1.32275,1.2744 l -3.542,7.711 c -0.20418,2.9756 -0.58114,5.2607 -1.13525,6.6152 -0.84908,1.934 -1.34104,2.7978 -1.79297,1.853 l -11.82861,-1.478 c -0.57837,2.2756 -1.54964,1.9164 -3.03809,-0.709 l -4.36963,-1.1557 c -0.97681,0.7271 -3.5152,0.189 -5.49463,-1.3579 l -5.01855,-1.1587 c -0.97189,0.3342 -2.47768,0.214 -4.6582,-0.1949 -2.5,-0.5 -4.99903,-1.1 -5.49903,-1.5 -0.1539,-0.088 -0.27511,-0.3266 -0.37207,-0.665 l -3.52881,-0.7705 v 0.1362 l -5.6997,-0.6006 c -6.69077,-0.7766 -10.02722,-1.3884 -11.91358,-2.6396 l -6.38672,-1.1602 v 0.6006 l -4.10009,-0.6006 c -2.03773,-0.2658 -4.06778,-0.9244 -4.78418,-1.6274 l -4.41651,-0.6724 c -0.91823,0.8168 -2.47077,0.6907 -5.09912,0.2007 -1.57131,-0.3022 -2.51549,-0.6828 -3.10986,-1.396 l -4.2085,-0.5888 c -0.3411,0.3172 -0.83338,0.3837 -1.58203,0.3837 -1.35294,0 -2.32647,-0.2265 -3.0293,-0.8935 l -4.38867,-0.3413 0.0191,0.3354 -4.4004,-0.3003 -4.40039,-0.3003 -0.0161,-0.4907 -2.2207,-0.3061 0.0366,0.498 -2.39942,-0.3999 c -0.75739,-0.1082 -1.41119,-0.3822 -1.979,-0.8218 -1.22897,-0.2236 -1.4598,-0.2778 -4.49414,-0.7954 -0.35349,-0.06 -0.96028,-0.1571 -1.33887,-0.2212 -0.26845,0.9514 -0.59696,1.5381 -0.98877,1.5381 -0.8,0 -1.69912,-0.7 -2.09912,-1.5 -0.0501,-0.1002 -0.11331,-0.4002 -0.16845,-0.5771 -1.71395,-0.2848 -3.1097,-0.5237 -5.21338,-0.8628 -1.61608,-0.2605 -3.86153,-0.6023 -5.71143,-0.8936 1.2258,9.7142 3.68812,10.6785 12.39258,10.8325 9.29999,0.2 38.20022,4.601 62.20019,9.501 55.59995,11.4 52.70049,10.6 55.00049,15 1.8,3.5 3.8003,3.8001 7.8003,1.1001 4.49999,-2.9 7.09922,-7.7001 12.19921,-22.1001 4.6,-13 17.09962,-44.301 27.09961,-68.001 l 4.89991,-11.499 z" />
  <path
     d="m 240.54149,798.31157 c -5.9,10.4 -7.9,14.4 -19,39.8 -18.5,42.4 -95.7,230.80003 -125.299996,306.00003 -11.7,29.7 -23.4,59.2 -26,65.5 -9.6,23.4 -18.5,47.8 -18.5,50.4 0,4 3,3 5.7,-2 1.2,-2.2 17.8,-42.9 36.9,-90.5 39.899996,-99.7 111.299996,-275.30003 137.899996,-339.40003 8.2,-19.7 15.5,-38.2 15.5,-39.1 0,-2 -2.4,1.2 -7.2,9.3 z"
     id="path172"
     style="fill:#000000;stroke:none;stroke-width:0.1" />
  <path
     id="path1838"
     style="fill:#000000;stroke:none;stroke-width:0.1"
     d="m 640.06018,869.45477 -7.66846,-0.3003 -0.0146,0.043 c -0.0391,2.6251 -1.16862,5.6761 -4.63623,14.5151 -2.36866,6.26 -4.64874,11.5717 -5.625,13.4341 l -5.03174,12.6709 -0.0776,0.167 c -0.21543,1.359 -0.46403,1.9895 -0.73535,1.6011 l -4.04004,8.7832 c -0.13256,2.1736 -0.47976,3.9621 -1.08984,5.8432 -0.9,2.7 -1.79952,5.5003 -1.99952,6.3003 -0.26416,0.7925 -0.4962,1.1263 -0.73095,0.9419 l -3.72803,8.9121 c -0.19315,2.8041 -0.5613,4.774 -1.24072,6.2461 -0.56553,1.3196 -0.91774,2.122 -1.14258,2.0537 l -4.00928,8.729 c -0.2524,2.8102 -0.61551,5.0252 -1.04883,6.2168 -0.7,1.9 -1.40039,3.2008 -1.40039,2.8008 -0.011,-0.044 -0.15226,-1.1442 -0.17724,-1.3022 l -11.46826,-1.4341 c -0.0962,0.5862 -0.21362,0.936 -0.3545,0.936 -1.13797,-0.034 -2.09191,-0.7025 -2.86084,-1.9409 l -4.43701,-1.7622 c -0.28231,0.633 -0.94964,0.5902 -2.50195,0.2021 -1.78452,-0.4362 -2.94119,-0.8937 -3.74854,-1.8164 l -3.69433,-0.8203 c -0.81086,0.1943 -2.09368,0.055 -3.95655,-0.1626 -3.91874,-0.4702 -5.91534,-0.8972 -6.83935,-2.3994 l -4.38428,-1.1235 -0.082,-0.012 c -0.0889,0.512 -0.18734,0.8349 -0.29443,0.8349 -1.2,0 -13.50049,-2.0005 -16.00049,-2.5005 -0.7578,-0.202 -1.38619,-0.6375 -1.91455,-1.3506 l -5.29395,-1.2934 c -0.0506,0.2579 -0.11012,0.4631 -0.19043,0.5434 -1.15632,1.3491 -7.31184,-0.1817 -8.74365,-2.1738 l -4.16016,-0.1597 c -0.83201,1.0803 -2.34133,0.8598 -5.09619,0.1348 -0.92993,-0.2066 -1.62313,-0.4431 -2.16357,-0.7544 l -5.2207,-1.0444 c -0.28657,0.4476 -0.72471,0.5976 -1.41651,0.5976 -1.48434,0 -2.57407,-0.3842 -3.35888,-1.3359 l -4.57764,-0.5552 0.0366,0.8921 h -3.3999 c -2.10495,0 -3.44829,-0.226 -4.31104,-1.2026 l -4.25097,-0.1553 c -0.30911,0.2716 -0.72827,0.3574 -1.33741,0.3574 -0.60274,0 -1.15954,-0.2361 -1.66699,-0.6679 -0.18932,-0.031 -4.90478,-0.7563 -5.77588,-0.8951 -0.31606,0.4985 -0.82614,0.4822 -1.6582,0.3633 -0.78719,-0.1073 -1.31109,-0.2841 -1.70068,-0.8833 -2.44444,-0.3863 -5.6027,-0.8711 -10.9043,-1.6904 0.86142,5.2333 2.14541,8.2054 3.90527,9.2739 0.7,0.5 3.70059,0.6991 6.60059,0.5991 2.99999,-0.1 9.79961,0.5008 15.09961,1.3008 5.29999,0.9 17.1002,2.7997 26.20019,4.1997 9.09999,1.4 24.60001,4.4006 34.5,6.6006 9.89999,2.1 21.59952,4.5994 25.99951,5.3994 11.79999,2.2 14.09952,3.1005 16.99952,7.0005 1.39999,1.8 3.20049,3.3999 4.00048,3.3999 2,0 8.0004,-5.4003 10.40039,-9.3003 1,-1.8 3.99913,-9.3007 6.59913,-16.7007 5.09999,-14.4999 18.30049,-48.099 23.50048,-59.499 5.73737,-12.5781 7.99461,-19.3696 8.31885,-26.6572 z" />
  <path
     id="path1769"
     style="fill:#000000;stroke:none;stroke-width:0.1"
     d="m 825.22816,907.48067 -7.7886,-0.3033 v 0 c 0.2536,2.4316 -0.1604,4.4702 -1.396,7.0298 -1.1,2.1 -3.5013,8.1001 -5.3013,13.1001 -1.8174,4.8783 -3.6189,8.8911 -4.1235,9.2344 l -4.3917,11.0581 c -0.1171,0.9289 -0.2447,1.6129 -0.3837,1.8076 -0.1427,0.2283 -0.2849,0.1676 -0.4234,-0.022 l -4.0766,8.8637 c -0.1542,1.9772 -0.507,3.8313 -1.1001,6.1582 -1,3.4 -2.1005,6.4002 -2.5005,6.7002 -0.033,0.025 -0.074,-0.014 -0.1128,-0.04 l -3.8584,9.2197 c -0.1703,2.8435 -0.5375,4.7635 -1.229,6.3193 -0.5979,1.3078 -0.9717,2.1239 -1.2114,2.1153 l -4.0503,8.8183 c -0.2522,2.74213 -0.6125,4.89413 -1.0386,6.06593 -0.7,1.9 -1.3989,2.801 -1.3989,2.001 0,-0.033 -0.055,-0.4229 -0.062,-0.4702 l -11.4536,-1.4326 c -0.087,0.5664 -0.1822,0.9023 -0.2856,0.9023 -1.1668,-0.033 -2.1401,-0.6798 -2.9253,-1.8838 l -4.7857,-1.8984 c -0.8154,1.2123 -2.7726,1.0186 -5.1884,-0.7178 -0.3466,-0.22423 -0.6343,-0.49413 -0.8921,-0.81303 l -3.7808,-0.8408 c -0.8123,0.1947 -2.0537,0.1049 -3.8276,-0.045 -2.7,-0.3 -5.4992,-1.0007 -6.1992,-1.7007 -0.1379,-0.1378 -0.2545,-0.4004 -0.3604,-0.7163 l -4.6157,-1.1836 -0.2901,-0.039 c -0.1288,0.515 -0.2731,0.8393 -0.435,0.8393 -2.7,0 -15.8999,-2.3 -16.8999,-3 -0.2611,-0.1547 -0.5064,-0.4653 -0.7427,-0.8452 l -4.9365,-1.207 c -0.01,0.058 -0.01,0.2257 -0.02,0.2519 -0.8,1.3 -5.8999,0.9005 -7.8999,-0.4995 -0.5353,-0.4014 -0.891,-0.822 -1.128,-1.4443 l -3.8085,-0.1465 c -0.3311,0.8233 -0.9065,0.8906 -1.9629,0.8906 -1.4,0 -3.7003,-0.5005 -5.20024,-1.0005 -0.63123,-0.2427 -1.10423,-0.4332 -1.46044,-0.6987 l -4.44873,-0.8906 c -0.34203,0.2228 -0.78855,0.311 -1.39161,0.3896 -1.58811,0.2444 -2.72165,-0.072 -3.51562,-1.1381 l -4.4209,-0.5362 0.0366,0.8745 h -3.99902 c -2.35238,0 -3.79341,-0.3803 -4.39014,-1.2055 l -3.66504,-0.1333 c -0.31225,0.2348 -0.69318,0.3383 -1.14551,0.3383 -0.85022,0 -1.50713,-0.2126 -2.04492,-0.6958 -0.20604,-0.033 -4.48702,-0.6914 -5.25879,-0.8144 -0.0837,0.382 -0.17901,0.6849 -0.2959,0.8115 -0.39999,0.3 -1.40088,0.1997 -2.40087,-0.3003 -0.39044,-0.1952 -0.70563,-0.5393 -0.97559,-1.081 -2.45054,-0.3873 -5.54362,-0.8622 -10.79883,-1.6744 0.65287,3.593 1.54446,6.2629 2.67481,7.7549 1.59999,2.2 2.50088,2.5002 6.90088,2.2002 2.69999,-0.2 9.39932,0.2997 14.79931,1.1997 5.5,0.9 17.09991,2.7001 25.8999,4.1001 15.29993,2.4 57.19973,10.90063 70.19973,14.10063 5.1,1.3 6.9007,2.3002 9.2007,5.2002 l 2.9004,3.6987 3.5991,-1.7988 c 4.6,-2.2 8.8007,-8.6001 12.2007,-19.10013 3.6,-10.9 17.0002,-45.4001 23.2002,-59.6001 7.7605,-17.7289 10.4054,-24.0538 10.686,-32.1313 z" />
  <path
     id="path1709"
     style="fill:#000000;stroke:none;stroke-width:0.1"
     d="m 978.21056,1002.2414 0.035,-0.083 0.023,-0.097 c -0.02,0.057 -0.039,0.1244 -0.059,0.1802 z" />
  <path
     id="path1705"
     style="fill:#000000;stroke:none;stroke-width:0.1"
     d="m 1008.568,940.15987 -7.1865,-0.2798 -0.5493,1.5117 c 0.01,0.2535 0.023,0.5609 0.01,0.7192 0,1.1 -2.49904,8.101 -5.49904,15.501 -1.6859,4.2147 -2.8467,7.0353 -3.6944,8.8931 l -5.5737,14.0361 -5.3745,11.6851 -1.0357,4.1924 c -0.404,2.1977 -0.8881,4.16663 -1.3945,5.64253 l -0.023,0.097 -0.035,0.083 c -0.1655,0.4679 -0.327,0.84 -0.4922,1.1792 l -4.2627,10.188 -0.561,2.6953 c -0.5349,3.2619 -1.2945,5.6673 -2.1138,6.1919 l -3.7514,8.1724 -0.9185,3.7925 c -0.1686,1.2926 -0.3547,2.3588 -0.5698,2.8505 -0.098,0.231 -0.1788,0.4082 -0.2622,0.5904 v 0.012 0 c -0.495,1.0783 -0.7723,1.2572 -1.125,-0.1406 l -11.9429,-1.4942 c -0.3202,1.9023 -0.7625,1.8405 -1.7636,1.1338 -0.6696,-0.4949 -1.2437,-1.3742 -1.7388,-2.5195 l -4.1206,-1.6362 c -0.2407,1.1504 -0.83,1.3549 -2.2412,1.3549 -1.8344,0 -3.3016,-1.046 -4.2803,-2.8637 l -2.2676,-0.5039 0.2491,1.6684 -4.8003,-0.7002 c -4.8697,-0.7627 -6.8359,-0.9632 -7.3565,-3.8071 l -3.4775,-0.8921 -0.8906,-0.123 c -0.3705,2.1997 -0.9449,2.1207 -2.6763,1.7211 -1.4,-0.4 -5.299,-1.1 -8.499,-1.5 -3.2,-0.5 -6.2998,-1.2988 -6.7998,-1.7988 -0.1796,-0.1796 -0.4177,-0.8232 -0.668,-1.6304 l -4.2232,-1.0327 c -0.2137,1.2967 -0.9948,1.4619 -3.81,1.4619 -3.3988,0 -5.0591,-0.6007 -5.666,-3.0761 l -3.6402,-0.1407 -0.094,1.2173 h -3.7002 c -2.9156,0 -4.5393,-0.5073 -5.3145,-2.2383 l -2.685,-0.5361 v 0.8745 l -3.1992,-0.3003 c -1.4183,-0.1418 -2.4409,-0.5952 -3.1421,-1.541 l -3.8819,-0.4702 -1.2026,-0.044 c -0.2896,0.9874 -0.765,1.3307 -1.5747,1.5556 -1.1,0.3 -2.899,0.3 -3.999,0 -0.8363,-0.2323 -1.3181,-0.5904 -1.604,-1.8178 l -2.8052,-0.1011 c -0.2906,0.6143 -0.7053,1.1025 -1.1909,1.3183 -1.3794,0.5306 -2.6539,-0.2459 -3.6827,-1.8764 -0.273,-0.044 -3.6968,-0.5706 -4.3637,-0.6768 -0.446,1.2933 -1.1203,1.8567 -2.0537,1.6538 -0.6733,-0.1036 -1.1847,-0.7592 -1.6612,-2.2295 -2.5941,-0.4096 -5.512,-0.8584 -11.0727,-1.7168 1.0646,9.778 3.0957,10.6678 10.5337,10.7461 7.6,0 42.5994,5.2999 62.3994,9.3999 52.4999,10.8 55.6,11.7005 57,16.0005 1,3.1 4.2012,2.9997 8.7012,-0.3003 3.2,-2.3 8.8988,-13.2001 10.7988,-20.6001 1.5,-5.6 15.9008,-42.30063 23.8008,-60.60063 6.87644,-15.9331 8.94224,-22.166 9.02634,-28.9511 z" />
  <path
     id="path1703"
     style="fill:#000000;stroke:none;stroke-width:0.1"
     d="m 825.09486,987.80387 -0.4541,0.9082 0.01,0.1611 z" />
  <path
     id="path2132"
     style="fill:#000000;stroke:none;stroke-width:0.1"
     d="m 395.12512,1008.4025 -6.78662,-0.2636 0.30322,1.5732 -4.80029,12.1992 c -2.7,6.7 -5.2001,13.2997 -5.6001,14.6997 l -0.7998,2.5005 -0.39258,-1.3066 -4.36084,10.9819 -0.25342,0.5508 c -0.10977,0.3273 -0.22005,0.6403 -0.33984,0.7383 l -4.78125,10.396 -0.0747,0.3047 c -0.69554,5.6363 -1.9921,10.7124 -3.08349,11.31 l -3.83936,9.1802 c -0.25223,2.8385 -0.62485,5.2184 -1.07519,6.3442 l -1.29932,3.501 -0.24609,-1.0224 -3.76905,8.206 c -0.29628,4.397 -1.00659,7.4186 -2.08447,8.6162 -0.107,0.107 -0.25378,-0.2222 -0.41895,-0.8115 l -12.17578,-1.522 c -0.60976,1.7462 -1.69319,1.2129 -2.73047,-0.9638 l -4.17626,-1.6582 c -0.5656,1.264 -3.42306,0.6573 -5.75538,-1.5381 l -4.68017,-1.0401 c -0.35782,0.6466 -1.17984,0.5998 -3.06299,0.4336 -1.9,-0.2 -4.60039,-0.8008 -5.90039,-1.3008 -1.10264,-0.4134 -1.6822,-0.6941 -1.93652,-1.7299 l -3.98291,-1.0225 -0.063,-0.01 -0.0176,0.3618 -5.39941,-0.3003 c -7.40913,-0.4995 -10.91014,-1.2903 -12.63428,-3.0366 l -5.39356,-1.3183 c -0.24049,0.9955 -0.83325,1.1557 -2.17236,1.1557 -1.4,0 -3.7002,-0.5005 -5.2002,-1.0005 l -2.6997,-1.1001 0.0601,-0.7426 -2.26026,-0.086 v 0.4292 l -3.60058,0.3003 c -2.84985,0.2457 -4.65666,-0.1907 -5.66748,-1.6054 l -3.84375,-0.7691 c -0.34004,0.5304 -0.86801,0.5742 -1.68897,0.5742 -1.3,0 -2.79951,-0.4997 -3.49951,-1.1997 -0.038,-0.038 -0.072,-0.134 -0.1084,-0.1963 l -4.31836,-0.5229 c 0.13256,0.86 -0.77609,0.9703 -3.87305,0.7192 l -4.40039,-0.3003 -0.0205,-0.7529 -2.95899,-0.1084 c -0.27687,0.2999 -0.69004,0.3618 -1.31982,0.3618 -0.94212,0 -1.73564,-0.224 -2.39795,-0.7031 -0.17658,-0.029 -4.53269,-0.6988 -5.27637,-0.8174 -0.11905,0.4927 -0.26022,0.825 -0.42627,0.9199 -1.47713,0.9232 -2.61048,0.3945 -3.40576,-1.5146 -2.41471,-0.3817 -5.56654,-0.8653 -10.76221,-1.6685 0.934,6.6261 2.31857,9.7467 4.36817,9.8833 0.6,0.1 4.4002,0.2003 8.20019,0.3003 8.49999,0.3 43.19914,5.5991 62.09912,9.5991 7.7,1.6 21.60089,4.4999 30.90088,6.3999 20.09998,4.2 21.49971,4.7001 23.69971,8.6001 2.2,3.9 4.8003,3.8008 9.30029,-0.1992 4.5,-3.9 6.39913,-7.4999 11.09912,-21.3999 3.7,-10.9 19.29991,-50.1004 27.39991,-68.9004 3.95204,-9.0607 4.35901,-10.6459 4.38427,-18.709 z" />
  <path
     id="path198"
     style="fill:#000000;stroke:none;stroke-width:0.1"
     d="m 498.46546,1139.238 c -0.60064,-0.4999 -1.0862,-1.0265 -1.32422,-1.5264 -0.9,-1.8 -1.29922,-1.9002 -1.69922,-0.7002 -0.20717,0.5623 -0.75801,0.9569 -1.51026,1.2188 z" />
  <path
     id="path2187"
     style="fill:#000000;stroke:none;stroke-width:0.1"
     d="m 567.61633,1047.2663 -7.27148,-0.2827 c 0.16236,2.2368 -0.39617,3.6492 -1.90283,7.2275 -1.3,3.3 -3.7002,9.3004 -5.2002,13.4004 -2.08103,5.6419 -3.27826,8.5487 -3.94189,8.376 l -4.32276,10.8853 c -0.0459,0.2409 -0.0858,0.5591 -0.13623,0.7382 l -0.7998,2.5005 -0.15381,-0.7661 -4.41211,9.5918 c -0.2709,3.3498 -0.74034,6.1557 -1.43408,8.1738 -0.71847,2.1933 -1.27969,3.3962 -1.75928,3.4864 l -3.9126,9.3545 c -0.22361,2.8829 -0.56844,5.1249 -1.02832,6.1596 l -1.29931,3 -0.11719,-0.7046 -3.54199,7.7124 c -0.47886,5.1804 -1.55521,9.4922 -2.64112,9.4922 -0.0617,0 -0.15372,-0.2622 -0.25927,-0.6591 l -12.41895,-1.5528 c -0.15555,0.7138 -0.30338,1.2114 -0.42187,1.2114 -0.64461,0 -1.29961,-0.7677 -1.91016,-2.0625 l -4.30518,-1.7094 c -0.0134,0.2475 -0.0377,0.4338 -0.085,0.4731 -0.76198,0.8382 -3.95265,-0.474 -5.87548,-2.0742 l -4.5337,-1.0078 c -1.78955,0.6231 -4.8517,0.4072 -8.09033,-0.7193 l -3.19922,-1.0986 0.0659,-0.8613 -3.51416,-0.9024 c -0.83607,1.3714 -2.91337,0.8571 -8.05225,-0.037 -7.19478,-1.295 -9.24545,-1.6734 -10.28759,-3.0044 l -5.11231,-1.2495 v 1.5542 l -4.1997,-0.7002 c -2.3,-0.4 -4.60059,-1.1999 -5.10059,-1.8999 -0.0722,-0.1083 -0.11835,-0.3964 -0.16699,-0.6694 l -3.01319,-0.1157 -0.0205,0.5844 -3.89942,-0.1 c -2.02268,-0.075 -3.49785,-0.4324 -4.51025,-1.1894 l -4.64063,-0.9273 c -0.33618,0.6548 -0.87105,0.7163 -1.74902,0.7163 -1.74131,0 -2.856,-0.3434 -3.56104,-1.5454 l -4.64648,-0.5639 0.007,0.6093 h -4.00048 -3.99903 l -0.0249,-0.9096 -2.91943,-0.107 c -0.31471,0.424 -0.84132,0.4537 -1.75635,0.3164 -0.6189,-0.088 -1.16458,-0.2892 -1.65088,-0.6035 -0.15011,-0.024 -4.86357,-0.7495 -5.66602,-0.8774 -0.32063,0.6069 -0.83273,0.6034 -1.6831,0.4819 -0.90978,-0.1137 -1.55204,-0.4626 -1.96289,-1.0474 -2.43339,-0.3847 -5.66909,-0.8818 -11.01416,-1.708 0.60283,4.8568 1.45594,6.4405 3.37793,8.5547 1.5,1.7 2.69912,2.0007 6.59912,1.7007 5.89999,-0.6 40.79973,4.5987 65.69971,9.6987 37.59996,7.7 49.00117,10.2006 50.70117,11.1006 1,0.5 2.49883,2.2994 3.29883,3.8994 1.99999,3.9 4.5,3.8008 9,-0.1992 4.29999,-3.7 7.20098,-9.3008 11.00097,-20.8008 3.6,-10.8999 15.5004,-41.1987 23.90039,-60.6987 6.73202,-15.5729 8.43339,-20.5285 8.47412,-27.646 z" />
  <path
     id="path2253"
     style="fill:#000000;stroke:none;stroke-width:0.1"
     d="m 709.31946,1182.6413 c 0,0.01 -0.01,0.018 -0.013,0.024 h 0.01 z" />
  <path
     id="path2249"
     style="fill:#000000;stroke:none;stroke-width:0.1"
     d="m 752.74036,1084.9187 -7.3228,-0.2857 -0.013,0.035 0.4365,2.0434 -5.7993,14.6001 -5.8008,14.6001 -0.025,-0.9536 -4.1045,10.3374 -0.089,0.1948 c -0.059,0.4172 -0.1155,0.8945 -0.1801,1.1206 -0.4181,1.3735 -0.6268,1.7204 -0.8511,1.1192 l -4.2539,9.249 -0.057,0.2315 c -0.2377,2.7915 -0.6913,5.1587 -1.4385,7.4003 -0.582,1.7736 -1.0617,2.9554 -1.4781,3.5435 l -4.2714,10.2085 -0.1919,0.9185 c -0.2036,2.0848 -0.4565,3.8794 -0.7588,4.8295 l -1.1997,4.0005 -0.2373,-1.4839 -3.8907,8.4712 c -0.2256,2.4518 -0.5552,4.4688 -0.9726,5.5122 -0.3613,0.9936 -0.656,1.6634 -0.9214,2.0303 l -0.01,0.025 h -0.01 c -0.2732,0.3675 -0.5135,0.3775 -0.7427,-0.092 l -11.7129,-1.4649 c -0.2469,1.0552 -0.5904,1.3901 -1.1088,1.3037 -1.0732,-0.1987 -1.91616,-1.0737 -2.55326,-2.5869 l -3.49805,-1.3887 c -0.26624,1.7317 -3.36556,1.4808 -5.94873,-0.624 -0.45,-0.35 -0.81855,-0.725 -1.12793,-1.1953 l -2.83593,-0.6299 c -0.74024,1.117 -2.50118,1.1124 -5.63672,0.5244 -2.5,-0.5 -4.99903,-1.1 -5.49903,-1.5 -0.22391,-0.1119 -0.35693,-0.8224 -0.44677,-1.7827 l -3.45411,-0.8847 v 1.4677 l -4.5,-0.5991 c -12.90719,-1.7681 -13.62561,-1.6717 -14.65429,-4.1103 l -4.84571,-1.1851 v 1.9951 l -4.10009,-0.6006 c -2.3,-0.3 -4.59913,-1.0999 -5.09912,-1.8999 -0.13521,-0.1966 -0.23508,-0.5886 -0.30469,-1.122 l -2.96192,-0.1143 -0.0337,0.936 -4.30078,-0.1 c -2.3,0 -4.49951,-0.3998 -4.99951,-0.7998 -0.13555,-0.1491 -0.23863,-0.5362 -0.3208,-1.0532 l -3.1875,-0.6372 c -0.29413,0.9718 -0.86702,1.0898 -1.99219,1.0898 -1.90467,0 -3.06059,-0.446 -3.75439,-1.957 l -4.09571,-0.4966 0.0513,1.5542 -4.20117,-0.3003 -4.19971,-0.3003 -0.0352,-1.2612 -2.23975,-0.082 0.0747,1.0444 -2.39942,-0.3999 c -0.90144,-0.1288 -1.65914,-0.4871 -2.29394,-1.0913 -0.23181,-0.037 -4.31725,-0.6668 -5.07861,-0.7881 -0.11069,0.7813 -0.24486,1.3714 -0.42774,1.478 -1.3971,0.9314 -2.73575,-0.063 -3.48486,-2.0844 -2.4953,-0.394 -5.38736,-0.8385 -10.58936,-1.6421 1.01203,6.6815 2.45121,10.2207 4.37403,10.4267 0.6,0.1 3.99961,0.2003 7.59961,0.3003 9.09999,0.2 40.901,5.0998 63.50097,9.7998 56.09994,11.6 51.70004,10.4008 54.00004,14.8008 1.8,3.5 3.5995,3.699 7.9995,0.999 3.7,-2.3 8.2005,-10.299 11.5005,-20.499 3.1,-9.4 17.5,-46.1005 24,-61.0005 6.3267,-14.4145 8.7236,-20.7609 8.9985,-29.1928 z" />
  <path
     id="path2313"
     style="fill:#000000;stroke:none;stroke-width:0.1"
     d="m 936.21206,1118.4841 -7.73,-0.3003 c 0.1693,2.9485 -0.8561,5.6578 -4.6406,15.5273 -2.9,7.3 -5.7003,13.8009 -6.3003,14.4009 -0.087,0.082 -0.1641,0.06 -0.2344,-0.028 l -4.043,10.185 c -0.1271,1.0821 -0.2664,1.9254 -0.4218,2.1431 -0.1631,0.2609 -0.3248,0.1753 -0.482,-0.1025 l -3.8408,8.351 c -0.1421,2.2627 -0.5112,4.3873 -1.1777,6.9507 -1,3.6 -2.1005,6.9008 -2.5005,7.3008 -0.1116,0.1116 -0.266,-0.1204 -0.438,-0.5303 l -3.3398,7.982 c -0.2792,4.8701 -1.1072,8.2675 -2.4214,9.6474 -0.1325,0.159 -0.2563,6e-4 -0.3692,-0.3706 l -3.8716,8.4331 c -0.22,3.3408 -0.5745,5.8864 -1.059,7.0371 -0.6489,1.568 -0.9785,2.1674 -1.3477,1.0694 l -12.0498,-1.5059 c -0.2289,0.5905 -0.4947,0.9375 -0.8027,0.9375 -0.8158,0 -1.5574,-0.7258 -2.2002,-1.9145 l -4.5323,-1.8003 c -0.325,0.5335 -0.9215,0.7148 -1.9672,0.7148 -1.8644,0 -3.1696,-0.6688 -4.1119,-2.2763 l -3.0468,-0.6768 c -0.8189,1.4948 -3.1657,1.167 -7.7417,-0.148 -2.42,-0.6338 -3.3906,-0.8843 -3.7588,-2.5678 l -4.0415,-1.0357 v 1.9043 l -2.6997,-0.6006 c -1.6,-0.4 -5.4997,-1.0996 -8.6997,-1.5996 -3.3,-0.5 -6.4009,-1.3999 -6.9009,-1.8999 -0.2232,-0.2231 -0.4353,-0.5752 -0.6402,-0.9961 l -4.0605,-0.9917 0.1011,0.8877 h -3.4995 c -4.2416,0 -5.7632,-0.3436 -6.3033,-2.7451 l -3.9155,-0.1494 c -0.6876,1.7893 -2.2326,1.6554 -5.4814,0.9946 -1.9926,-0.3985 -2.8297,-0.7692 -3.2608,-1.8413 l -3.8569,-0.772 c -0.028,0.068 -0.053,0.1637 -0.082,0.2139 -0.9383,1.5354 -4.2603,0.589 -5.5943,-1.0854 l -4.3681,-0.5288 h -0.1319 c -0.3244,0.9705 -0.9124,1.2321 -2.0068,1.5175 -1.3,0.3 -3.4,0.1009 -4.5,-0.5991 -0.6107,-0.3214 -1.0311,-0.6668 -1.3403,-1.2041 l -2.4668,-0.089 c -0.8032,1.738 -2.5445,1.5973 -4.5059,-0.4131 -0.2002,-0.032 -4.2315,-0.6537 -4.9277,-0.7647 -0.2143,1.3434 -0.713,1.4707 -1.6582,1.4707 -1.2828,0 -2.0041,-0.306 -2.5035,-2.1152 -2.3957,-0.3784 -5.3636,-0.8346 -10.3212,-1.6011 0.3145,3.2851 0.7669,5.2033 1.5234,6.7163 1.8,3.4 1.9002,3.4995 8.2002,3.4995 7.8,0.1 42.5999,5.4005 64.8999,10.0005 54.9999,11.3 52.501,10.6001 54.501,14.6001 2.2,4.2 5.3998,4.1996 9.7998,0.1 4.4,-4.2 6.1002,-7.5997 11.2002,-22.1997 5.1,-14.5 18.299,-48.0005 23.499,-59.5005 4.8,-10.6999 7.6009,-18.499 8.4009,-23.499 0.1148,-0.861 0.119,-2.356 0.07,-4.1279 z" />
  <path
     d="m 139.64149,1109.3116 c -9.2,14.4 -35.4,75.2 -37.3,86.9 -0.9,5.2 0.7,6.6 2.8,2.6 0.8,-1.6 7.6,-17.5 15.1,-35.3 7.5,-17.8 15.8,-37.1 18.5,-42.9 2.7,-5.8 5.2,-11.7 5.6,-13.3 1,-4.3 -1.3,-3.3 -4.7,2 z"
     id="path218"
     style="fill:#000000;stroke:none;stroke-width:0.1" />
  <path
     id="path2480"
     style="fill:#000000;stroke:none;stroke-width:0.1"
     d="m 321.55774,1184.676 -7.36377,-0.2886 0.44824,2.3247 -5.70117,14.0991 c -3.35008,8.6052 -4.75344,11.9272 -5.52392,12.4131 l -4.69336,11.8198 -0.14502,0.3135 c -0.23222,1.1863 -0.5042,1.8682 -0.8042,1.752 l -4.4253,9.6196 -0.12451,0.5039 c -0.72875,6.4098 -2.27359,12.2833 -3.42627,12.0484 l -3.39843,8.1225 c -0.44047,5.4558 -1.45478,9.0588 -2.78321,9.1904 l -3.80859,8.2925 c -0.13442,3.5344 -0.45634,5.9435 -1.06641,7.2246 -0.68232,1.649 -1.04521,2.1113 -1.48535,0.2198 l -11.77002,-1.4722 c -0.17582,1.0654 -0.43011,1.7519 -0.7456,1.7519 -1.01902,0 -1.90993,-1.052 -2.64991,-2.9238 l -4.06787,-1.6142 c 0.006,0.092 0.0128,0.1456 0.0191,0.2387 0.1,1.9 -3.50079,1.1999 -5.80079,-1.1001 -0.26924,-0.2692 -0.509,-0.5273 -0.72509,-0.7822 l -2.63672,-0.5859 0.1626,1.0678 -5.2002,-0.5991 c -2.8,-0.3 -5.60068,-0.9008 -6.20068,-1.3008 -0.20137,-0.1098 -0.32439,-0.9002 -0.41309,-1.9262 l -4.17187,-1.0694 -0.19336,-0.026 c -0.0964,0.6717 -0.20119,1.1618 -0.3208,1.2216 -1.2,0.8 -15.70049,-1.7996 -17.50049,-3.0996 -0.39061,-0.3004 -0.7029,-0.7209 -0.96533,-1.2905 l -4.38282,-1.0723 0.0483,2.1636 -4.1001,-0.6006 c -2.29999,-0.3 -4.60058,-1.0999 -5.10058,-1.8999 -0.11486,-0.1723 -0.19069,-0.6886 -0.24756,-1.3564 l -3.05273,-0.1172 v 1.1733 l -4.29932,-0.1 c -2.6,0 -4.79981,-0.7 -5.29981,-1.5 -0.0841,-0.1178 -0.15348,-0.3238 -0.21679,-0.5654 l -3.02051,-0.605 c -0.30252,1.1893 -0.87413,1.27 -1.96289,1.27 -2.01258,0 -3.18694,-0.4614 -3.85986,-2.1753 l -4.41504,-0.5346 -0.15235,-0.01 0.0278,1.2158 h -3.90088 -3.89942 l -0.041,-1.5 -2.54737,-0.092 c -0.18693,1.0159 -0.71125,1.0928 -1.7124,1.0928 -1.38552,0 -2.44875,-0.4857 -3.24463,-1.5835 -0.18961,-0.031 -3.25481,-0.503 -3.72802,-0.5786 l 0.0732,1.1616 h -2.6001 c -1.88545,0 -2.46187,-0.3025 -2.62793,-1.9599 -2.47946,-0.3914 -5.29238,-0.8242 -10.36816,-1.6084 0.42483,3.6084 0.95673,5.9601 1.69628,7.2685 0.9,1.8 1.99942,3.2999 2.39942,3.3999 0.4,0 4.29971,0.1003 8.69971,0.3003 9.39999,0.3 41.8005,5.1995 62.50048,9.4995 55.39995,11.5 51.39962,10.4997 54.09961,14.6997 2.5,4.1 4.70079,4.3009 8.80078,0.9009 4.4,-3.8 6.59913,-7.9008 11.09913,-20.8008 4.59999,-13.3999 17.70069,-46.4997 24.20068,-61.1997 6.76419,-15.1552 8.60005,-20.9376 8.61621,-28.4355 z" />
  <path
     id="path226"
     style="fill:#000000;stroke:none;stroke-width:0.1"
     d="m 424.43079,1316.1589 c -0.60314,-0.482 -1.10821,-1.0093 -1.38867,-1.5469 -1,-2.1 -1.29991,-2.2002 -1.89991,-0.7002 -0.20559,0.5874 -0.59956,0.9911 -1.15576,1.2583 z" />
  <path
     id="path2680"
     style="fill:#000000;stroke:none;stroke-width:0.1"
     d="m 493.57727,1224.2224 -7.00342,-0.2725 0.26807,1.1616 -5.69971,14.2998 c -1.87115,4.7685 -3.55829,8.7027 -4.72705,11.1548 l -5.57226,14.0303 -0.23291,0.5054 -0.46875,2.0097 -0.15381,-0.6562 -4.51904,9.8247 -0.32813,1.3271 c -0.66697,5.2299 -1.76789,9.4915 -2.70117,9.9829 l -4.09863,9.7955 c -0.22534,2.6766 -0.56131,4.7412 -0.99903,5.726 l -1.29931,3 -0.0908,-0.4336 -3.81446,8.3057 c -0.44657,4.5835 -1.38754,8.6279 -2.29541,8.6279 -0.0862,0 -0.19815,-0.2771 -0.32373,-0.7104 l -12.55957,-1.5703 -0.0835,-0.032 c -0.20098,0.5186 -0.41307,0.791 -0.63282,0.7134 -0.60186,-0.2579 -1.12153,-0.7973 -1.58496,-1.5952 l -4.41064,-1.7505 c -0.003,0.01 -0.001,0.04 -0.004,0.045 -0.68965,1.0728 -3.83361,0.027 -5.81103,-1.5527 l -4.44434,-0.9888 c -1.33752,0.6426 -3.73143,0.4003 -7.54541,-0.6592 l -3.7998,-0.999 0.0791,-1.0356 -3.54346,-0.9082 -0.10107,-0.013 c -0.0754,0.2303 -0.15232,0.4078 -0.23438,0.457 -0.4,0.3 -4.59922,-0.1009 -9.19922,-0.9009 -4.59999,-0.8 -8.50009,-1.5 -8.60009,-1.5 0,0 -0.30967,-0.8164 -0.44239,-1.1411 l -4.89111,-1.1953 0.0322,1.5366 -3.69873,-0.7002 c -3.13357,-0.5559 -4.78306,-1.0127 -5.54737,-2.5004 l -3.63281,-0.1407 c -0.3338,0.3276 -0.78094,0.4962 -1.4209,0.6416 -2.1356,0.5825 -4.67417,-0.059 -6.37353,-1.3095 l -5.00977,-1.002 c -0.65807,1.4627 -1.93466,1.0784 -4.4165,-0.189 -0.31556,-0.167 -0.56465,-0.3666 -0.78516,-0.6035 l -4.56885,-0.5537 -0.87011,-0.032 c -0.72404,1.4979 -2.22926,1.5062 -5.27491,0.7895 -0.84011,-0.2191 -1.38189,-0.4082 -1.7373,-1.0444 l -3.07324,-0.1113 c -0.30992,0.4674 -0.84421,0.4978 -1.79004,0.3559 -0.64924,-0.095 -1.22388,-0.3166 -1.73145,-0.6767 -0.17427,-0.028 -4.76284,-0.7343 -5.56933,-0.8628 -0.28854,0.605 -0.75055,0.7397 -1.5,0.7397 -1.1,0 -2.19942,-0.5993 -2.39942,-1.2993 -0.003,-0.011 -0.006,-0.036 -0.009,-0.047 -2.47204,-0.3905 -5.48951,-0.8542 -10.74023,-1.6655 0.42259,2.944 0.95734,4.6863 1.74902,6.1113 1.9,3.3 2.2005,3.401 8.50049,3.501 3.5,0.1 8.89893,0.5997 11.89893,1.1997 2.99999,0.6 7.8,1.2992 10.5,1.6992 13.29998,1.7 38.20099,6.1 59.00097,10.5 12.69999,2.8 25.50001,5.5011 28.5,6.1011 4.4,0.9 6.19961,2.0002 9.09961,5.2002 l 3.7002,3.999 3.3999,-1.8999 c 4.89999,-2.9 8.89971,-9.6004 13.19971,-22.4004 3.59999,-10.6999 17.70059,-46.0995 27.60058,-69.4995 3.15409,-7.4832 4.57963,-12.3735 4.83545,-18.8891 z" />
  <path
     id="path2742"
     style="fill:#000000;stroke:none;stroke-width:0.1"
     d="m 678.58118,1262.5632 -7.02246,-0.2739 0.28271,1.3227 -5.20019,13.1997 c -2.9,7.3 -5.59961,13.7002 -6.09961,14.2002 -0.0263,0.033 -0.0512,0.038 -0.0762,0.047 l -4.45899,11.2339 c -0.22141,1.1958 -0.48035,1.8469 -0.75586,1.7285 l -4.61572,10.0371 c -0.239,2.9767 -0.67765,5.5076 -1.39307,7.6538 -0.67762,2.0329 -1.21951,3.2818 -1.68017,3.7031 l -4.27735,10.2232 c -0.24014,2.7251 -0.57476,4.9731 -0.94336,5.9736 l -1.29931,3.4995 -0.13037,-1.2099 -3.63428,7.9131 c -0.53109,5.0678 -1.57941,8.7963 -2.73486,8.7963 -0.11972,0 -0.23525,-0.1662 -0.34424,-0.4028 l -12.02637,-1.5029 c -0.11394,0.3922 -0.22651,0.6648 -0.32959,0.706 -0.73205,0.233 -1.42214,-0.3901 -2.02881,-1.56 l -3.85254,-1.5279 0.0806,0.5889 -2.89893,-0.7002 c -1.57318,-0.4104 -2.69032,-0.8917 -3.54199,-1.6597 l -5.04785,-1.122 c -1.90328,0.2963 -4.98806,-0.011 -7.71094,-0.9185 l -3.19922,-1.1001 0.0396,-0.5844 -3.59765,-0.9229 -0.085,-0.012 c -0.94468,1.0455 -3.06738,0.5518 -7.85743,-0.2813 -6.49094,-1.1683 -8.79221,-1.5903 -9.94921,-2.6367 l -5.45069,-1.333 v 1.27 l -3.60058,-0.6006 c -2.97611,-0.4878 -4.61188,-0.982 -5.42139,-2.3525 l -4.1001,-0.1567 c -0.88747,1.1157 -2.44768,0.9387 -5.17822,0.1098 -0.58525,-0.1596 -1.09767,-0.3574 -1.55859,-0.5903 l -5.86231,-1.1733 c -0.34107,0.41 -0.83217,0.4628 -1.5791,0.4628 -1.57173,0 -2.62793,-0.288 -3.33838,-1.226 l -4.58057,-0.5552 0.019,0.8818 -4.1001,-0.3003 -4.19971,-0.3003 -0.0176,-0.6108 -3.38964,-0.123 c -0.35031,0.1784 -0.81887,0.2343 -1.49268,0.2343 -1.34063,0 -2.56568,-0.2803 -2.93262,-0.7426 -0.24968,-0.04 -3.7278,-0.5758 -4.37109,-0.6783 -0.32608,0.3338 -0.79199,0.3219 -1.49707,0.2212 -0.72009,-0.09 -1.26919,-0.3307 -1.67432,-0.7134 -2.42179,-0.3831 -5.77348,-0.898 -11.20312,-1.7373 1.29325,9.2026 3.88588,9.8992 12.87744,10.0503 9.89999,0.3 38.49973,4.6006 62.69971,9.6006 54.99994,11.3 51.6,10.4 54,15 1.99999,3.9 4.5,3.7993 9,-0.2007 4.59999,-3.9 6.5,-7.8001 12,-23.6001 3.99999,-11.4 16.40108,-42.4992 27.10107,-67.6992 2.66896,-6.4055 3.97252,-11.2632 4.23926,-17.5488 z" />
  <path
     id="path2811"
     style="fill:#000000;stroke:none;stroke-width:0.1"
     d="m 862.14806,1295.4782 -8.2016,-0.3193 c -0.071,4.8753 -1.4052,8.8903 -4.6055,16.9526 -2.6,6.6 -5.0997,12.3994 -5.6997,12.8994 -0.163,0.1956 -0.3067,-0.2647 -0.438,-1.0122 l -3.7661,9.4849 c -0.1589,2.0868 -0.3647,3.6046 -0.5962,3.9287 -0.2493,0.3989 -0.4938,0.053 -0.7251,-0.7368 l -3.5479,7.7139 c 0.049,4.028 -0.7216,6.6422 -3.4262,15.1215 -0.4433,1.2744 -0.7745,1.2296 -1.1763,-0.3632 l -2.8374,6.7822 c -0.1876,5.6522 -1.0473,9.5972 -2.4873,11.1811 -0.1994,0.1994 -0.3729,-0.3675 -0.5215,-1.3007 l -3.6284,7.9013 c -0.2054,4.1277 -0.6237,7.0088 -1.2495,8.3994 -0.7,1.6 -1.4,2.3 -1.5,1.5 0,-0.043 -0.045,-0.3589 -0.048,-0.4262 l -11.4609,-1.4326 c -0.2155,0.6489 -0.5319,0.8598 -0.9902,0.8598 -0.7847,0 -1.494,-0.6301 -2.1182,-1.6567 l -4.8765,-1.9365 c -0.3591,0.4996 -0.9521,0.5932 -1.8061,0.5932 -1.8479,0 -3.1238,-0.6405 -4.0591,-2.1709 l -3.4805,-0.7734 c -0.7578,0.8142 -2.3015,0.7854 -4.8603,0.3442 -3.8005,-0.5847 -5.4731,-0.9777 -6.1538,-2.9311 l -4.5205,-1.1587 c -0.1162,0.5846 -0.2553,0.9855 -0.4248,1.0898 -0.5,0.3 -2.4008,0.1 -4.3008,-0.3003 -1.9,-0.5 -5.4991,-1.1996 -8.0991,-1.5996 -2.9818,-0.3727 -4.8213,-1.184 -5.6265,-2.2632 l -4.1616,-1.018 0.088,0.7807 h -3.501 c -4.2434,0 -5.7638,-0.3437 -6.3032,-2.748 l -3.2227,-0.1231 0.026,0.8716 h -3.4995 c -3.5177,0 -5.1813,-0.2747 -5.9576,-1.6596 l -3.1435,-0.6285 v 0.2871 h -2.6997 c -1.4225,0 -2.4524,-0.3503 -3.1846,-1.2817 l -4.6157,-0.5596 v 0.9419 l -4.1997,-0.3003 -4.2993,-0.3003 -0.025,-0.7177 -2.1768,-0.079 c -0.6012,1.5968 -2.4,1.6959 -4.4985,0 -0.1601,-0.1107 -0.3052,-0.2478 -0.4395,-0.4145 -0.189,-0.03 -4.2119,-0.6495 -4.8882,-0.7573 -0.22981,0.9046 -0.51768,1.4721 -0.87302,1.4721 -1.14212,0 -1.92358,-0.5416 -2.51513,-1.998 -2.28937,-0.3623 -5.73539,-0.8902 -10.81201,-1.6758 1.16281,9.0312 3.47265,10.9914 8.82714,10.1733 1.9,-0.4 7.80052,0.1009 13.00052,0.9009 5.1,0.9 17.0994,2.7001 26.3994,4.1001 17.2,2.7 64.6013,12.2996 74.3013,15.0996 4,1.1 5.5987,2.2 6.6987,4.5 2,3.7 5.301,3.8003 9.501,0.3003 3.8,-3.2 6.6999,-8.9007 10.8999,-21.2007 4.6,-13.4999 13.0997,-35.0998 22.1997,-56.2998 7.5036,-17.6825 10.095,-23.8418 10.3066,-32.0332 z" />
  <path
     d="m 776.84146,1421.7116 c -6.1,2.4 -0.7,3.6 68.4,15.4 22.5,3.9 62.4,9.5 67.1,9.5 7.4,0 8.5,-4.8 1.8,-7.6 -4.2,-1.8 -27.8,-5.8 -66.9,-11.3 -48.6,-6.9 -64.6,-8.3 -70.4,-6 z"
     id="path248"
     style="fill:#000000;stroke:none;stroke-width:0.1" />
  <path
     d="m 1183.7415,780.11157 c -1.9,2.3 -2.9,22.8 -2.9,63 -0.1,25.5 0.2,32.6 1.1,31.7 0.8,-0.8 1.4,-8.1 2,-21.4 2.1,-56.8 2.5,-71.4 1.9,-73.1 -0.7,-1.7 -0.8,-1.7 -2.1,-0.2 z"
     id="path250"
     style="fill:#000000;stroke:none;stroke-width:0.1" />
  <path
     d="m 1065.1415,1107.7116 c -2.2,2.8 -5.2,9.5 -7.3,16.4 -1.1,3.9 -2.9,10.3 -4.1,14.2 -1.8,6.5 -2.4,7.3 -4.5,7.3 -1.3,0 -2.7,0.6 -3.2,1.2 -0.4,0.7 -0.8,6 -0.9,11.8 -0.1,9.7 -0.5,11.7 -4.8,25 -8.9,27.3 -11.5,39.7 -8.2,38.4 1.9,-0.7 4.4,-6.9 10.1,-24.7 2.6,-8.1 5,-14.7 5.5,-14.7 0.9,0 2,8.4 2,16.5 0.1,7.8 1.2,13.7 2.6,14.2 2.2,0.7 2.5,-7.2 1.3,-29.3 -1.2,-20.6 -1.1,-22.9 0.5,-29.9 2,-8.6 3.6,-10.5 3.6,-4.3 0,11.4 4.4,30.8 6.9,30.8 1.6,0 1.4,-17.4 -0.5,-37.2 -1.6,-17 -1.6,-17.1 0.6,-25.3 2.3,-8.6 2.5,-13 0.4,-10.4 z"
     id="path252"
     style="fill:#000000;stroke:none;stroke-width:0.1" />
  <path
     d="m 381.84149,1436.5116 c -2.1,1.4 -0.6,4 3.3,5.6 7.6,3.2 37.7,7.8 105.1,16 41,5 50.5,6.2 55.3,7.1 3.4,0.7 4,-0.2 2,-2.9 -2.6,-3.5 -61.5,-13.6 -134.5,-23.2 -30.3,-3.9 -29.3,-3.8 -31.2,-2.6 z"
     id="path254"
     style="fill:#000000;stroke:none;stroke-width:0.1" />
  <path
     d="m 435.94149,1479.2116 c 0.5,2.8 7.6,4.4 23.1,5.1 9.6,0.4 13.7,0.3 13.7,-0.5 0,-0.6 -0.5,-1.4 -1.1,-1.8 -1.4,-0.8 -17.4,-3.1 -28.3,-4 -7.2,-0.7 -7.8,-0.6 -7.4,1.2 z"
     id="path256"
     style="fill:#000000;stroke:none;stroke-width:0.1" />
</svg>
